<?xml version="1.0" standalone="no"?>
<!DOCTYPE svg PUBLIC "-//W3C//DTD SVG 1.1//EN" "http://www.w3.org/Graphics/SVG/1.1/DTD/svg11.dtd" >
<svg xmlns="http://www.w3.org/2000/svg" xmlns:xlink="http://www.w3.org/1999/xlink" version="1.1">
<metadata></metadata>
<defs>
<font id="visuelt_proextralight" horiz-adv-x="1062" >
<font-face units-per-em="2048" ascent="1516" descent="-532" />
<missing-glyph horiz-adv-x="430" />
<glyph horiz-adv-x="0" />
<glyph unicode="&#xd;" horiz-adv-x="430" />
<glyph unicode=" "  horiz-adv-x="430" />
<glyph unicode="&#x09;" horiz-adv-x="430" />
<glyph unicode="&#xa0;" horiz-adv-x="430" />
<glyph unicode="!" horiz-adv-x="452" d="M143 84q0 35 25 58.5t59 23.5q35 0 58.5 -23.5t23.5 -58.5t-23.5 -59.5t-58.5 -24.5q-34 0 -59 24.5t-25 59.5zM170 1434h115l-25 -1041h-65z" />
<glyph unicode="&#x22;" horiz-adv-x="544" d="M102 1434h103l-15 -443h-73zM340 1434h103l-15 -443h-73z" />
<glyph unicode="#" horiz-adv-x="1372" d="M102 408l17 79h254l80 459h-267l15 80h266l74 408h86l-74 -408h389l74 408h86l-74 -408h242l-15 -80h-241l-80 -459h254l-17 -79h-253l-70 -408h-86l69 408h-389l-69 -408h-86l69 408h-254zM459 487h389l80 459h-389z" />
<glyph unicode="$" horiz-adv-x="1169" d="M90 428h90q20 -172 116.5 -260t242.5 -100v684q-188 39 -287.5 129t-99.5 231q0 98 50 175t138 121t199 46v184h77v-188q164 -14 265.5 -110.5t115.5 -260.5h-86q-16 125 -93 199t-202 88v-541q223 -41 333 -137t110 -270q0 -123 -55.5 -221.5t-155.5 -155.5t-232 -61 v-185h-77v187q-190 16 -312.5 131.5t-136.5 314.5zM242 1116q0 -100 69.5 -166.5t227.5 -105.5v526q-131 -4 -214 -70.5t-83 -183.5zM616 66q115 2 195 51t119 128t39 169q0 133 -82 207.5t-271 113.5v-669z" />
<glyph unicode="%" horiz-adv-x="1632" d="M82 1102q0 98 43 179t118.5 127t172.5 46q96 0 172 -46t118 -127t42 -179t-42 -179t-118 -127t-172 -46q-97 0 -172.5 46t-118.5 127t-43 179zM160 1102q0 -121 71.5 -201t184.5 -80q112 0 184 80t72 201t-72 200.5t-184 79.5q-113 0 -184.5 -79.5t-71.5 -200.5zM238 92 l1079 1303l59 -49l-1079 -1303zM885 332q0 98 42 179t117.5 127t172.5 46q96 0 171.5 -46t118.5 -127t43 -179t-43 -179t-118.5 -127t-171.5 -46q-97 0 -172.5 46t-117.5 126.5t-42 179.5zM961 332q0 -121 71.5 -201t184.5 -80q112 0 184 80t72 201t-72 200.5t-184 79.5 q-113 0 -184.5 -79.5t-71.5 -200.5z" />
<glyph unicode="&#x26;" horiz-adv-x="1269" d="M102 414q0 154 88.5 268.5t225.5 179.5q-53 74 -84 145.5t-31 157.5q0 78 36 143.5t103.5 105.5t155.5 40q133 0 205.5 -78t72.5 -192q0 -92 -41.5 -156.5t-110.5 -106.5t-177 -87l407 -498q63 160 64 362v43h84v-51q0 -246 -86 -428l215 -262h-109l-153 188 q-143 -209 -416 -208q-127 0 -229.5 52t-161 151.5t-58.5 230.5zM193 416q0 -92 41.5 -173t123.5 -130.5t195 -49.5q241 1 360 191l-448 545q-125 -59 -198.5 -156.5t-73.5 -226.5zM385 1161q0 -70 28.5 -132t82.5 -132q161 57 228 119.5t67 159.5q0 94 -56.5 147t-138.5 53 q-86 0 -148.5 -55t-62.5 -160z" />
<glyph unicode="'" horiz-adv-x="307" d="M102 1434h103l-15 -443h-73z" />
<glyph unicode="(" horiz-adv-x="614" d="M102 717q0 283 97.5 499t271.5 390l57 -58q-160 -166 -247.5 -360.5t-87.5 -470.5t89 -471t246 -361l-57 -57q-176 176 -272.5 392t-96.5 497z" />
<glyph unicode=")" horiz-adv-x="614" d="M86 -115q158 166 247 360.5t89 471.5q0 276 -88 470.5t-248 360.5l57 58q174 -174 271.5 -390.5t97.5 -498.5q0 -281 -96.5 -497t-272.5 -392z" />
<glyph unicode="*" horiz-adv-x="733" d="M102 1214l35 93l199 -93l-19 220h99l-19 -220l201 93l33 -93l-215 -57l157 -158l-73 -61l-133 186l-131 -186l-74 61l155 158z" />
<glyph unicode="+" horiz-adv-x="974" d="M102 616v78h347v346h77v-346h346v-78h-346v-346h-77v346h-347z" />
<glyph unicode="," horiz-adv-x="370" d="M92 -147q90 74 90 147q-35 -2 -58.5 23.5t-23.5 58.5q0 35 25 59.5t59 24.5q37 0 60.5 -24.5t23.5 -67.5q0 -76 -40 -134.5t-111 -109.5z" />
<glyph unicode="-" horiz-adv-x="845" d="M102 616v78h641v-78h-641z" />
<glyph unicode="." horiz-adv-x="370" d="M102 84q0 35 25 58.5t59 23.5q35 0 58.5 -23.5t23.5 -58.5t-23.5 -59.5t-58.5 -24.5q-34 0 -59 24.5t-25 59.5z" />
<glyph unicode="/" horiz-adv-x="985" d="M57 0l779 1434h92l-778 -1434h-93z" />
<glyph unicode="0" horiz-adv-x="1323" d="M102 717q0 211 67 379t192.5 263t300.5 95q174 0 299.5 -95t192.5 -263t67 -379t-67 -379t-192.5 -263t-299.5 -95q-175 0 -300.5 95t-192.5 263t-67 379zM193 717q0 -195 57 -342.5t163.5 -229.5t248.5 -82q143 0 248.5 82t162.5 229.5t57 342.5t-57 342t-162.5 229 t-248.5 82q-141 0 -248 -82t-164 -229.5t-57 -341.5z" />
<glyph unicode="1" horiz-adv-x="561" d="M53 1165v84h39q109 0 167 44t73 141h86v-1434h-90v1251q-47 -51 -107.5 -68.5t-167.5 -17.5z" />
<glyph unicode="2" horiz-adv-x="1107" d="M86 0v74l586 571q98 98 150 195.5t52 206.5q0 158 -92 240.5t-223 82.5q-158 0 -251 -94t-97 -252h-90q2 127 57 224.5t154.5 151.5t228.5 54q117 0 208 -48t143.5 -139t52.5 -212q0 -131 -60.5 -245t-181.5 -230l-508 -496h786v-84h-915z" />
<glyph unicode="3" horiz-adv-x="1157" d="M70 489h90q14 -197 120.5 -311.5t288.5 -114.5q117 0 207 56.5t139.5 153t49.5 214.5q0 131 -58.5 224.5t-158 140.5t-218.5 47h-26v74l391 377h-762v84h868v-86l-391 -377q188 -20 316.5 -142t128.5 -340q0 -143 -62.5 -259.5t-174 -183t-249.5 -66.5 q-155 0 -264.5 68.5t-168 184t-66.5 256.5z" />
<glyph unicode="4" horiz-adv-x="1128" d="M82 365v84l694 985h82v-985h189v-84h-189v-365h-90v365h-686zM182 449h586v829z" />
<glyph unicode="5" horiz-adv-x="1183" d="M82 440h90q20 -158 119.5 -267.5t286.5 -109.5q133 0 227 62.5t140 164t46 218.5q0 195 -104.5 310.5t-284.5 115.5q-250 0 -403 -193l-64 27l98 666h748v-84h-680l-76 -490q158 154 389 154q141 0 247 -61.5t163 -174t57 -264.5q0 -145 -57 -267t-171 -194.5t-275 -72.5 q-138 0 -247.5 59t-175 163.5t-73.5 237.5z" />
<glyph unicode="6" horiz-adv-x="1167" d="M102 666q0 233 64.5 412t184.5 277.5t278 98.5q160 0 266 -93t123 -251h-88q-27 137 -111 198.5t-194 61.5q-127 0 -225.5 -89t-150.5 -249t-48 -366q53 129 173 206.5t253 77.5q125 0 229.5 -58t166.5 -164.5t62 -246.5q0 -141 -61 -255.5t-173 -180t-255 -65.5 q-98 0 -190.5 44t-159.5 126q-143 174 -144 516zM217 461q0 -98 47 -190.5t134 -150t204 -57.5t207 57.5t138 151t48 201.5q0 109 -49 199t-136 142t-196 52q-113 0 -204 -57t-142 -150.5t-51 -197.5z" />
<glyph unicode="7" d="M86 1350v84h879v-70l-576 -1364h-94l567 1350h-776z" />
<glyph unicode="8" horiz-adv-x="1081" d="M102 403q0 129 72 235.5t186 152.5q-96 49 -145 131t-49 176q0 98 50 180t136 129t189 47q102 0 188 -47t136 -129t50 -180q0 -94 -48 -176t-144 -131q115 -45 185.5 -152t70.5 -236q0 -119 -54.5 -216t-153.5 -152t-230 -55t-230.5 55t-154 152.5t-54.5 215.5zM193 406 q0 -147 93 -245t255 -98q161 0 254.5 95.5t93.5 247.5q0 94 -42 171.5t-121 125t-185 47.5t-185.5 -47.5t-121 -126t-41.5 -170.5zM254 1096q0 -117 78 -195t209 -78t209.5 78t78.5 195t-78.5 198.5t-209.5 81.5t-209 -82t-78 -198z" />
<glyph unicode="9" horiz-adv-x="1167" d="M82 954q0 139 61.5 254t173 180.5t252.5 65.5q211 0 353 -170q74 -86 108.5 -213t34.5 -301q0 -236 -62.5 -415t-180 -277t-277.5 -98q-162 0 -270.5 93t-122.5 251h86q27 -137 111.5 -199t193.5 -62q131 0 229 89.5t149.5 249t47.5 366.5q-63 -135 -178 -210t-248 -75 q-123 0 -228.5 58.5t-169 166t-63.5 246.5zM172 963q0 -109 50 -200t137 -143.5t196 -52.5q113 0 204 57.5t142 150.5t51 198q0 100 -47 191t-136 148.5t-206 57.5t-206 -56.5t-137 -150.5t-48 -200z" />
<glyph unicode=":" horiz-adv-x="370" d="M102 84q0 35 25 58.5t59 23.5q35 0 58.5 -23.5t23.5 -58.5t-23.5 -59.5t-58.5 -24.5q-34 0 -59 24.5t-25 59.5zM102 963q0 35 25 58.5t59 23.5q35 0 58.5 -23.5t23.5 -58.5t-23.5 -59.5t-58.5 -24.5q-34 0 -59 24.5t-25 59.5z" />
<glyph unicode=";" horiz-adv-x="378" d="M109 82q0 35 24.5 59.5t59.5 24.5q37 0 60 -24.5t23 -67.5q0 -141 -145 -244l-22 20q41 37 61 73t20 77q-35 -2 -58 23.5t-23 58.5zM109 963q0 35 24.5 58t59.5 23t58 -23.5t23 -57.5q0 -35 -23.5 -59.5t-57.5 -24.5q-35 0 -59.5 24.5t-24.5 59.5z" />
<glyph unicode="&#x3c;" horiz-adv-x="974" d="M131 575v78l684 373v-88l-592 -324l592 -321v-90z" />
<glyph unicode="=" horiz-adv-x="974" d="M102 421v78h770v-78h-770zM102 811v78h770v-78h-770z" />
<glyph unicode="&#x3e;" horiz-adv-x="974" d="M160 203v90l592 321l-592 324v88l684 -373v-78z" />
<glyph unicode="?" horiz-adv-x="1015" d="M111 1071q4 106 56 193.5t144 138.5t211 51q125 0 214 -46t135.5 -123t46.5 -169q0 -94 -44.5 -168t-140.5 -147q-92 -74 -135 -145.5t-45 -168.5l-2 -94h-82v86q-2 121 46 201t151 164q86 70 123.5 130t37.5 138q0 127 -90 192.5t-215 65.5q-104 0 -176 -43 t-109.5 -111.5t-41.5 -144.5h-84zM428 84q0 35 24.5 58.5t59.5 23.5t58.5 -23.5t23.5 -58.5t-23.5 -59.5t-58.5 -24.5t-59.5 24.5t-24.5 59.5z" />
<glyph unicode="@" horiz-adv-x="1482" d="M102 512q0 297 89.5 510t246 322.5t355.5 109.5q272 0 408 -151.5t136 -417.5v-885h-84v193q-125 -213 -356 -213q-129 0 -230.5 65.5t-157.5 185t-56 281.5t56 282.5t156.5 185t231.5 64.5q229 0 356 -196q4 250 -107.5 386t-352.5 136q-166 0 -302.5 -94t-217 -287.5 t-80.5 -476.5q0 -281 80.5 -474.5t220 -288.5t315.5 -95q158 0 258 51t162 158h80q-137 -293 -500 -293q-180 0 -341 94t-263.5 305t-102.5 543zM537 512q0 -215 99 -332t271 -117q103 0 181.5 47.5t121.5 125t43 163.5v226q0 86 -44 163.5t-122.5 125t-179.5 47.5 q-172 0 -271 -117t-99 -332z" />
<glyph unicode="A" horiz-adv-x="1200" d="M41 0l520 1434h78l520 -1434h-94l-119 332h-690l-119 -332h-96zM285 416h630l-288 805l-27 102l-27 -102z" />
<glyph unicode="B" horiz-adv-x="1189" d="M143 0v1434h492q123 0 214 -47.5t138 -130t47 -185.5q0 -100 -51 -182t-147 -133q129 -39 204.5 -129t75.5 -238q0 -180 -121 -284.5t-315 -104.5h-537zM233 84h453q154 0 247 82t93 223q0 143 -90 224t-236 81h-467v-610zM233 778h402q135 0 222 82t87 207 q0 123 -82 203t-229 80h-400v-572z" />
<glyph unicode="C" horiz-adv-x="1486" d="M102 717q0 215 90.5 383t245 261t340.5 93q162 0 292 -61.5t211 -168t103 -241.5h-86q-51 193 -191 290t-327 97q-178 0 -311 -88t-204.5 -237.5t-71.5 -327.5t71.5 -327.5t204.5 -238t311 -88.5q184 0 324.5 98.5t193.5 289.5h86q-25 -135 -105.5 -242t-209.5 -168 t-291 -61q-186 0 -340.5 93t-245 261t-90.5 383z" />
<glyph unicode="D" horiz-adv-x="1302" d="M143 0v1434h336q219 0 382 -89.5t251 -251t88 -376.5t-88 -377t-251 -251t-382 -89h-336zM233 84h238q313 0 476 171t163 462t-163 462t-476 171h-238v-1266z" />
<glyph unicode="E" horiz-adv-x="1048" d="M143 0v1434h768v-84h-678v-590h623v-84h-623v-592h701v-84h-791z" />
<glyph unicode="F" horiz-adv-x="1013" d="M143 0v1434h781v-84h-691v-611h637v-84h-637v-655h-90z" />
<glyph unicode="G" horiz-adv-x="1521" d="M102 717q0 215 90.5 383t246 261t349.5 93q242 0 401 -124t202 -322h-91q-57 184 -188 273t-324 89q-180 0 -315 -88t-207.5 -237.5t-72.5 -327.5t72.5 -327.5t207.5 -238t315 -88.5q264 0 399.5 160t139.5 420h-643v84h735v-74q0 -199 -76.5 -351t-220 -237t-334.5 -85 q-192 0 -348.5 93t-247 261t-90.5 383z" />
<glyph unicode="H" horiz-adv-x="1245" d="M143 0v1434h90v-674h779v674h90v-1434h-90v676h-779v-676h-90z" />
<glyph unicode="I" horiz-adv-x="376" d="M143 0v1434h90v-1434h-90z" />
<glyph unicode="J" horiz-adv-x="954" d="M66 395h86q4 -152 79.5 -242t210.5 -90q133 0 206 86.5t73 249.5v1035h90v-1026q0 -199 -95 -313.5t-274 -114.5q-170 0 -273 111.5t-103 303.5z" />
<glyph unicode="K" horiz-adv-x="1060" d="M143 0v1434h90v-674l635 674h117l-651 -689l663 -745h-116l-648 727v-727h-90z" />
<glyph unicode="L" horiz-adv-x="1054" d="M143 0v1434h90v-1350h707v-84h-797z" />
<glyph unicode="M" horiz-adv-x="1536" d="M143 0v1434h93l532 -1321l532 1321h93v-1434h-90v1208l-490 -1208h-88l-492 1208v-1208h-90z" />
<glyph unicode="N" horiz-adv-x="1269" d="M143 0v1434h101l792 -1282v1282h90v-1434h-100l-793 1284v-1284h-90z" />
<glyph unicode="O" horiz-adv-x="1564" d="M102 717q0 207 88.5 376t244 265t347.5 96q193 0 348.5 -96t243.5 -265t88 -376t-88 -376t-243.5 -265t-348.5 -96q-192 0 -347.5 96t-244 265t-88.5 376zM193 717q0 -188 74.5 -337t208.5 -233t306 -84t306.5 84t209 232.5t74.5 337.5q0 188 -74.5 336.5t-209 232.5 t-306.5 84t-306 -84t-208.5 -232.5t-74.5 -336.5z" />
<glyph unicode="P" horiz-adv-x="1181" d="M143 0v1434h471q143 0 248 -56.5t161 -157t56 -229.5t-56 -230.5t-160.5 -157.5t-248.5 -56h-381v-547h-90zM233 631h377q180 0 279.5 98t99.5 262q0 162 -100.5 260.5t-278.5 98.5h-377v-719z" />
<glyph unicode="Q" horiz-adv-x="1564" d="M102 717q0 207 88.5 376t244 265t347.5 96q193 0 348.5 -96t243.5 -265t88 -376q0 -197 -78.5 -358.5t-219 -261t-318.5 -113.5q29 -88 120 -151.5t218 -74.5l-35 -75q-145 20 -257 101t-142 196q-186 8 -334 106t-231 264t-83 367zM193 717q0 -190 74.5 -339t208.5 -232 t306 -83t306.5 83t209 231.5t74.5 339.5q0 190 -74.5 338.5t-209 231.5t-306.5 83t-306 -83t-208.5 -231.5t-74.5 -338.5z" />
<glyph unicode="R" horiz-adv-x="1136" d="M143 0v1434h375q238 0 370 -119t132 -320q0 -154 -79 -260t-220 -153l346 -582h-102l-336 559h-396v-559h-90zM233 643h345q164 0 258 99.5t94 254.5q0 158 -100.5 255.5t-290.5 97.5h-306v-707z" />
<glyph unicode="S" horiz-adv-x="1173" d="M90 428h90q23 -188 134.5 -276.5t279.5 -88.5q123 0 208 49.5t128 129.5t43 172q0 139 -94.5 219t-311.5 121q-211 41 -316.5 127t-105.5 231q0 100 53.5 178t145.5 121t209 43q190 0 309 -98.5t135 -276.5h-86q-18 139 -112 215t-246 76q-137 0 -227 -66.5t-90 -187.5 q0 -111 92 -177.5t297 -107.5q227 -45 332.5 -140t105.5 -273q0 -125 -59.5 -225.5t-166 -156.5t-243.5 -56q-213 0 -351.5 117.5t-152.5 330.5z" />
<glyph unicode="T" horiz-adv-x="1015" d="M74 1350v84h868v-84h-389v-1350h-90v1350h-389z" />
<glyph unicode="U" horiz-adv-x="1228" d="M143 492v942h90v-945q0 -195 99.5 -310.5t281.5 -115.5t281.5 116t99.5 310v945h90v-942q0 -229 -120.5 -370.5t-350.5 -141.5q-229 0 -350 141t-121 371z" />
<glyph unicode="V" horiz-adv-x="1146" d="M33 1434h96l422 -1256l22 -84l23 84l422 1256h96l-483 -1434h-115z" />
<glyph unicode="W" horiz-adv-x="1847" d="M33 1434h96l358 -1268l15 -76l16 76l361 1268h92l360 -1268l15 -76l16 76l356 1268h97l-412 -1434h-113l-366 1305l-367 -1305h-113z" />
<glyph unicode="X" horiz-adv-x="1077" d="M33 0l450 793l-360 641h104l312 -568l313 568h102l-360 -641l450 -793h-102l-403 717l-404 -717h-102z" />
<glyph unicode="Y" horiz-adv-x="1024" d="M37 1434h94l367 -793l14 -53l16 53l365 793h94l-430 -924v-510h-90v510z" />
<glyph unicode="Z" horiz-adv-x="1126" d="M86 0v84l807 1266h-770v84h881v-66l-814 -1284h838v-84h-942z" />
<glyph unicode="[" horiz-adv-x="479" d="M102 -410v1844h312v-80h-228v-1684h228v-80h-312z" />
<glyph unicode="\" horiz-adv-x="985" d="M57 1434h93l778 -1434h-92z" />
<glyph unicode="]" horiz-adv-x="479" d="M66 -330h227v1684h-227v80h311v-1844h-311v80z" />
<glyph unicode="^" horiz-adv-x="942" d="M86 899l352 535h66l352 -535h-86l-299 457l-297 -457h-88z" />
<glyph unicode="_" horiz-adv-x="964" d="M49 -37h866v-78h-866v78z" />
<glyph unicode="`" horiz-adv-x="399" d="M61 1434h113l164 -273h-80z" />
<glyph unicode="a" d="M86 281q0 143 97.5 223t254.5 96l318 33v55q0 276 -264 277q-125 0 -195 -69t-76 -163h-84q10 135 107.5 223t251.5 88q172 0 258 -95t86 -257v-489q0 -68 30.5 -102.5t75.5 -34.5q25 0 55 10v-72q-35 -16 -81 -16q-74 0 -117 51t-47 121q-78 -82 -160 -131t-195 -49 q-145 0 -230 82.5t-85 218.5zM170 281q0 -96 63.5 -159t176.5 -63q196 0 346 201v299l-297 -33q-129 -14 -209 -73.5t-80 -171.5z" />
<glyph unicode="b" horiz-adv-x="1107" d="M135 0v1495h84v-641q61 88 154.5 139t208.5 51q131 0 231 -62t156.5 -182t56.5 -286q0 -168 -57.5 -289t-158.5 -183t-232 -62q-115 0 -209.5 49t-149.5 129v-158h-84zM219 373q0 -72 43 -144.5t121 -121t180 -48.5q170 0 274.5 118t104.5 337q0 217 -104.5 334 t-274.5 117q-102 0 -180 -49.5t-121 -124t-43 -144.5v-274z" />
<glyph unicode="c" horiz-adv-x="1103" d="M82 514q0 156 63.5 276.5t176 187t253.5 66.5q186 0 303 -99t144 -275h-80q-29 131 -118 213t-246 82q-125 0 -218.5 -60.5t-143.5 -164t-50 -226.5q0 -125 51 -229.5t145.5 -165t217.5 -60.5q158 0 246.5 85t115.5 210h80q-12 -106 -71.5 -191t-157 -134t-220.5 -49 q-139 0 -251.5 66.5t-176 188t-63.5 279.5z" />
<glyph unicode="d" horiz-adv-x="1107" d="M82 510q0 168 59.5 289t162 183t233.5 62q106 0 200 -46t152 -130v627h84v-1495h-84v166q-57 -84 -146.5 -135t-201.5 -51q-133 0 -237.5 62t-163 182t-58.5 286zM166 510q0 -217 102.5 -334t276.5 -117q106 0 184 48.5t119 122t41 149.5v276q0 76 -44 147.5t-123 117 t-177 45.5q-168 0 -273.5 -118t-105.5 -337z" />
<glyph unicode="e" horiz-adv-x="1081" d="M82 512q0 160 64.5 280.5t172 186t234.5 65.5t228.5 -57t159.5 -168.5t58 -267.5v-45h-827q0 -147 53.5 -247.5t140.5 -150t191 -49.5q131 0 215 70t121 197h84q-39 -160 -147.5 -253t-274.5 -93q-139 0 -245.5 64.5t-167 184t-60.5 283.5zM174 580h739q0 117 -49 204.5 t-131 134t-180 46.5q-152 0 -257.5 -105.5t-121.5 -279.5z" />
<glyph unicode="f" horiz-adv-x="638" d="M57 950v74h176v238q0 121 66 187.5t170 66.5q55 0 113 -17v-76q-51 18 -105 19q-78 0 -119 -48t-41 -132v-238h248v-74h-248v-950h-84v950h-176z" />
<glyph unicode="g" horiz-adv-x="1122" d="M82 516q0 164 61.5 284t168 182t237.5 62q227 0 354 -178v158h84v-1020q0 -195 -109.5 -314.5t-322.5 -119.5q-158 0 -271.5 85t-131.5 222h96q20 -102 101 -164.5t202 -62.5q180 0 266 96t86 270v158q-59 -84 -150 -134t-210 -50q-131 0 -236.5 62.5t-165 181 t-59.5 282.5zM166 516q0 -143 53 -244.5t141.5 -151.5t194.5 -50q104 0 184 46t122 120.5t42 156.5v258q0 78 -46 150.5t-126 118t-176 45.5q-104 0 -192.5 -50.5t-142.5 -151.5t-54 -247z" />
<glyph unicode="h" horiz-adv-x="1056" d="M135 0v1495h84v-668q72 98 174.5 157.5t227.5 59.5q145 0 227 -87t82 -236v-721h-84v725q0 121 -67.5 180.5t-178.5 59.5q-106 0 -205.5 -62.5t-175.5 -179.5v-723h-84z" />
<glyph unicode="i" horiz-adv-x="356" d="M102 1303q0 33 22.5 54t53.5 21q33 0 54.5 -21.5t21.5 -53.5q0 -31 -21.5 -53.5t-54.5 -22.5q-31 0 -53.5 22.5t-22.5 53.5zM137 0v1024h84v-1024h-84z" />
<glyph unicode="j" horiz-adv-x="378" d="M-70 -332q33 -12 56.5 -17t54.5 -5q53 0 85 30.5t32 98.5v1249h84v-1243q0 -98 -49.5 -154.5t-145.5 -56.5q-62 0 -117 20v78zM125 1303q0 33 21.5 54t54.5 21q31 0 53 -21.5t22 -53.5q0 -31 -22.5 -53.5t-52.5 -22.5q-33 0 -54.5 22.5t-21.5 53.5z" />
<glyph unicode="k" horiz-adv-x="866" d="M135 0v1495h84v-913l457 442h108l-477 -463l518 -561h-108l-498 535v-535h-84z" />
<glyph unicode="l" horiz-adv-x="354" d="M135 0v1495h84v-1495h-84z" />
<glyph unicode="m" horiz-adv-x="1552" d="M135 0l2 1024h84v-174q59 88 146.5 141t183.5 53q104 0 168.5 -46t91.5 -126q61 84 146 128t182 44q133 0 209.5 -79.5t76.5 -219.5v-745h-84v727q0 123 -61 180.5t-162 57.5q-84 0 -162.5 -51.5t-132.5 -139.5v-774h-84v748q0 104 -57 160.5t-147 56.5q-174 0 -314 -222 v-743h-86z" />
<glyph unicode="n" horiz-adv-x="1044" d="M135 0v1024h84v-199q66 96 168 157.5t221 61.5q145 0 227.5 -82.5t82.5 -232.5v-729h-84v719q0 123 -66 184.5t-176 61.5q-104 0 -200.5 -64.5t-172.5 -189.5v-711h-84z" />
<glyph unicode="o" horiz-adv-x="1150" d="M82 512q0 152 61.5 272.5t174 190t257.5 69.5t258 -69.5t174.5 -190t61.5 -272.5t-61.5 -272.5t-174 -190t-258.5 -69.5q-145 0 -257.5 69.5t-174 190t-61.5 272.5zM166 512q0 -133 53 -236.5t146.5 -160t209.5 -56.5q117 0 210.5 56.5t146.5 160t53 236.5t-53 236.5 t-146.5 160t-210.5 56.5t-210 -56.5t-146 -160t-53 -236.5z" />
<glyph unicode="p" horiz-adv-x="1107" d="M135 -410v1434h84v-166q57 84 148.5 135t210.5 51q131 0 232 -62t158.5 -182t57.5 -286q0 -168 -57.5 -289t-159.5 -183t-236 -62q-109 0 -203 48t-151 136v-574h-84zM219 367q0 -68 45 -139.5t125 -120t176 -48.5q166 0 271.5 119t105.5 336q0 219 -101.5 335 t-275.5 116q-106 0 -185 -49.5t-120 -124t-41 -150.5v-274z" />
<glyph unicode="q" horiz-adv-x="1107" d="M82 510q0 168 58.5 289t163 183t237.5 62q111 0 200.5 -47t147.5 -133v160h84v-1434h-84v570q-61 -82 -152.5 -131t-199.5 -49q-131 0 -233.5 62t-162 182t-59.5 286zM166 510q0 -217 104.5 -334t274.5 -117q102 0 181 47.5t121 122t42 152.5v276q0 72 -42 143.5 t-121 118t-181 46.5q-170 0 -274.5 -117t-104.5 -338z" />
<glyph unicode="r" horiz-adv-x="663" d="M135 0v1024h84v-166q45 74 124 130t177 56q61 0 90 -16l-14 -74q-29 10 -80 11q-90 0 -169 -60.5t-128 -165.5v-739h-84z" />
<glyph unicode="s" horiz-adv-x="890" d="M66 319h84q35 -260 311 -260q121 0 194.5 62.5t73.5 163.5q0 100 -72.5 148t-236.5 81q-313 61 -314 268q0 113 89.5 187.5t228.5 74.5q145 0 242.5 -79.5t105.5 -223.5h-84q-12 115 -85 170.5t-179 55.5q-109 0 -171.5 -49.5t-62.5 -131.5q0 -72 63.5 -122t233.5 -84 q176 -37 251 -102.5t75 -188.5q0 -86 -43 -157t-124 -111.5t-189 -40.5q-174 0 -276.5 90t-114.5 249z" />
<glyph unicode="t" horiz-adv-x="665" d="M49 950v74h203v299l84 -31v-268h256v-74h-256v-723q0 -174 141 -174q31 0 53.5 6.5t61.5 20.5v-74q-64 -26 -132 -26h-5h-2q-201 0 -201 237v733h-203z" />
<glyph unicode="u" horiz-adv-x="1032" d="M127 322v702h84v-696q0 -115 61.5 -192t194.5 -77q109 0 201 70t145 186v709h84v-1024h-84v190q-47 -82 -144.5 -146t-219.5 -64q-154 0 -238 89t-84 253z" />
<glyph unicode="v" horiz-adv-x="978" d="M45 1024h92l318 -819l34 -115l37 115l318 819h90l-402 -1024h-86z" />
<glyph unicode="w" horiz-adv-x="1452" d="M45 1024h90l248 -819l23 -105l24 105l250 819h92l250 -819l25 -105l22 105l248 819h90l-311 -1024h-95l-276 922l-274 -922h-95z" />
<glyph unicode="x" horiz-adv-x="874" d="M33 0l352 555l-295 469h98l250 -399l250 399h96l-292 -469l350 -555h-99l-305 489l-307 -489h-98z" />
<glyph unicode="y" horiz-adv-x="927" d="M45 1024h96l322 -745l10 -58l318 803h92l-570 -1434h-88l211 535z" />
<glyph unicode="z" horiz-adv-x="884" d="M74 0v61l618 883h-594v80h705v-57l-617 -887h617v-80h-729z" />
<glyph unicode="{" horiz-adv-x="608" d="M78 473v80h43q59 0 100 40t41 114v561q0 78 40 122t120 44h84v-80h-57q-53 0 -78 -28t-25 -91v-530q0 -150 -119 -191q119 -45 119 -192v-533q0 -63 24.5 -91t78.5 -28h57v-80h-84q-80 0 -120 44t-40 122v563q0 74 -41 114t-100 40h-43z" />
<glyph unicode="|" horiz-adv-x="364" d="M143 -246v1680h78v-1680h-78z" />
<glyph unicode="}" horiz-adv-x="608" d="M102 -330h58q53 0 77.5 28t24.5 91v533q0 145 121 192q-121 43 -121 191v530q0 63 -24.5 91t-77.5 28h-58v80h84q80 0 120 -44t40 -122v-561q0 -74 41 -114t100 -40h43v-80h-43q-59 0 -100 -40t-41 -114v-563q0 -78 -40 -122t-120 -44h-84v80z" />
<glyph unicode="~" horiz-adv-x="954" d="M102 580q8 102 63.5 158.5t137.5 56.5q57 0 98 -19.5t93 -58.5q47 -35 78.5 -51.5t74.5 -16.5q61 0 92 42t39 104h74q-8 -104 -64.5 -163t-136.5 -59q-57 0 -98 19.5t-92 58.5q-47 35 -79 51.5t-75 16.5q-61 0 -93 -39t-38 -100h-74z" />
<glyph unicode="&#xa1;" horiz-adv-x="452" d="M143 942q0 35 25 58.5t59 23.5q35 0 58.5 -23.5t23.5 -58.5t-23.5 -59.5t-58.5 -24.5t-59.5 24.5t-24.5 59.5zM170 -410l25 1041h65l25 -1041h-115z" />
<glyph unicode="&#xa2;" horiz-adv-x="1103" d="M82 514q0 150 58.5 266.5t162 185t234.5 76.5v207h77v-207q170 -8 276.5 -106t131.5 -266h-80q-27 123 -106.5 202.5t-221.5 90.5v-902q142 11 223 94t105 199h80q-16 -154 -128 -257t-280 -115v-187h-77v187q-131 8 -234.5 76.5t-162 186t-58.5 269.5zM166 514 q0 -119 45 -217t129 -161.5t197 -74.5v902q-113 -10 -197 -73t-129 -161t-45 -215z" />
<glyph unicode="&#xa3;" horiz-adv-x="1120" d="M111 637v78h190l-29 53q-51 98 -76.5 162.5t-25.5 140.5q0 96 47 183t142.5 143.5t234.5 56.5q127 0 219 -48t142.5 -130t54.5 -184h-84q-16 145 -107.5 211.5t-232.5 66.5q-96 0 -171 -40t-115 -107.5t-40 -149.5q0 -76 23.5 -137.5t70.5 -147.5q29 -49 41 -73h445v-78 h-414q23 -68 23 -145q0 -111 -45.5 -201t-147.5 -207h737v-84h-852v70q125 133 175.5 221t50.5 194q0 74 -29 152h-227z" />
<glyph unicode="&#xa4;" d="M123 262l110 113q-78 100 -77 239q0 143 77 240l-110 115l55 55l111 -115q100 82 243 82q70 0 132.5 -21.5t109.5 -60.5l111 115l55 -55l-111 -115q80 -96 80 -240q0 -141 -80 -239l111 -113l-55 -55l-111 112q-49 -39 -111.5 -60t-130.5 -21q-139 0 -243 81l-111 -112z M227 614q0 -96 43 -165.5t113 -106.5t149 -37q80 0 149 37t112 106.5t43 165.5t-43 166t-112 107t-149 37t-149.5 -37t-112.5 -106.5t-43 -166.5z" />
<glyph unicode="&#xa5;" horiz-adv-x="1032" d="M37 1434h96l371 -658l12 -37l14 37l369 658h96l-391 -697h287v-78h-330v-196h330v-78h-330v-385h-90v385h-330v78h330v196h-330v78h289z" />
<glyph unicode="&#xa6;" horiz-adv-x="364" d="M143 -246v721h78v-721h-78zM143 713v721h78v-721h-78z" />
<glyph unicode="&#xa7;" horiz-adv-x="1122" d="M82 522q0 137 88 228.5t242 123.5q-92 39 -146.5 112t-54.5 165q0 90 49 158.5t130 106.5t173 38q166 0 263.5 -88t105.5 -240h-84q-10 104 -82 175t-203 71q-104 0 -185 -56t-81 -165q0 -104 86 -165.5t260 -100.5q397 -84 397 -383q0 -141 -87 -231.5t-236 -123.5 q104 -43 150 -115.5t46 -152.5q0 -94 -50 -164.5t-130 -107.5t-170 -37q-170 0 -267 90t-106 238h84q12 -104 86 -175t201 -71q109 0 186.5 60.5t77.5 164.5q0 106 -89 165.5t-257 96.5q-397 86 -397 383zM170 522q0 -98 61.5 -168.5t157.5 -105.5t203 -35q162 0 261 77 t99 210q0 96 -58 166.5t-153.5 107.5t-201.5 37q-162 0 -265.5 -78t-103.5 -211z" />
<glyph unicode="&#xa8;" horiz-adv-x="587" d="M61 1303q0 33 22.5 54t53.5 21t53.5 -21.5t22.5 -53.5q0 -31 -22.5 -53.5t-53.5 -22.5t-53.5 22.5t-22.5 53.5zM377 1303q0 33 21.5 54t54.5 21q31 0 52 -21.5t21 -53.5q0 -31 -21.5 -53.5t-51.5 -22.5q-33 0 -54.5 22.5t-21.5 53.5z" />
<glyph unicode="&#xa9;" horiz-adv-x="1679" d="M102 717q0 201 97.5 369.5t266.5 268t374 99.5t373.5 -99.5t266 -268t97.5 -369.5t-97.5 -370t-266.5 -268t-373 -99q-205 0 -374 99t-266.5 268t-97.5 370zM174 717q0 -178 85 -332t236.5 -246t344.5 -92q192 0 343.5 92t236.5 246t85 332t-85 331.5t-236.5 245.5 t-343.5 92q-193 0 -344.5 -92t-236.5 -245.5t-85 -331.5zM451 717q0 123 52 215t141 142t196 50q143 0 245.5 -80.5t120.5 -216.5h-69q-23 102 -103 165t-192 63q-141 0 -231.5 -92.5t-90.5 -245.5q0 -154 90 -247t230 -93q115 0 191.5 60.5t105.5 168.5h69 q-29 -139 -127 -219t-239 -80q-109 0 -198 50.5t-140 143.5t-51 216z" />
<glyph unicode="&#xaa;" horiz-adv-x="868" d="M82 846q0 111 77 173t193 75l256 26v45q0 102 -52 161.5t-157 59.5q-80 0 -137 -45t-69 -133h-70q10 121 92 183.5t184 62.5q131 0 206 -75.5t75 -209.5v-378q0 -51 20.5 -78t55.5 -27q27 0 51 12v-61q-35 -16 -70 -16q-57 0 -90 39.5t-37 99.5q-125 -145 -284 -146 q-115 0 -179.5 63.5t-64.5 168.5zM154 846q0 -68 46 -116t136 -48q82 0 151.5 45t120.5 119v211l-235 -23q-104 -10 -161.5 -59t-57.5 -129z" />
<glyph unicode="&#xab;" horiz-adv-x="761" d="M90 573l205 422h74l-185 -422l185 -423h-74zM381 573l205 422h73l-184 -422l184 -423h-73z" />
<glyph unicode="&#xac;" horiz-adv-x="837" d="M102 700v78h633v-360h-88v282h-545z" />
<glyph unicode="&#xad;" horiz-adv-x="845" d="M102 616v78h641v-78h-641z" />
<glyph unicode="&#xae;" horiz-adv-x="1679" d="M102 717q0 201 97.5 369.5t266.5 268t374 99.5t373.5 -99.5t266 -268t97.5 -369.5t-97.5 -370t-266.5 -268t-373 -99q-205 0 -374 99t-266.5 268t-97.5 370zM174 717q0 -178 85 -332t236.5 -246t344.5 -92q192 0 343.5 92t236.5 246t85 332t-85 331.5t-236.5 245.5 t-343.5 92q-193 0 -344.5 -92t-236.5 -245.5t-85 -331.5zM598 299v836h225q147 0 224 -70t77 -188q0 -166 -170 -240l174 -338h-81l-160 319h-219v-319h-70zM668 686h180q88 0 147.5 50t59.5 141q0 92 -58.5 141t-148.5 49h-180v-381z" />
<glyph unicode="&#xaf;" horiz-adv-x="577" d="M61 1241v74h455v-74h-455z" />
<glyph unicode="&#xb0;" horiz-adv-x="647" d="M82 1200q0 100 69.5 171t172.5 71q102 0 171.5 -71t69.5 -171t-69.5 -171t-171.5 -71q-103 0 -172.5 71t-69.5 171zM145 1200q0 -70 49.5 -124t129.5 -54q79 0 128.5 54t49.5 124q0 72 -49.5 125t-128.5 53q-80 0 -129.5 -53t-49.5 -125z" />
<glyph unicode="&#xb1;" horiz-adv-x="974" d="M102 0v78h770v-78h-770zM102 698v78h347v346h77v-346h346v-78h-346v-346h-77v346h-347z" />
<glyph unicode="&#xb2;" horiz-adv-x="651" d="M74 962v64l321 307q86 86 86 176q0 63 -40 108.5t-115 45.5q-74 0 -117 -47t-47 -113h-72q6 104 70.5 165.5t167.5 61.5q98 0 161.5 -58t63.5 -153q0 -72 -26.5 -127t-92.5 -116l-262 -246h406v-68h-504z" />
<glyph unicode="&#xb3;" horiz-adv-x="675" d="M74 1220h69q6 -82 56.5 -142t144.5 -60q86 0 137 58t51 136q0 94 -61 145.5t-156 51.5h-34v61l194 187h-364v63h456v-61l-205 -191q106 -12 173 -78.5t67 -175.5q0 -111 -72.5 -186.5t-183.5 -75.5q-127 0 -196.5 77t-75.5 191z" />
<glyph unicode="&#xb4;" horiz-adv-x="401" d="M61 1161l164 273h115l-199 -273h-80z" />
<glyph unicode="&#xb5;" horiz-adv-x="1040" d="M135 -410v1434h84v-696q0 -115 61.5 -192t194.5 -77q109 0 201 70t145 186v709h84v-1024h-84v190q-47 -82 -144 -146t-220 -64q-160 0 -238 102v-492h-84z" />
<glyph unicode="&#xb6;" horiz-adv-x="1030" d="M102 1128q0 139 94.5 222.5t254.5 83.5h436v-1844h-90v1760h-207v-1760h-90v1233h-49q-160 0 -254.5 83t-94.5 222z" />
<glyph unicode="&#xb7;" horiz-adv-x="370" d="M102 688q0 35 25 58.5t59 23.5q35 0 58.5 -23.5t23.5 -58.5t-23.5 -59.5t-58.5 -24.5q-34 0 -59 24.5t-25 59.5z" />
<glyph unicode="&#xb8;" horiz-adv-x="477" d="M61 -268h72q6 -31 33 -55.5t72 -24.5q49 0 76.5 30.5t27.5 75.5t-27.5 72t-74.5 27q-33 0 -63 -14.5t-46 -41.5l-59 15l100 219h82l-84 -150q41 29 92 29q68 0 111 -41t43 -109q0 -82 -50.5 -128t-129.5 -46q-72 0 -120 40t-55 102z" />
<glyph unicode="&#xb9;" horiz-adv-x="372" d="M74 1554v70h16q59 0 92 22.5t37 73.5h72v-758h-72v631q-25 -23 -57.5 -31t-87.5 -8z" />
<glyph unicode="&#xba;" horiz-adv-x="952" d="M82 1034q0 119 49 215.5t139 150.5t207 54t206 -54t138 -150.5t49 -215.5t-49 -214t-138 -150.5t-206 -55.5t-207 55.5t-139 150.5t-49 214zM154 1034q0 -113 46 -192.5t119.5 -119.5t157.5 -40t158 40t120 120t46 192q0 113 -46 193t-120 119.5t-158 39.5t-157.5 -39.5 t-119.5 -119.5t-46 -193z" />
<glyph unicode="&#xbb;" horiz-adv-x="761" d="M102 150l185 423l-185 422h74l205 -422l-205 -423h-74zM393 150l185 423l-185 422h74l205 -422l-205 -423h-74z" />
<glyph unicode="&#xbc;" horiz-adv-x="1388" d="M45 88l1080 1305l59 -50l-1079 -1304zM74 1267v70h16q59 0 92 22.5t37 73.5h72v-758h-72v631q-25 -23 -57.5 -31t-87.5 -8zM766 177v65l372 516h66v-514h115v-67h-115v-177h-72v177h-366zM844 244h288v399z" />
<glyph unicode="&#xbd;" horiz-adv-x="1445" d="M45 88l1080 1305l59 -50l-1079 -1304zM74 1267v70h16q59 0 92 22.5t37 73.5h72v-758h-72v631q-25 -23 -57.5 -31t-87.5 -8zM869 0v64l321 307q86 86 86 176q0 63 -40 108.5t-115 45.5q-74 0 -117 -47t-47 -113h-72q6 104 70.5 165.5t167.5 61.5q98 0 161.5 -58t63.5 -153 q0 -72 -26.5 -127t-92.5 -116l-262 -246h406v-68h-504z" />
<glyph unicode="&#xbe;" horiz-adv-x="1650" d="M74 933h69q6 -82 56.5 -142t144.5 -60q86 0 137 58t51 136q0 94 -61 145.5t-156 51.5h-34v61l194 187h-364v63h456v-61l-205 -191q106 -12 173 -78.5t67 -175.5q0 -111 -72.5 -186.5t-183.5 -75.5q-127 0 -196.5 77t-75.5 191zM307 88l1080 1305l59 -50l-1079 -1304z M1028 177v65l372 516h66v-514h115v-67h-115v-177h-72v177h-366zM1106 244h288v399z" />
<glyph unicode="&#xbf;" horiz-adv-x="1015" d="M98 -92q0 96 44 169t141 148q92 72 136 143.5t46 168.5l2 94h80l2 -86q2 -119 -47 -200t-152 -163q-86 -72 -124 -133t-38 -137q0 -127 91.5 -192.5t216.5 -65.5q104 0 175.5 43t108.5 111.5t41 144.5h84q-2 -106 -54 -193.5t-144.5 -138.5t-210.5 -51q-127 0 -216.5 46 t-135.5 123t-46 169zM422 942q0 35 24.5 58.5t59.5 23.5t58.5 -23.5t23.5 -58.5t-23.5 -59.5t-58.5 -24.5t-59.5 24.5t-24.5 59.5z" />
<glyph unicode="&#xc0;" horiz-adv-x="1200" d="M41 0l520 1434h78l520 -1434h-94l-119 332h-690l-119 -332h-96zM285 416h630l-288 805l-27 102l-27 -102zM373 1843h112l166 -272h-82z" />
<glyph unicode="&#xc1;" horiz-adv-x="1200" d="M41 0l520 1434h78l520 -1434h-94l-119 332h-690l-119 -332h-96zM285 416h630l-288 805l-27 102l-27 -102zM552 1571l164 272h115l-199 -272h-80z" />
<glyph unicode="&#xc2;" horiz-adv-x="1200" d="M41 0l520 1434h78l520 -1434h-94l-119 332h-690l-119 -332h-96zM285 416h630l-288 805l-27 102l-27 -102zM357 1591l204 252h78l203 -252h-90l-154 176l-151 -176h-90z" />
<glyph unicode="&#xc3;" horiz-adv-x="1200" d="M41 0l520 1434h78l520 -1434h-94l-119 332h-690l-119 -332h-96zM272 1599q4 102 56.5 161t130.5 59q55 0 89 -19.5t77 -60.5q35 -33 60.5 -49.5t64.5 -16.5q57 0 83.5 43t28.5 101h74q-2 -102 -54 -161t-132 -59q-56 0 -91.5 20.5t-74.5 59.5q-35 35 -59.5 50.5 t-63.5 15.5q-59 0 -86 -43t-29 -101h-74zM285 416h630l-288 805l-27 102l-27 -102z" />
<glyph unicode="&#xc4;" horiz-adv-x="1200" d="M41 0l520 1434h78l520 -1434h-94l-119 332h-690l-119 -332h-96zM285 416h630l-288 805l-27 102l-27 -102zM369 1712q0 33 22.5 54.5t53.5 21.5t53.5 -21.5t22.5 -54.5q0 -31 -22.5 -53.5t-53.5 -22.5t-53.5 22.5t-22.5 53.5zM684 1712q0 33 22 54.5t54 21.5 q31 0 52.5 -21.5t21.5 -54.5q0 -31 -21.5 -53.5t-52.5 -22.5q-32 0 -54 22.5t-22 53.5z" />
<glyph unicode="&#xc5;" horiz-adv-x="1200" d="M41 0l520 1434h78l520 -1434h-94l-119 332h-690l-119 -332h-96zM285 416h630l-288 805l-27 102l-27 -102zM441 1696q0 66 47 112.5t112 46.5q66 0 113 -47t47 -112q0 -66 -47 -113t-113 -47q-65 0 -112 47t-47 113zM500 1696q0 -43 29.5 -72t70.5 -29q43 0 72 29t29 72 q0 45 -29 72.5t-72 27.5t-71.5 -28.5t-28.5 -71.5z" />
<glyph unicode="&#xc6;" horiz-adv-x="1775" d="M41 0l788 1434h809v-84h-677v-590h622v-84h-622v-592h700v-84h-791v328h-555l-180 -328h-94zM360 412h510v925z" />
<glyph unicode="&#xc7;" horiz-adv-x="1486" d="M102 717q0 215 90.5 383t245 261t340.5 93q162 0 292 -61.5t211 -168t103 -241.5h-86q-51 193 -191 290t-327 97q-178 0 -311 -88t-204.5 -237.5t-71.5 -327.5t71.5 -327.5t204.5 -238t311 -88.5q185 0 325 98.5t193 289.5h86q-25 -135 -105.5 -242t-209.5 -168t-291 -61 h-2l-53 -95q41 29 92 29q68 0 111 -41t43 -109q0 -82 -50.5 -128t-130.5 -46q-72 0 -119.5 40t-54.5 102h72q6 -31 32.5 -55.5t72.5 -24.5q49 0 76.5 30.5t27.5 75.5t-27.5 72t-74.5 27q-33 0 -63 -14.5t-46 -41.5l-59 15l77 168q-170 18 -306 115.5t-215 257t-79 360.5z " />
<glyph unicode="&#xc8;" horiz-adv-x="1048" d="M143 0v1434h768v-84h-678v-590h623v-84h-623v-592h701v-84h-791zM308 1843h112l166 -272h-82z" />
<glyph unicode="&#xc9;" horiz-adv-x="1048" d="M143 0v1434h768v-84h-678v-590h623v-84h-623v-592h701v-84h-791zM487 1571l164 272h115l-199 -272h-80z" />
<glyph unicode="&#xca;" horiz-adv-x="1048" d="M143 0v1434h768v-84h-678v-590h623v-84h-623v-592h701v-84h-791zM291 1591l204 252h78l203 -252h-90l-154 176l-151 -176h-90z" />
<glyph unicode="&#xcb;" horiz-adv-x="1048" d="M143 0v1434h768v-84h-678v-590h623v-84h-623v-592h701v-84h-791zM303 1712q0 33 22.5 54.5t53.5 21.5t53.5 -21.5t22.5 -54.5q0 -31 -22.5 -53.5t-53.5 -22.5t-53.5 22.5t-22.5 53.5zM618 1712q0 33 22 54.5t54 21.5q31 0 52.5 -21.5t21.5 -54.5q0 -31 -21.5 -53.5 t-52.5 -22.5q-32 0 -54 22.5t-22 53.5z" />
<glyph unicode="&#xcc;" horiz-adv-x="376" d="M-38 1843h112l166 -272h-82zM143 0v1434h90v-1434h-90z" />
<glyph unicode="&#xcd;" horiz-adv-x="376" d="M141 1571l164 272h115l-199 -272h-80zM143 0v1434h90v-1434h-90z" />
<glyph unicode="&#xce;" horiz-adv-x="376" d="M-55 1591l204 252h78l203 -252h-90l-154 176l-151 -176h-90zM143 0v1434h90v-1434h-90z" />
<glyph unicode="&#xcf;" horiz-adv-x="376" d="M-45 1712q0 33 22.5 54.5t53.5 21.5t53.5 -21.5t22.5 -54.5q0 -31 -22.5 -53.5t-53.5 -22.5t-53.5 22.5t-22.5 53.5zM143 0v1434h90v-1434h-90zM270 1712q0 33 22 54.5t54 21.5q31 0 52.5 -21.5t21.5 -54.5q0 -31 -21.5 -53.5t-52.5 -22.5q-32 0 -54 22.5t-22 53.5z" />
<glyph unicode="&#xd0;" horiz-adv-x="1396" d="M41 678v78h197v678h335q219 0 382 -89.5t251 -251t88 -376.5t-88 -377t-250.5 -251t-382.5 -89h-335v678h-197zM328 84h237q313 0 476 171t163 462t-162.5 462t-476.5 171h-237v-594h334v-78h-334v-594z" />
<glyph unicode="&#xd1;" horiz-adv-x="1269" d="M143 0v1434h101l792 -1282v1282h90v-1434h-100l-793 1284v-1284h-90zM307 1599q4 102 56.5 161t130.5 59q55 0 89 -19.5t77 -60.5q35 -33 60.5 -49.5t64.5 -16.5q57 0 83.5 43t28.5 101h74q-2 -102 -54 -161t-132 -59q-56 0 -91.5 20.5t-74.5 59.5q-35 35 -59.5 50.5 t-63.5 15.5q-59 0 -86 -43t-29 -101h-74z" />
<glyph unicode="&#xd2;" horiz-adv-x="1564" d="M102 717q0 207 88.5 376t244 265t347.5 96q193 0 348.5 -96t243.5 -265t88 -376t-88 -376t-243.5 -265t-348.5 -96q-192 0 -347.5 96t-244 265t-88.5 376zM193 717q0 -188 74.5 -337t208.5 -233t306 -84t306.5 84t209 232.5t74.5 337.5q0 188 -74.5 336.5t-209 232.5 t-306.5 84t-306 -84t-208.5 -232.5t-74.5 -336.5zM555 1843h112l166 -272h-82z" />
<glyph unicode="&#xd3;" horiz-adv-x="1564" d="M102 717q0 207 88.5 376t244 265t347.5 96q193 0 348.5 -96t243.5 -265t88 -376t-88 -376t-243.5 -265t-348.5 -96q-192 0 -347.5 96t-244 265t-88.5 376zM193 717q0 -188 74.5 -337t208.5 -233t306 -84t306.5 84t209 232.5t74.5 337.5q0 188 -74.5 336.5t-209 232.5 t-306.5 84t-306 -84t-208.5 -232.5t-74.5 -336.5zM735 1571l164 272h115l-199 -272h-80z" />
<glyph unicode="&#xd4;" horiz-adv-x="1564" d="M102 717q0 207 88.5 376t244 265t347.5 96q193 0 348.5 -96t243.5 -265t88 -376t-88 -376t-243.5 -265t-348.5 -96q-192 0 -347.5 96t-244 265t-88.5 376zM193 717q0 -188 74.5 -337t208.5 -233t306 -84t306.5 84t209 232.5t74.5 337.5q0 188 -74.5 336.5t-209 232.5 t-306.5 84t-306 -84t-208.5 -232.5t-74.5 -336.5zM539 1591l204 252h78l203 -252h-90l-154 176l-151 -176h-90z" />
<glyph unicode="&#xd5;" horiz-adv-x="1564" d="M102 717q0 207 88.5 376t244 265t347.5 96q193 0 348.5 -96t243.5 -265t88 -376t-88 -376t-243.5 -265t-348.5 -96q-192 0 -347.5 96t-244 265t-88.5 376zM193 717q0 -188 74.5 -337t208.5 -233t306 -84t306.5 84t209 232.5t74.5 337.5q0 188 -74.5 336.5t-209 232.5 t-306.5 84t-306 -84t-208.5 -232.5t-74.5 -336.5zM454 1599q4 102 56.5 161t130.5 59q55 0 89 -19.5t77 -60.5q35 -33 60.5 -49.5t64.5 -16.5q57 0 83.5 43t28.5 101h74q-2 -102 -54 -161t-132 -59q-56 0 -91.5 20.5t-74.5 59.5q-35 35 -59.5 50.5t-63.5 15.5q-59 0 -86 -43 t-29 -101h-74z" />
<glyph unicode="&#xd6;" horiz-adv-x="1564" d="M102 717q0 207 88.5 376t244 265t347.5 96q193 0 348.5 -96t243.5 -265t88 -376t-88 -376t-243.5 -265t-348.5 -96q-192 0 -347.5 96t-244 265t-88.5 376zM193 717q0 -188 74.5 -337t208.5 -233t306 -84t306.5 84t209 232.5t74.5 337.5q0 188 -74.5 336.5t-209 232.5 t-306.5 84t-306 -84t-208.5 -232.5t-74.5 -336.5zM551 1712q0 33 22.5 54.5t53.5 21.5t53.5 -21.5t22.5 -54.5q0 -31 -22.5 -53.5t-53.5 -22.5t-53.5 22.5t-22.5 53.5zM866 1712q0 33 22 54.5t54 21.5q31 0 52.5 -21.5t21.5 -54.5q0 -31 -21.5 -53.5t-52.5 -22.5 q-32 0 -54 22.5t-22 53.5z" />
<glyph unicode="&#xd7;" horiz-adv-x="829" d="M115 410l245 245l-245 244l55 55l246 -243l243 243l56 -55l-244 -244l244 -245l-56 -56l-243 246l-246 -246z" />
<glyph unicode="&#xd8;" horiz-adv-x="1564" d="M102 717q0 207 88.5 376t244 265t347.5 96q174 0 314 -78l57 105l72 -37l-60 -109q140 -100 218.5 -262t78.5 -356q0 -207 -88 -376t-243.5 -265t-348.5 -96q-172 0 -313 75l-55 -102l-72 37l59 108q-139 98 -219 260t-80 359zM193 717q0 -176 65.5 -317.5t181.5 -227.5 l617 1133q-121 66 -275 65q-172 0 -306 -84t-208.5 -232.5t-74.5 -336.5zM510 129q121 -66 272 -66q172 0 306.5 84t209 232.5t74.5 337.5q0 174 -64.5 316.5t-181.5 228.5z" />
<glyph unicode="&#xd9;" horiz-adv-x="1228" d="M143 492v942h90v-945q0 -195 99.5 -310.5t281.5 -115.5t281.5 116t99.5 310v945h90v-942q0 -229 -120.5 -370.5t-350.5 -141.5q-229 0 -350 141t-121 371zM388 1843h112l166 -272h-82z" />
<glyph unicode="&#xda;" horiz-adv-x="1228" d="M143 492v942h90v-945q0 -195 99.5 -310.5t281.5 -115.5t281.5 116t99.5 310v945h90v-942q0 -229 -120.5 -370.5t-350.5 -141.5q-229 0 -350 141t-121 371zM567 1571l164 272h115l-199 -272h-80z" />
<glyph unicode="&#xdb;" horiz-adv-x="1228" d="M143 492v942h90v-945q0 -195 99.5 -310.5t281.5 -115.5t281.5 116t99.5 310v945h90v-942q0 -229 -120.5 -370.5t-350.5 -141.5q-229 0 -350 141t-121 371zM371 1591l204 252h78l203 -252h-90l-154 176l-151 -176h-90z" />
<glyph unicode="&#xdc;" horiz-adv-x="1228" d="M143 492v942h90v-945q0 -195 99.5 -310.5t281.5 -115.5t281.5 116t99.5 310v945h90v-942q0 -229 -120.5 -370.5t-350.5 -141.5q-229 0 -350 141t-121 371zM383 1712q0 33 22.5 54.5t53.5 21.5t53.5 -21.5t22.5 -54.5q0 -31 -22.5 -53.5t-53.5 -22.5t-53.5 22.5 t-22.5 53.5zM698 1712q0 33 22 54.5t54 21.5q31 0 52.5 -21.5t21.5 -54.5q0 -31 -21.5 -53.5t-52.5 -22.5q-32 0 -54 22.5t-22 53.5z" />
<glyph unicode="&#xdd;" horiz-adv-x="1024" d="M37 1434h94l367 -793l14 -53l16 53l365 793h94l-430 -924v-510h-90v510zM464 1571l164 272h115l-199 -272h-80z" />
<glyph unicode="&#xde;" horiz-adv-x="1181" d="M143 0v1434h90v-273h381q143 0 248 -56t161 -157.5t56 -230.5t-56 -229.5t-160.5 -157t-248.5 -56.5h-381v-274h-90zM233 358h377q178 0 278.5 98.5t100.5 260.5q0 164 -99 262t-280 98h-377v-719z" />
<glyph unicode="&#xdf;" horiz-adv-x="1185" d="M57 950v74h197v20q0 190 94 300t262 110q143 0 235.5 -82t92.5 -209q0 -84 -36 -135t-103 -110q-43 -37 -64.5 -63t-21.5 -58q0 -39 37.5 -73t134.5 -81q106 -53 164.5 -126t58.5 -200q0 -98 -42 -174.5t-115.5 -119.5t-164.5 -43q-127 0 -221 77.5t-102 229.5h78 q10 -109 76.5 -168.5t168.5 -59.5q55 0 109.5 27t91.5 85t37 146q0 109 -59.5 171.5t-159.5 109.5q-94 45 -135 89t-41 106q0 51 26.5 86.5t77.5 78.5q59 49 90 91.5t31 109.5q0 98 -72.5 157.5t-171.5 59.5q-139 0 -205.5 -96t-66.5 -244v-1036h-84v950h-197z" />
<glyph unicode="&#xe0;" d="M86 281q0 143 97.5 223t254.5 96l318 33v55q0 276 -264 277q-125 0 -195 -69t-76 -163h-84q10 135 107.5 223t251.5 88q172 0 258 -95t86 -257v-489q0 -68 30.5 -102.5t75.5 -34.5q25 0 55 10v-72q-35 -16 -81 -16q-74 0 -117 51t-47 121q-78 -82 -160 -131t-195 -49 q-145 0 -230 82.5t-85 218.5zM170 281q0 -96 63.5 -159t176.5 -63q196 0 346 201v299l-297 -33q-129 -14 -209 -73.5t-80 -171.5zM274 1434h115l164 -273h-80z" />
<glyph unicode="&#xe1;" d="M86 281q0 143 97.5 223t254.5 96l318 33v55q0 276 -264 277q-125 0 -195 -69t-76 -163h-84q10 135 107.5 223t251.5 88q172 0 258 -95t86 -257v-489q0 -68 30.5 -102.5t75.5 -34.5q25 0 55 10v-72q-35 -16 -81 -16q-74 0 -117 51t-47 121q-78 -82 -160 -131t-195 -49 q-145 0 -230 82.5t-85 218.5zM170 281q0 -96 63.5 -159t176.5 -63q196 0 346 201v299l-297 -33q-129 -14 -209 -73.5t-80 -171.5zM456 1161l164 273h115l-199 -273h-80z" />
<glyph unicode="&#xe2;" d="M86 281q0 143 97.5 223t254.5 96l318 33v55q0 276 -264 277q-125 0 -195 -69t-76 -163h-84q10 135 107.5 223t251.5 88q172 0 258 -95t86 -257v-489q0 -68 30.5 -102.5t75.5 -34.5q25 0 55 10v-72q-35 -16 -81 -16q-74 0 -117 51t-47 121q-78 -82 -160 -131t-195 -49 q-145 0 -230 82.5t-85 218.5zM170 281q0 -96 63.5 -159t176.5 -63q196 0 346 201v299l-297 -33q-129 -14 -209 -73.5t-80 -171.5zM263 1182l204 252h78l203 -252h-90l-154 176l-151 -176h-90z" />
<glyph unicode="&#xe3;" d="M86 281q0 143 97.5 223t254.5 96l318 33v55q0 276 -264 277q-125 0 -195 -69t-76 -163h-84q10 135 107.5 223t251.5 88q172 0 258 -95t86 -257v-489q0 -68 30.5 -102.5t75.5 -34.5q25 0 55 10v-72q-35 -16 -81 -16q-74 0 -117 51t-47 121q-78 -82 -160 -131t-195 -49 q-145 0 -230 82.5t-85 218.5zM170 281q0 -96 63.5 -159t176.5 -63q196 0 346 201v299l-297 -33q-129 -14 -209 -73.5t-80 -171.5zM178 1190q4 102 56.5 160.5t130.5 58.5q55 0 89 -19.5t77 -60.5q35 -33 60.5 -49t64.5 -16q57 0 83.5 43t28.5 100h74q-2 -102 -54 -160.5 t-132 -58.5q-56 0 -91.5 20.5t-74.5 59.5q-35 35 -59.5 50t-63.5 15q-59 0 -86 -43t-29 -100h-74z" />
<glyph unicode="&#xe4;" d="M86 281q0 143 97.5 223t254.5 96l318 33v55q0 276 -264 277q-125 0 -195 -69t-76 -163h-84q10 135 107.5 223t251.5 88q172 0 258 -95t86 -257v-489q0 -68 30.5 -102.5t75.5 -34.5q25 0 55 10v-72q-35 -16 -81 -16q-74 0 -117 51t-47 121q-78 -82 -160 -131t-195 -49 q-145 0 -230 82.5t-85 218.5zM170 281q0 -96 63.5 -159t176.5 -63q196 0 346 201v299l-297 -33q-129 -14 -209 -73.5t-80 -171.5zM272 1303q0 33 22.5 54t53.5 21t53.5 -21.5t22.5 -53.5q0 -31 -22.5 -53.5t-53.5 -22.5t-53.5 22.5t-22.5 53.5zM587 1303q0 33 22 54t54 21 q31 0 52.5 -21.5t21.5 -53.5q0 -31 -21.5 -53.5t-52.5 -22.5q-32 0 -54 22.5t-22 53.5z" />
<glyph unicode="&#xe5;" d="M86 281q0 143 97.5 223t254.5 96l318 33v55q0 276 -264 277q-125 0 -195 -69t-76 -163h-84q10 135 107.5 223t251.5 88q172 0 258 -95t86 -257v-489q0 -68 30.5 -102.5t75.5 -34.5q25 0 55 10v-72q-35 -16 -81 -16q-74 0 -117 51t-47 121q-78 -82 -160 -131t-195 -49 q-145 0 -230 82.5t-85 218.5zM170 281q0 -96 63.5 -159t176.5 -63q196 0 346 201v299l-297 -33q-129 -14 -209 -73.5t-80 -171.5zM347 1286q0 66 47 113t112 47q66 0 113 -47t47 -113t-47 -113t-113 -47q-65 0 -112 47.5t-47 112.5zM406 1286q0 -43 29.5 -71.5t70.5 -28.5 q43 0 72 28.5t29 71.5q0 45 -29 72.5t-72 27.5t-71.5 -28.5t-28.5 -71.5z" />
<glyph unicode="&#xe6;" horiz-adv-x="1777" d="M86 270q0 141 101.5 216t261.5 81l307 13v108q0 276 -264 277q-125 0 -195 -69t-76 -163h-84q10 135 107.5 223t251.5 88q143 0 224 -69.5t103 -188.5q61 121 171 189.5t241 68.5t235.5 -59t165 -172t60.5 -264v-47h-850q0 -143 54 -242.5t142 -150t195 -50.5 q270 0 348 267h84q-41 -162 -149.5 -254t-284.5 -92q-145 0 -256 70.5t-170 197.5q-84 -137 -189.5 -202.5t-222.5 -65.5q-145 0 -228 77.5t-83 212.5zM170 270q0 -94 61.5 -152.5t174.5 -58.5q100 0 191 62.5t159 183.5v199l-295 -12q-129 -4 -210 -58.5t-81 -163.5z M846 575h764q0 115 -51.5 203t-137.5 137.5t-186 49.5q-104 0 -189 -50.5t-137.5 -139.5t-62.5 -200z" />
<glyph unicode="&#xe7;" horiz-adv-x="1103" d="M82 514q0 156 63.5 276.5t176 187t253.5 66.5q186 0 303 -99t144 -275h-80q-29 131 -118 213t-246 82q-125 0 -218.5 -60.5t-143.5 -164t-50 -226.5q0 -125 51 -229.5t145.5 -165t217.5 -60.5q157 0 246 85t116 210h80q-12 -106 -71.5 -191t-157 -134t-220.5 -49h-8 l-53 -95q41 29 92 29q68 0 111 -41t43 -109q0 -82 -50.5 -128t-129.5 -46q-72 0 -119 39t-56 101h72q6 -31 34 -54.5t71 -23.5q49 0 76.5 30.5t27.5 75.5t-27.5 72t-74.5 27q-33 0 -63 -14.5t-46 -41.5l-59 15l78 170q-119 18 -212.5 88.5t-145.5 184.5t-52 255z" />
<glyph unicode="&#xe8;" horiz-adv-x="1081" d="M82 512q0 160 64.5 280.5t172 186t234.5 65.5t228.5 -57t159.5 -168.5t58 -267.5v-45h-827q0 -147 53.5 -247.5t140.5 -150t191 -49.5q131 0 215 70t121 197h84q-39 -160 -147.5 -253t-274.5 -93q-139 0 -245.5 64.5t-167 184t-60.5 283.5zM174 580h739q0 117 -49 204.5 t-131 134t-180 46.5q-152 0 -257.5 -105.5t-121.5 -279.5zM321 1434h115l164 -273h-80z" />
<glyph unicode="&#xe9;" horiz-adv-x="1081" d="M82 512q0 160 64.5 280.5t172 186t234.5 65.5t228.5 -57t159.5 -168.5t58 -267.5v-45h-827q0 -147 53.5 -247.5t140.5 -150t191 -49.5q131 0 215 70t121 197h84q-39 -160 -147.5 -253t-274.5 -93q-139 0 -245.5 64.5t-167 184t-60.5 283.5zM174 580h739q0 117 -49 204.5 t-131 134t-180 46.5q-152 0 -257.5 -105.5t-121.5 -279.5zM503 1161l164 273h115l-199 -273h-80z" />
<glyph unicode="&#xea;" horiz-adv-x="1081" d="M82 512q0 160 64.5 280.5t172 186t234.5 65.5t228.5 -57t159.5 -168.5t58 -267.5v-45h-827q0 -147 53.5 -247.5t140.5 -150t191 -49.5q131 0 215 70t121 197h84q-39 -160 -147.5 -253t-274.5 -93q-139 0 -245.5 64.5t-167 184t-60.5 283.5zM174 580h739q0 117 -49 204.5 t-131 134t-180 46.5q-152 0 -257.5 -105.5t-121.5 -279.5zM308 1182l204 252h78l203 -252h-90l-154 176l-151 -176h-90z" />
<glyph unicode="&#xeb;" horiz-adv-x="1081" d="M82 512q0 160 64.5 280.5t172 186t234.5 65.5t228.5 -57t159.5 -168.5t58 -267.5v-45h-827q0 -147 53.5 -247.5t140.5 -150t191 -49.5q131 0 215 70t121 197h84q-39 -160 -147.5 -253t-274.5 -93q-139 0 -245.5 64.5t-167 184t-60.5 283.5zM174 580h739q0 117 -49 204.5 t-131 134t-180 46.5q-152 0 -257.5 -105.5t-121.5 -279.5zM319 1303q0 33 22.5 54t53.5 21t53.5 -21.5t22.5 -53.5q0 -31 -22.5 -53.5t-53.5 -22.5t-53.5 22.5t-22.5 53.5zM634 1303q0 33 22 54t54 21q31 0 52.5 -21.5t21.5 -53.5q0 -31 -21.5 -53.5t-52.5 -22.5 q-32 0 -54 22.5t-22 53.5z" />
<glyph unicode="&#xec;" horiz-adv-x="356" d="M-54 1434h115l164 -273h-80zM137 0v1024h84v-1024h-84z" />
<glyph unicode="&#xed;" horiz-adv-x="356" d="M131 1161l164 273h115l-199 -273h-80zM137 0v1024h84v-1024h-84z" />
<glyph unicode="&#xee;" horiz-adv-x="356" d="M-65 1182l204 252h78l203 -252h-90l-154 176l-151 -176h-90zM137 0v1024h84v-1024h-84z" />
<glyph unicode="&#xef;" horiz-adv-x="356" d="M-55 1303q0 33 22.5 54t53.5 21t53.5 -21.5t22.5 -53.5q0 -31 -22.5 -53.5t-53.5 -22.5t-53.5 22.5t-22.5 53.5zM137 0v1024h84v-1024h-84zM260 1303q0 33 22 54t54 21q31 0 52.5 -21.5t21.5 -53.5q0 -31 -21.5 -53.5t-52.5 -22.5q-32 0 -54 22.5t-22 53.5z" />
<glyph unicode="&#xf0;" horiz-adv-x="1183" d="M82 483q0 145 65.5 260t177 179.5t242.5 64.5q141 0 254 -68.5t172 -207.5q-4 176 -63.5 322.5t-161.5 246.5l-199 -150l-47 60l187 141q-125 90 -277 105l12 80q188 -20 334 -134l144 109l47 -59l-133 -101q118 -121 181.5 -301t63.5 -391q0 -305 -132 -482t-374 -177 q-135 0 -247.5 64.5t-179 179t-66.5 259.5zM168 483q0 -127 57.5 -224t150.5 -148.5t197 -51.5q111 0 203 55.5t145.5 151.5t53.5 217t-52.5 218.5t-144.5 151.5t-205 54q-104 0 -197 -51t-150.5 -148.5t-57.5 -224.5z" />
<glyph unicode="&#xf1;" horiz-adv-x="1044" d="M135 0v1024h84v-199q66 96 168 157.5t221 61.5q145 0 227.5 -82.5t82.5 -232.5v-729h-84v719q0 123 -66 184.5t-176 61.5q-104 0 -200.5 -64.5t-172.5 -189.5v-711h-84zM227 1190q4 102 56.5 160.5t130.5 58.5q55 0 89 -19.5t77 -60.5q35 -33 60.5 -49t64.5 -16 q57 0 83.5 43t28.5 100h74q-2 -102 -54 -160.5t-132 -58.5q-56 0 -91.5 20.5t-74.5 59.5q-35 35 -59.5 50t-63.5 15q-59 0 -86 -43t-29 -100h-74z" />
<glyph unicode="&#xf2;" horiz-adv-x="1150" d="M82 512q0 152 61.5 272.5t174 190t257.5 69.5t258 -69.5t174.5 -190t61.5 -272.5t-61.5 -272.5t-174 -190t-258.5 -69.5q-145 0 -257.5 69.5t-174 190t-61.5 272.5zM166 512q0 -133 53 -236.5t146.5 -160t209.5 -56.5q117 0 210.5 56.5t146.5 160t53 236.5t-53 236.5 t-146.5 160t-210.5 56.5t-210 -56.5t-146 -160t-53 -236.5zM344 1434h115l164 -273h-80z" />
<glyph unicode="&#xf3;" horiz-adv-x="1150" d="M82 512q0 152 61.5 272.5t174 190t257.5 69.5t258 -69.5t174.5 -190t61.5 -272.5t-61.5 -272.5t-174 -190t-258.5 -69.5q-145 0 -257.5 69.5t-174 190t-61.5 272.5zM166 512q0 -133 53 -236.5t146.5 -160t209.5 -56.5q117 0 210.5 56.5t146.5 160t53 236.5t-53 236.5 t-146.5 160t-210.5 56.5t-210 -56.5t-146 -160t-53 -236.5zM526 1161l164 273h115l-199 -273h-80z" />
<glyph unicode="&#xf4;" horiz-adv-x="1150" d="M82 512q0 152 61.5 272.5t174 190t257.5 69.5t258 -69.5t174.5 -190t61.5 -272.5t-61.5 -272.5t-174 -190t-258.5 -69.5q-145 0 -257.5 69.5t-174 190t-61.5 272.5zM166 512q0 -133 53 -236.5t146.5 -160t209.5 -56.5q117 0 210.5 56.5t146.5 160t53 236.5t-53 236.5 t-146.5 160t-210.5 56.5t-210 -56.5t-146 -160t-53 -236.5zM330 1182l204 252h78l203 -252h-90l-154 176l-151 -176h-90z" />
<glyph unicode="&#xf5;" horiz-adv-x="1150" d="M82 512q0 152 61.5 272.5t174 190t257.5 69.5t258 -69.5t174.5 -190t61.5 -272.5t-61.5 -272.5t-174 -190t-258.5 -69.5q-145 0 -257.5 69.5t-174 190t-61.5 272.5zM166 512q0 -133 53 -236.5t146.5 -160t209.5 -56.5q117 0 210.5 56.5t146.5 160t53 236.5t-53 236.5 t-146.5 160t-210.5 56.5t-210 -56.5t-146 -160t-53 -236.5zM245 1190q4 102 56.5 160.5t130.5 58.5q55 0 89 -19.5t77 -60.5q35 -33 60.5 -49t64.5 -16q57 0 83.5 43t28.5 100h74q-2 -102 -54 -160.5t-132 -58.5q-56 0 -91.5 20.5t-74.5 59.5q-35 35 -59.5 50t-63.5 15 q-59 0 -86 -43t-29 -100h-74z" />
<glyph unicode="&#xf6;" horiz-adv-x="1150" d="M82 512q0 152 61.5 272.5t174 190t257.5 69.5t258 -69.5t174.5 -190t61.5 -272.5t-61.5 -272.5t-174 -190t-258.5 -69.5q-145 0 -257.5 69.5t-174 190t-61.5 272.5zM166 512q0 -133 53 -236.5t146.5 -160t209.5 -56.5q117 0 210.5 56.5t146.5 160t53 236.5t-53 236.5 t-146.5 160t-210.5 56.5t-210 -56.5t-146 -160t-53 -236.5zM342 1303q0 33 22.5 54t53.5 21t53.5 -21.5t22.5 -53.5q0 -31 -22.5 -53.5t-53.5 -22.5t-53.5 22.5t-22.5 53.5zM657 1303q0 33 22 54t54 21q31 0 52.5 -21.5t21.5 -53.5q0 -31 -21.5 -53.5t-52.5 -22.5 q-32 0 -54 22.5t-22 53.5z" />
<glyph unicode="&#xf7;" horiz-adv-x="974" d="M102 616v78h770v-78h-770zM406 338q0 35 24.5 58.5t56.5 23.5q35 0 59.5 -23.5t24.5 -58.5t-24.5 -59.5t-59.5 -24.5q-34 0 -57.5 24.5t-23.5 59.5zM406 975q0 35 24.5 58.5t56.5 23.5q35 0 59.5 -23.5t24.5 -58.5t-24.5 -59.5t-59.5 -24.5q-34 0 -57.5 24.5t-23.5 59.5z " />
<glyph unicode="&#xf8;" horiz-adv-x="1150" d="M82 512q0 152 61.5 272.5t174 190t257.5 69.5q117 0 222 -49l39 72l65 -35l-41 -76q98 -69 153.5 -186t55.5 -258q0 -152 -61.5 -272.5t-174 -190t-258.5 -69.5q-117 0 -221 49l-39 -72l-65 35l41 76q-98 70 -153.5 186.5t-55.5 257.5zM166 512q0 -121 43 -216t121 -157 l428 785q-86 41 -183 41q-117 0 -210 -56.5t-146 -160t-53 -236.5zM393 100q86 -41 182 -41q117 0 210.5 56.5t146.5 160t53 236.5q0 121 -43 217t-121 156z" />
<glyph unicode="&#xf9;" horiz-adv-x="1032" d="M127 322v702h84v-696q0 -115 61.5 -192t194.5 -77q109 0 201 70t145 186v709h84v-1024h-84v190q-47 -82 -144.5 -146t-219.5 -64q-154 0 -238 89t-84 253zM280 1434h115l164 -273h-80z" />
<glyph unicode="&#xfa;" horiz-adv-x="1032" d="M127 322v702h84v-696q0 -115 61.5 -192t194.5 -77q109 0 201 70t145 186v709h84v-1024h-84v190q-47 -82 -144.5 -146t-219.5 -64q-154 0 -238 89t-84 253zM462 1161l164 273h115l-199 -273h-80z" />
<glyph unicode="&#xfb;" horiz-adv-x="1032" d="M127 322v702h84v-696q0 -115 61.5 -192t194.5 -77q109 0 201 70t145 186v709h84v-1024h-84v190q-47 -82 -144.5 -146t-219.5 -64q-154 0 -238 89t-84 253zM267 1182l204 252h78l203 -252h-90l-154 176l-151 -176h-90z" />
<glyph unicode="&#xfc;" horiz-adv-x="1032" d="M127 322v702h84v-696q0 -115 61.5 -192t194.5 -77q109 0 201 70t145 186v709h84v-1024h-84v190q-47 -82 -144.5 -146t-219.5 -64q-154 0 -238 89t-84 253zM278 1303q0 33 22.5 54t53.5 21t53.5 -21.5t22.5 -53.5q0 -31 -22.5 -53.5t-53.5 -22.5t-53.5 22.5t-22.5 53.5z M593 1303q0 33 22 54t54 21q31 0 52.5 -21.5t21.5 -53.5q0 -31 -21.5 -53.5t-52.5 -22.5q-32 0 -54 22.5t-22 53.5z" />
<glyph unicode="&#xfd;" horiz-adv-x="927" d="M45 1024h96l322 -745l10 -58l318 803h92l-570 -1434h-88l211 535zM428 1161l164 273h115l-199 -273h-80z" />
<glyph unicode="&#xfe;" horiz-adv-x="1107" d="M135 -410v1905h84v-637q57 84 148.5 135t210.5 51q131 0 232 -62t158.5 -182t57.5 -286q0 -168 -57.5 -289t-159.5 -183t-236 -62q-109 0 -203 48t-151 136v-574h-84zM219 367q0 -68 45 -139.5t125 -120t176 -48.5q166 0 271.5 119t105.5 336q0 219 -101.5 335 t-275.5 116q-106 0 -185 -49.5t-120 -124t-41 -150.5v-274z" />
<glyph unicode="&#xff;" horiz-adv-x="927" d="M45 1024h96l322 -745l10 -58l318 803h92l-570 -1434h-88l211 535zM244 1303q0 33 22.5 54t53.5 21t53.5 -21.5t22.5 -53.5q0 -31 -22.5 -53.5t-53.5 -22.5t-53.5 22.5t-22.5 53.5zM559 1303q0 33 22 54t54 21q31 0 52.5 -21.5t21.5 -53.5q0 -31 -21.5 -53.5t-52.5 -22.5 q-32 0 -54 22.5t-22 53.5z" />
<glyph unicode="&#x152;" horiz-adv-x="2277" d="M102 717q0 207 88.5 376t244 265t347.5 96q197 0 352.5 -101.5t237.5 -275.5v357h768v-84h-678v-590h623v-84h-623v-592h701v-84h-791v356q-82 -174 -237.5 -275t-352.5 -101q-192 0 -347.5 96t-244 265t-88.5 376zM193 717q0 -188 74.5 -338t209.5 -233t305 -83 t305.5 83t210 232.5t74.5 338.5q0 188 -74.5 337.5t-210 232.5t-305.5 83t-305 -83t-209.5 -232.5t-74.5 -337.5z" />
<glyph unicode="&#x153;" horiz-adv-x="1984" d="M82 512q0 152 61.5 272.5t174 190t257.5 69.5q160 0 279 -83.5t172 -227.5q53 147 170 229t260 82q125 0 226.5 -57t161 -168.5t59.5 -267.5v-45h-828q0 -147 52.5 -247.5t140.5 -150t190 -49.5q131 0 216 70t122 197h84q-39 -160 -147.5 -253t-276.5 -93 q-154 0 -267.5 79.5t-164.5 227.5q-53 -139 -172 -223t-277 -84q-145 0 -257.5 69.5t-174 190t-61.5 272.5zM166 512q0 -133 53 -236.5t146.5 -160t209.5 -56.5q117 0 210.5 56.5t146.5 160t53 236.5t-53 236.5t-146.5 160t-210.5 56.5t-210 -56.5t-146 -160t-53 -236.5z M1077 580h740q0 117 -49.5 204.5t-131.5 134t-180 46.5q-152 0 -257 -105.5t-122 -279.5z" />
<glyph unicode="&#x178;" horiz-adv-x="1024" d="M37 1434h94l367 -793l14 -53l16 53l365 793h94l-430 -924v-510h-90v510zM280 1712q0 33 22.5 54.5t53.5 21.5t53.5 -21.5t22.5 -54.5q0 -31 -22.5 -53.5t-53.5 -22.5t-53.5 22.5t-22.5 53.5zM595 1712q0 33 22 54.5t54 21.5q31 0 52.5 -21.5t21.5 -54.5 q0 -31 -21.5 -53.5t-52.5 -22.5q-32 0 -54 22.5t-22 53.5z" />
<glyph unicode="&#x2c6;" horiz-adv-x="608" d="M61 1182l205 252h78l203 -252h-90l-154 176l-151 -176h-91z" />
<glyph unicode="&#x2dc;" horiz-adv-x="786" d="M61 1190q4 102 56.5 160.5t130.5 58.5q55 0 89 -19.5t77 -60.5q35 -33 60.5 -49t64.5 -16q57 0 83.5 43t28.5 100h74q-2 -102 -54.5 -160.5t-131.5 -58.5q-56 0 -91.5 20.5t-74.5 59.5q-35 35 -59.5 50t-63.5 15q-59 0 -86 -43t-29 -100h-74z" />
<glyph unicode="&#x2000;" horiz-adv-x="927" />
<glyph unicode="&#x2001;" horiz-adv-x="1855" />
<glyph unicode="&#x2002;" horiz-adv-x="927" />
<glyph unicode="&#x2003;" horiz-adv-x="1855" />
<glyph unicode="&#x2004;" horiz-adv-x="618" />
<glyph unicode="&#x2005;" horiz-adv-x="463" />
<glyph unicode="&#x2006;" horiz-adv-x="309" />
<glyph unicode="&#x2007;" horiz-adv-x="309" />
<glyph unicode="&#x2008;" horiz-adv-x="231" />
<glyph unicode="&#x2009;" horiz-adv-x="371" />
<glyph unicode="&#x200a;" horiz-adv-x="103" />
<glyph unicode="&#x2010;" horiz-adv-x="845" d="M102 616v78h641v-78h-641z" />
<glyph unicode="&#x2011;" horiz-adv-x="845" d="M102 616v78h641v-78h-641z" />
<glyph unicode="&#x2012;" horiz-adv-x="845" d="M102 616v78h641v-78h-641z" />
<glyph unicode="&#x2013;" horiz-adv-x="1071" d="M102 616v78h867v-78h-867z" />
<glyph unicode="&#x2014;" horiz-adv-x="1531" d="M102 616v78h1328v-78h-1328z" />
<glyph unicode="&#x2018;" horiz-adv-x="380" d="M102 1217q0 72 43 133t125 104l19 -29q-47 -31 -75 -69.5t-28 -75.5q33 -2 55.5 -24.5t22.5 -55.5t-22.5 -56.5t-57.5 -23.5q-34 0 -58 25.5t-24 71.5z" />
<glyph unicode="&#x2019;" horiz-adv-x="380" d="M92 1149q47 31 75 69.5t30 75.5q-35 2 -57.5 24.5t-22.5 55.5q0 35 23.5 57.5t56.5 22.5q36 0 59 -25.5t23 -70.5q0 -74 -43 -134.5t-125 -103.5z" />
<glyph unicode="&#x201a;" horiz-adv-x="380" d="M92 -147q47 31 75 70.5t30 76.5q-33 2 -56.5 24.5t-23.5 55.5q0 35 23.5 57.5t56.5 22.5q37 0 59.5 -25.5t22.5 -71.5q0 -72 -43 -133t-125 -106z" />
<glyph unicode="&#x201c;" horiz-adv-x="616" d="M102 1217q0 72 43 133t125 104l19 -29q-47 -31 -75 -69.5t-28 -75.5q33 -2 55.5 -24.5t22.5 -55.5t-22.5 -56.5t-57.5 -23.5q-34 0 -58 25.5t-24 71.5zM338 1217q0 72 43 133t125 104l18 -29q-47 -31 -74.5 -69.5t-27.5 -75.5q33 -2 55.5 -24.5t22.5 -55.5t-22.5 -56.5 t-57.5 -23.5t-58.5 25.5t-23.5 71.5z" />
<glyph unicode="&#x201d;" horiz-adv-x="616" d="M92 1149q47 31 75 69.5t30 75.5q-35 2 -57.5 24.5t-22.5 55.5q0 35 23.5 57.5t56.5 22.5q36 0 59 -25.5t23 -70.5q0 -74 -43 -134.5t-125 -103.5zM328 1149q47 31 74.5 69.5t29.5 75.5q-35 2 -57.5 24.5t-22.5 55.5q0 35 23.5 57.5t56.5 22.5q37 0 59.5 -25.5t22.5 -70.5 q0 -74 -43 -134.5t-125 -103.5z" />
<glyph unicode="&#x201e;" horiz-adv-x="616" d="M92 -147q47 31 75 70.5t30 76.5q-33 2 -56.5 24.5t-23.5 55.5q0 35 23.5 57.5t56.5 22.5q37 0 59.5 -25.5t22.5 -71.5q0 -72 -43 -133t-125 -106zM328 -147q47 31 74.5 70.5t29.5 76.5q-33 2 -56.5 24.5t-23.5 55.5q0 35 23.5 57.5t56.5 22.5q37 0 59.5 -25.5t22.5 -71.5 q0 -72 -43 -133t-125 -106z" />
<glyph unicode="&#x2022;" horiz-adv-x="434" d="M102 655q0 47 34 81t81 34t81 -34t34 -81t-34 -80.5t-81 -33.5t-81 33.5t-34 80.5z" />
<glyph unicode="&#x2026;" horiz-adv-x="1112" d="M102 84q0 35 25 58.5t59 23.5q35 0 58.5 -23.5t23.5 -58.5t-23.5 -59.5t-58.5 -24.5q-34 0 -59 24.5t-25 59.5zM473 84q0 35 25 58.5t59 23.5q35 0 58.5 -23.5t23.5 -58.5t-23.5 -59.5t-58.5 -24.5q-34 0 -59 24.5t-25 59.5zM843 84q0 35 25 58.5t59 23.5 q35 0 58.5 -23.5t23.5 -58.5t-23.5 -59.5t-58.5 -24.5q-34 0 -59 24.5t-25 59.5z" />
<glyph unicode="&#x202f;" horiz-adv-x="371" />
<glyph unicode="&#x2039;" horiz-adv-x="471" d="M90 573l205 422h74l-185 -422l185 -423h-74z" />
<glyph unicode="&#x203a;" horiz-adv-x="471" d="M102 150l185 423l-185 422h74l205 -422l-205 -423h-74z" />
<glyph unicode="&#x205f;" horiz-adv-x="463" />
<glyph unicode="&#x20ac;" horiz-adv-x="1443" d="M61 553l29 78h156q-2 25 -2 76q0 55 8 145h-184l28 78h168q55 242 210 383t372 141q186 0 320 -97t175 -282h-88q-37 143 -145.5 219t-261.5 76q-184 0 -314.5 -116.5t-175.5 -323.5h508l-26 -78h-496q-8 -90 -8 -141q0 -53 2 -80h526l-28 -78h-488q43 -229 174 -359.5 t326 -130.5q150 0 252 75t147 220h88q-45 -182 -175 -280t-312 -98q-152 0 -274.5 70.5t-204.5 200.5t-111 302h-195z" />
<glyph unicode="&#x2122;" horiz-adv-x="1521" d="M82 1366v68h528v-68h-227v-752h-72v752h-229zM727 614v820h74l282 -740l285 740h72v-820h-72v635l-246 -635h-78l-245 635v-635h-72z" />
<glyph unicode="&#x25fc;" horiz-adv-x="1024" d="M0 0v1024h1024v-1024h-1024z" />
<glyph unicode="&#xfb01;" horiz-adv-x="993" />
<glyph unicode="&#xfb02;" horiz-adv-x="993" />
<glyph unicode="&#xfb03;" horiz-adv-x="1523" d="M57 950v74h187v238q0 121 65.5 187.5t169.5 66.5q55 0 113 -17v-76q-51 18 -105 19q-78 0 -118.5 -48t-40.5 -132v-238h446v238q0 121 65.5 187.5t168.5 66.5q57 0 114 -17v-76q-51 18 -104 19q-78 0 -119 -48t-41 -132v-238h528v-1024h-83v950h-445v-950h-84v950h-446 v-950h-84v950h-187zM1270 1303q0 33 21.5 54t54.5 21q31 0 53 -21.5t22 -53.5q0 -31 -22.5 -53.5t-52.5 -22.5q-33 0 -54.5 22.5t-21.5 53.5z" />
<glyph unicode="&#xfb04;" horiz-adv-x="1521" d="M57 950v74h187v238q0 121 65.5 187.5t169.5 66.5q55 0 113 -17v-76q-51 18 -105 19q-78 0 -118.5 -48t-40.5 -132v-238h446v238q0 121 66.5 187.5t171.5 66.5h374v-1516h-83v1442h-279q-82 0 -124 -48t-42 -132v-238h248v-74h-248v-950h-84v950h-446v-950h-84v950h-187z " />
</font>
</defs>
</svg>
