<?xml version="1.0" standalone="no"?>
<!DOCTYPE svg PUBLIC "-//W3C//DTD SVG 1.1//EN" "http://www.w3.org/Graphics/SVG/1.1/DTD/svg11.dtd" >
<svg xmlns="http://www.w3.org/2000/svg" xmlns:xlink="http://www.w3.org/1999/xlink" version="1.1">
<metadata></metadata>
<defs>
<font id="visuelt_probold" horiz-adv-x="1441" >
<font-face units-per-em="2048" ascent="1516" descent="-532" />
<missing-glyph horiz-adv-x="430" />
<glyph horiz-adv-x="0" />
<glyph unicode="&#xd;" horiz-adv-x="430" />
<glyph unicode=" "  horiz-adv-x="430" />
<glyph unicode="&#x09;" horiz-adv-x="430" />
<glyph unicode="&#xa0;" horiz-adv-x="430" />
<glyph unicode="!" horiz-adv-x="620" d="M135 174q0 72 51.5 124t122.5 52q72 0 124 -52t52 -124t-52 -123t-124 -51q-69 0 -121.5 52t-52.5 122zM145 1434h330l-43 -945h-246z" />
<glyph unicode="&#x22;" horiz-adv-x="839" d="M88 1434h270l-26 -529h-215zM479 1434h270l-26 -529h-215z" />
<glyph unicode="#" horiz-adv-x="1478" d="M94 379l39 203h227l46 260h-228l35 202h227l70 390h217l-70 -390h277l67 390h218l-68 -390h233l-34 -202h-234l-47 -260h234l-37 -203h-232l-63 -379h-217l63 379h-274l-66 -379h-217l66 379h-232zM578 582h274l47 260h-276z" />
<glyph unicode="$" horiz-adv-x="1300" d="M80 432l16 23l285 43q8 -94 57 -156.5t125 -87.5v418l-28 6q-172 37 -275.5 139.5t-103.5 255.5q0 160 111.5 260.5t295.5 116.5v188h178v-192q184 -20 293 -120.5t135 -264.5l-18 -23l-264 -28q-4 74 -43 124t-103 72v-317q236 -47 346.5 -147.5t110.5 -286.5 q0 -195 -128 -320t-329 -149v-191h-178v191q-135 14 -241.5 75.5t-169 157.5t-72.5 213zM430 1090q0 -49 31 -85t102 -65v279q-66 -14 -99.5 -48t-33.5 -81zM741 250q70 16 110 63t40 119q0 74 -34 118t-116 73v-373z" />
<glyph unicode="%" horiz-adv-x="1671" d="M74 1102q0 100 44 181t122.5 126t181.5 45q102 0 181 -45t123 -126t44 -181t-44 -181t-123 -126t-181 -45q-103 0 -181.5 45t-122.5 125.5t-44 181.5zM223 123l1080 1304l143 -116l-1079 -1305zM260 1102q0 -82 46 -127t116 -45t116 45t46 127t-46 127t-116 45t-116 -45 t-46 -127zM901 332q0 100 44 181t123 126t181 45t181 -45t123 -126t44 -181t-44 -181t-122.5 -126t-181.5 -45q-102 0 -181 45t-123 125.5t-44 181.5zM1087 332q0 -82 46.5 -127t115.5 -45q70 0 116 45t46 127t-46 127t-116 45t-116 -45t-46 -127z" />
<glyph unicode="&#x26;" horiz-adv-x="1404" d="M94 440q0 139 72 247t201 183q-78 127 -78 252q0 96 47 172t128 118t181 42q102 0 179 -39t117 -102.5t40 -134.5q0 -131 -70.5 -217.5t-201.5 -147.5l249 -309q20 82 21 203v61h240v-88q0 -217 -86 -387l239 -293h-317l-80 98q-152 -119 -375 -118q-141 0 -257 57 t-182.5 162.5t-66.5 240.5zM362 463q0 -115 76 -183.5t187 -68.5q128 0 204 68l-335 419q-72 -47 -102 -105t-30 -130zM535 1133q0 -86 53 -164q84 39 122 84t38 102q0 43 -29 71.5t-76 28.5q-45 0 -76.5 -33.5t-31.5 -88.5z" />
<glyph unicode="'" horiz-adv-x="448" d="M88 1434h270l-26 -529h-215z" />
<glyph unicode="(" horiz-adv-x="755" d="M94 717q0 305 105.5 530.5t292.5 407.5l186 -189q-150 -170 -221.5 -345t-71.5 -404t71.5 -404.5t221.5 -345.5l-186 -188q-187 182 -292.5 407.5t-105.5 530.5z" />
<glyph unicode=")" horiz-adv-x="755" d="M78 -33q150 170 221.5 345t71.5 405q0 229 -72 404t-221 345l186 189q186 -182 292 -407.5t106 -530.5t-105.5 -530.5t-292.5 -407.5z" />
<glyph unicode="*" horiz-adv-x="878" d="M92 1100l70 213l196 -99l-30 220h223l-33 -220l199 99l71 -213l-221 -39l156 -158l-180 -131l-103 195l-104 -195l-178 131l153 158z" />
<glyph unicode="+" horiz-adv-x="1060" d="M92 541v229h324v324h229v-324h326v-229h-326v-326h-229v326h-324z" />
<glyph unicode="," horiz-adv-x="538" d="M90 -276q76 63 123 129.5t51 146.5q-76 2 -123 54t-47 120q0 72 49.5 124t124.5 52q76 0 126 -53t50 -137q0 -150 -72.5 -263.5t-230.5 -222.5z" />
<glyph unicode="-" horiz-adv-x="933" d="M88 522v230h756v-230h-756z" />
<glyph unicode="." horiz-adv-x="538" d="M94 174q0 72 51.5 124t122.5 52q72 0 124 -52t52 -124t-52 -123t-124 -51q-69 0 -121.5 52t-52.5 122z" />
<glyph unicode="/" horiz-adv-x="1157" d="M47 0l772 1434h291l-772 -1434h-291z" />
<glyph unicode="0" horiz-adv-x="1433" d="M94 717q0 221 78 388t219 258t326 91q186 0 326.5 -91t218 -258t77.5 -388t-77.5 -388t-218 -258t-326.5 -91q-185 0 -326 91t-219 258t-78 388zM387 717q0 -223 86 -345t244 -122q157 0 243.5 122t86.5 345t-86.5 345t-243.5 122q-158 0 -244 -122t-86 -345z" />
<glyph unicode="1" horiz-adv-x="757" d="M47 1001v248h27q117 0 180 44t76 141h293v-1434h-293v1075q-47 -41 -111.5 -57.5t-171.5 -16.5z" />
<glyph unicode="2" horiz-adv-x="1206" d="M82 1026q14 117 80.5 214t180.5 155.5t259 58.5q141 0 251 -53t172 -149.5t62 -221.5q0 -131 -59 -233.5t-178 -206.5l-361 -320h619v-270h-1024v244l571 512q70 63 107 124.5t37 135.5q0 82 -52.5 133t-142.5 51q-104 0 -166.5 -65.5t-66.5 -173.5l-273 36z" />
<glyph unicode="3" horiz-adv-x="1263" d="M61 471l23 16l250 37q10 -131 88 -211t205 -80q113 0 181.5 71t68.5 198q0 125 -88.5 197.5t-217.5 72.5h-75v211l231 205h-612v246h979v-238l-279 -233q154 -39 254 -155t100 -302q0 -150 -70.5 -269.5t-195.5 -188t-278 -68.5q-164 0 -288 64.5t-194.5 176t-81.5 250.5 z" />
<glyph unicode="4" horiz-adv-x="1265" d="M74 248v270l678 916h280v-916h172v-270h-172v-248h-293v248h-665zM391 518h348v477z" />
<glyph unicode="5" horiz-adv-x="1282" d="M74 414l18 37l266 41q14 -109 84 -184t187 -75q127 0 196.5 71t69.5 202q0 127 -76 197.5t-198 70.5q-90 0 -169 -30.5t-139 -73.5l-202 102l94 662h874v-238h-653l-51 -260q139 78 301 78q156 0 271.5 -60.5t178 -174t62.5 -265.5q0 -150 -67.5 -271.5t-194.5 -192 t-297 -70.5q-148 0 -267.5 55t-195.5 153.5t-92 225.5z" />
<glyph unicode="6" horiz-adv-x="1271" d="M94 670q0 236 71 413t202 274t309 97q197 0 319.5 -93t159.5 -257l-12 -31l-238 -45q-59 178 -227 178q-121 0 -202 -100t-85 -270q59 57 142 87.5t178 30.5q137 0 247.5 -59t175 -166.5t64.5 -247.5q0 -141 -67.5 -255.5t-190.5 -180t-283 -65.5q-125 0 -236.5 52 t-184.5 144q-141 178 -142 494zM406 475q0 -111 67.5 -184.5t188.5 -73.5q118 0 187 76t69 182t-69 182t-187 76q-119 0 -187.5 -75.5t-68.5 -182.5z" />
<glyph unicode="7" horiz-adv-x="1132" d="M78 1176v258h966v-211l-524 -1223h-311l510 1176h-641z" />
<glyph unicode="8" horiz-adv-x="1214" d="M94 432q0 119 58.5 216t154.5 151q-66 49 -102.5 122.5t-36.5 157.5q0 106 55.5 192.5t155.5 134.5t229 48t228.5 -48t155 -134t55.5 -193q0 -84 -37 -157.5t-103 -122.5q96 -53 154.5 -150.5t58.5 -216.5q0 -129 -62.5 -231.5t-178 -161.5t-271.5 -59q-155 0 -272 59 t-179.5 161.5t-62.5 231.5zM371 449q0 -100 67.5 -166t169.5 -66q103 0 169.5 65.5t66.5 166.5q0 98 -67.5 163.5t-168.5 65.5q-100 0 -168.5 -65.5t-68.5 -163.5zM422 1069q0 -78 52 -126t134 -48t133.5 48t51.5 126t-51.5 126t-133.5 48t-134 -49t-52 -125z" />
<glyph unicode="9" horiz-adv-x="1271" d="M74 952q0 141 67.5 256t190.5 180.5t280 65.5q127 0 238 -52t184 -145q74 -90 109 -211.5t35 -281.5q0 -236 -71 -413t-203 -274t-310 -97q-195 0 -318.5 93t-160.5 257l14 30l238 46q59 -178 225 -179q121 0 203 101.5t86 273.5q-123 -117 -322 -117q-137 0 -247.5 57.5 t-174 164t-63.5 245.5zM352 958q0 -106 70 -182t188 -76q119 0 187.5 76t68.5 182q0 111 -68.5 185t-187.5 74t-188.5 -76t-69.5 -183z" />
<glyph unicode=":" horiz-adv-x="538" d="M94 174q0 72 51.5 124t122.5 52q72 0 124 -52t52 -124t-52 -123t-124 -51q-69 0 -121.5 52t-52.5 122zM94 868q0 72 51.5 124t122.5 52q72 0 124 -52t52 -124t-52 -123t-124 -51q-69 0 -121.5 52t-52.5 122z" />
<glyph unicode=";" horiz-adv-x="542" d="M94 -276q156 127 164 278q-68 4 -114 55.5t-46 116.5q0 72 51.5 124t122.5 52q74 0 125.5 -54t51.5 -134q0 -150 -74 -266.5t-230 -221.5zM98 870q0 72 52.5 123t121.5 51q72 0 124.5 -51t52.5 -123t-52.5 -124t-124.5 -52q-71 0 -122.5 52.5t-51.5 123.5z" />
<glyph unicode="&#x3c;" horiz-adv-x="1060" d="M121 506v217l792 438v-282l-491 -265l491 -264v-282z" />
<glyph unicode="=" horiz-adv-x="1060" d="M92 338v229h879v-229h-879zM92 744v229h879v-229h-879z" />
<glyph unicode="&#x3e;" horiz-adv-x="1060" d="M150 68v282l491 264l-491 265v282l792 -438v-217z" />
<glyph unicode="?" horiz-adv-x="1083" d="M82 1085q12 106 76.5 190.5t167 131.5t227.5 47q221 0 338 -97t117 -255q0 -109 -51.5 -192t-155.5 -156q-70 -49 -103.5 -96.5t-38.5 -114.5l-2 -54h-225l-2 52q-4 98 19.5 163.5t62.5 105.5t109 93q66 49 90 88t24 94q0 57 -49 97.5t-133 40.5q-94 0 -154.5 -56.5 t-66.5 -142.5l-232 35zM371 174q0 72 51 124t123 52t123 -52t51 -124q0 -70 -51.5 -122t-122.5 -52q-70 0 -122 52t-52 122z" />
<glyph unicode="@" horiz-adv-x="1632" d="M94 512q0 295 106.5 508t285 323.5t391.5 110.5q197 0 336 -65.5t211.5 -186.5t72.5 -280v-922h-233v102q-55 -55 -134 -88.5t-180 -33.5q-137 0 -247.5 61t-175 182t-64.5 289t68.5 288t181 182t245.5 62q96 0 175 -28.5t131 -77.5q0 84 -44 153.5t-131.5 110.5 t-211.5 41q-133 0 -257 -71.5t-206 -235.5t-82 -424q0 -250 80 -415t206.5 -240.5t274.5 -75.5q106 0 181 27.5t136 93.5l205 -56l4 -22q-86 -131 -211 -192.5t-323 -61.5q-199 0 -378 94t-296 306t-117 542zM702 512q0 -166 81 -244t208 -78q74 0 136.5 33t99.5 88.5 t37 120.5v158q0 66 -37 121t-99.5 89t-136.5 34q-127 0 -208 -78t-81 -244z" />
<glyph unicode="A" d="M33 0l547 1434h282l547 -1434h-330l-84 242h-549l-86 -242h-327zM541 510h360l-153 438l-23 156h-10l-21 -156z" />
<glyph unicode="B" horiz-adv-x="1361" d="M135 0v1434h623q137 0 241.5 -47.5t162 -130t57.5 -185.5q0 -109 -41 -177.5t-123 -119.5v-14q109 -41 175 -126t66 -210t-62.5 -221.5t-180 -149.5t-279.5 -53h-639zM449 266h354q84 0 135 42t51 124q0 80 -52 122t-134 42h-354v-330zM449 862h303q84 0 130 39t46 113 q0 76 -46 114.5t-130 38.5h-303v-305z" />
<glyph unicode="C" horiz-adv-x="1585" d="M94 717q0 219 99.5 386t268.5 259t369 92q176 0 314.5 -59.5t226.5 -166t119 -245.5l-18 -29l-281 -36q-35 123 -131 190.5t-238 67.5q-125 0 -219 -58.5t-144 -163t-50 -237.5t51 -237.5t146 -163t224 -58.5q135 0 229.5 67.5t131.5 190.5l281 -37l16 -28 q-70 -227 -242 -349t-416 -122q-200 0 -369 92t-268.5 259t-99.5 386z" />
<glyph unicode="D" horiz-adv-x="1503" d="M135 0v1434h510q233 0 405.5 -85t265.5 -247t93 -385t-93 -385t-265 -247t-406 -85h-510zM449 266h186q223 0 342 115t119 336t-119 335.5t-342 114.5h-186v-901z" />
<glyph unicode="E" horiz-adv-x="1216" d="M135 0v1434h950v-267h-636v-317h581v-266h-581v-318h659v-266h-973z" />
<glyph unicode="F" horiz-adv-x="1191" d="M135 0v1434h975v-267h-661v-331h608v-269h-608v-567h-314z" />
<glyph unicode="G" horiz-adv-x="1593" d="M94 717q0 213 95.5 381t262 262t377.5 94q246 0 422 -121t234 -340l-17 -26l-280 -39q-37 125 -127 190.5t-232 65.5q-123 0 -218 -59.5t-148 -166t-53 -241.5q0 -137 52 -241.5t149.5 -163t228.5 -58.5q152 0 243 76t119 217h-500v241h797v-116q0 -203 -81 -359.5 t-231.5 -244.5t-350.5 -88q-209 0 -378 95t-266.5 263t-97.5 379z" />
<glyph unicode="H" horiz-adv-x="1443" d="M135 0v1434h314v-584h546v584h314v-1434h-314v584h-546v-584h-314z" />
<glyph unicode="I" horiz-adv-x="583" d="M135 0v1434h314v-1434h-314z" />
<glyph unicode="J" horiz-adv-x="1165" d="M55 410l19 24l274 37q2 -238 191 -238q178 0 178 226v975h313v-965q0 -231 -131 -360t-360 -129q-148 0 -254.5 58t-165 156.5t-64.5 215.5z" />
<glyph unicode="K" horiz-adv-x="1366" d="M135 0v1434h314v-578h10l475 578h360l-557 -670l580 -764h-387l-471 641h-10v-641h-314z" />
<glyph unicode="L" horiz-adv-x="1255" d="M135 0v1434h314v-1168h696v-266h-1010z" />
<glyph unicode="M" horiz-adv-x="1722" d="M135 0v1434h301l426 -1049l424 1049h301v-1434h-295v829h-12l-25 -174l-262 -655h-264l-262 655l-25 174h-12v-829h-295z" />
<glyph unicode="N" horiz-adv-x="1486" d="M135 0v1434h338l526 -873l25 -117h14v990h314v-1434h-338l-527 872l-24 117h-14v-989h-314z" />
<glyph unicode="O" horiz-adv-x="1656" d="M94 717q0 217 95.5 384t263.5 260t376 93q207 0 375 -93t263.5 -260t95.5 -384t-95.5 -384t-263.5 -260t-375 -93q-208 0 -376 93t-263.5 260t-95.5 384zM410 717q0 -135 51 -238.5t146 -162t222 -58.5q125 0 220.5 58.5t147.5 162t52 238.5t-52 238.5t-147.5 162 t-220.5 58.5q-127 0 -222 -58.5t-146 -162t-51 -238.5z" />
<glyph unicode="P" horiz-adv-x="1368" d="M135 0v1434h574q168 0 296 -58.5t198.5 -169t70.5 -264.5q0 -152 -70.5 -262.5t-198.5 -168.5t-296 -58h-260v-453h-314zM449 719h241q270 0 271 223q0 117 -69 171t-202 54h-241v-448z" />
<glyph unicode="Q" horiz-adv-x="1656" d="M94 717q0 217 95.5 384t263.5 260t376 93q207 0 375 -93t263.5 -260t95.5 -384q0 -178 -72 -333t-198 -256t-283 -128v-16q35 -55 105.5 -92t160.5 -50v-20l-90 -207q-111 12 -212.5 65.5t-172 134.5t-90.5 173q-178 25 -318.5 122t-219.5 253.5t-79 353.5zM410 717 q0 -135 51 -238.5t146 -162t222 -58.5q125 0 220.5 58.5t147.5 162t52 238.5t-52 238.5t-147.5 162t-220.5 58.5q-127 0 -222 -58.5t-146 -162t-51 -238.5z" />
<glyph unicode="R" horiz-adv-x="1363" d="M135 0v1434h543q252 0 401.5 -126t149.5 -350q0 -260 -236 -403v-23l310 -532h-345l-282 494h-227v-494h-314zM449 760h235q104 0 167.5 52t63.5 151q0 100 -62 152t-169 52h-235v-407z" />
<glyph unicode="S" horiz-adv-x="1300" d="M80 432l16 23l285 43q12 -125 89 -192.5t192 -67.5q102 0 165.5 53t63.5 149q0 78 -42 124t-107.5 70.5t-180.5 51.5q-203 49 -314.5 139t-111.5 252q0 115 62.5 201t173 131t250.5 45q225 0 356 -107.5t158 -285.5l-17 -23l-264 -28q-12 102 -72.5 159.5t-165.5 57.5 q-82 0 -133 -36t-51 -95q0 -51 38 -85t102.5 -55.5t179.5 -48.5q207 -49 326.5 -149.5t119.5 -296.5q0 -147 -72.5 -257t-198.5 -167t-282 -57q-153 0 -277 57t-200 159.5t-88 235.5z" />
<glyph unicode="T" horiz-adv-x="1165" d="M66 1167v267h1034v-267h-361v-1167h-313v1167h-360z" />
<glyph unicode="U" d="M135 561v873h314v-871q0 -150 69.5 -227.5t202.5 -77.5t202.5 78t69.5 227v871h314v-873q0 -174 -70 -305t-202 -203.5t-314 -72.5t-314.5 72.5t-202 203.5t-69.5 305z" />
<glyph unicode="V" horiz-adv-x="1380" d="M25 1434h342l288 -887l29 -178h12l29 178l289 887h342l-502 -1434h-328z" />
<glyph unicode="W" horiz-adv-x="2072" d="M25 1434h331l222 -846l26 -191h12l29 191l244 846h295l246 -846l26 -191h12l29 191l219 846h332l-416 -1434h-321l-275 1014l-274 -1014h-322z" />
<glyph unicode="X" horiz-adv-x="1347" d="M25 0l473 782l-381 652h340l217 -402l217 402h338l-381 -652l475 -782h-348l-301 520l-303 -520h-346z" />
<glyph unicode="Y" horiz-adv-x="1241" d="M23 1434h333l236 -506l22 -172h13l24 172l234 506h334l-441 -934v-500h-313v500z" />
<glyph unicode="Z" horiz-adv-x="1253" d="M78 0v264l688 903h-651v267h1028v-224l-719 -944h743v-266h-1089z" />
<glyph unicode="[" horiz-adv-x="643" d="M94 -410v1844h492v-246h-215v-1352h215v-246h-492z" />
<glyph unicode="\" horiz-adv-x="1161" d="M47 1434h291l778 -1434h-291z" />
<glyph unicode="]" horiz-adv-x="643" d="M57 -164h215v1352h-215v246h492v-1844h-492v246z" />
<glyph unicode="^" horiz-adv-x="1208" d="M80 821l405 613h240l403 -613h-307l-217 361l-217 -361h-307z" />
<glyph unicode="_" horiz-adv-x="1052" d="M43 -20h965v-230h-965v230z" />
<glyph unicode="`" horiz-adv-x="589" d="M61 1448h310l157 -299h-227z" />
<glyph unicode="a" horiz-adv-x="1167" d="M78 291q0 139 96 224t264 101l277 29v45q0 70 -44 109t-124 39q-72 0 -115 -38t-53 -104l-242 21l-10 12q31 154 145.5 234.5t278.5 80.5q195 0 315.5 -97t120.5 -273v-367q0 -47 19.5 -71.5t54.5 -24.5q23 0 39 6l10 -12v-197q-61 -20 -141 -20q-166 0 -230 139h-14 q-72 -74 -147.5 -110.5t-174.5 -36.5q-88 0 -162.5 37.5t-118.5 108.5t-44 165zM342 307q0 -51 36 -80.5t91 -29.5q74 0 130 36.5t116 112.5v119l-226 -29q-72 -8 -109.5 -43t-37.5 -86z" />
<glyph unicode="b" horiz-adv-x="1296" d="M127 0v1495h287v-569q136 118 318 118h3q129 0 240.5 -59t179.5 -180t68 -293t-71 -292t-181.5 -180t-229.5 -60q-200 0 -327 131v-111h-287zM414 463q0 -111 73.5 -178.5t176.5 -67.5q118 0 193 78t75 217t-74 217t-190 78q-109 0 -181.5 -67.5t-72.5 -178.5v-98z" />
<glyph unicode="c" horiz-adv-x="1185" d="M74 512q0 154 71.5 275.5t193.5 189t271 67.5q203 0 335 -102t167 -278l-16 -21l-238 -25q-20 82 -83.5 130.5t-164.5 48.5q-113 0 -185.5 -75t-72.5 -210t73 -210t185 -75q100 0 159.5 45t88.5 134l238 -25l16 -19q-47 -184 -176 -283t-326 -99q-149 0 -271 67.5 t-193.5 189t-71.5 275.5z" />
<glyph unicode="d" horiz-adv-x="1296" d="M74 512q0 172 71.5 292t188.5 180t248 60q172 0 301 -104v555h286v-1495h-286v106q-118 -126 -315 -126h-3q-121 0 -233.5 60t-185 181t-72.5 291zM365 512q0 -139 74.5 -217t193.5 -78q106 0 178 66.5t72 179.5v98q0 111 -73 178.5t-179 67.5q-119 0 -192.5 -78 t-73.5 -217z" />
<glyph unicode="e" horiz-adv-x="1179" d="M74 512q0 156 72.5 276.5t193.5 188t260 67.5q152 0 268.5 -63t181 -182t64.5 -281v-76h-770q10 -106 81 -168.5t181 -62.5q176 0 234 158l239 -25l15 -25q-57 -170 -183.5 -254.5t-310.5 -84.5q-151 0 -271 66.5t-187.5 187t-67.5 278.5zM352 627h492q-10 92 -78 147 t-168 55q-90 0 -158.5 -55t-87.5 -147z" />
<glyph unicode="f" horiz-adv-x="780" d="M55 786v238h172v168q0 162 101.5 243t251.5 81q78 0 145 -21v-221l-14 -10q-45 18 -93 18q-49 0 -77.5 -26.5t-28.5 -79.5v-152h211v-238h-211v-786h-285v786h-172z" />
<glyph unicode="g" horiz-adv-x="1253" d="M74 522q0 158 68.5 277t182 182t242.5 63q172 0 287 -110v90h272v-983q0 -223 -134 -347t-382 -124q-209 0 -330.5 90t-152.5 219l23 23l260 28q39 -133 208 -133q113 0 174.5 61.5t61.5 172.5v73q-63 -55 -126.5 -79.5t-162.5 -24.5q-133 0 -245.5 63.5t-179 182.5 t-66.5 276zM346 522q0 -150 75 -221.5t189 -71.5q111 0 177.5 65.5t66.5 172.5v108q0 109 -69.5 174.5t-174.5 65.5q-115 0 -189.5 -71.5t-74.5 -221.5z" />
<glyph unicode="h" horiz-adv-x="1257" d="M127 0v1495h287v-598q61 66 155.5 106.5t198.5 40.5q166 0 268.5 -96t102.5 -260v-688h-287v616q0 90 -50 136.5t-130 46.5q-76 0 -143.5 -38t-114.5 -108v-653h-287z" />
<glyph unicode="i" horiz-adv-x="520" d="M94 1303q0 68 49.5 116.5t116.5 48.5q70 0 118 -49t48 -116q0 -68 -48 -117t-118 -49q-67 0 -116.5 49t-49.5 117zM117 0v1024h286v-1024h-286z" />
<glyph unicode="j" horiz-adv-x="530" d="M-78 -166l23 10q49 -16 88 -16q94 0 94 104v1092h287v-1135q0 -160 -87 -239.5t-231 -79.5q-92 0 -174 20v244zM104 1303q0 68 49.5 116.5t116.5 48.5q68 0 117 -49t49 -116q0 -68 -49 -117t-117 -49q-67 0 -116.5 49t-49.5 117z" />
<glyph unicode="k" horiz-adv-x="1110" d="M127 0v1495h287v-805h12l293 334h338l-393 -451l413 -573h-338l-313 430h-12v-430h-287z" />
<glyph unicode="l" horiz-adv-x="540" d="M127 0v1495h287v-1495h-287z" />
<glyph unicode="m" horiz-adv-x="1748" d="M127 0v1024h287v-121q121 141 303 141t256 -143q137 143 327 143q158 0 244 -88t86 -241v-715h-287v651q0 147 -131 148q-119 0 -192 -129v-670h-287v649q0 150 -127 150q-59 0 -110.5 -39t-81.5 -101v-659h-287z" />
<glyph unicode="n" horiz-adv-x="1226" d="M127 0v1024h287v-133q144 153 337 153h3q166 0 260 -96t94 -248v-700h-287v616q0 90 -42 136.5t-124 46.5q-72 0 -137 -44t-104 -110v-645h-287z" />
<glyph unicode="o" horiz-adv-x="1263" d="M74 512q0 152 71.5 272.5t198.5 190t287 69.5q162 0 289 -69.5t198.5 -190t71.5 -272.5t-71.5 -272.5t-198.5 -190t-289 -69.5q-160 0 -287 69.5t-198.5 190t-71.5 272.5zM360 512q0 -131 76 -208t195 -77t195.5 77t76.5 208t-76.5 208t-195.5 77t-195 -77t-76 -208z" />
<glyph unicode="p" horiz-adv-x="1296" d="M127 -410v1434h287v-111q127 131 329 131q119 0 229.5 -60t180.5 -180t70 -292t-73 -292t-190.5 -180t-250.5 -60q-86 0 -163 28.5t-132 75.5v-494h-287zM414 463q0 -111 72.5 -178.5t181.5 -67.5q116 0 190 78t74 217t-75 217t-193 78q-106 0 -178 -66.5t-72 -179.5v-98 z" />
<glyph unicode="q" horiz-adv-x="1296" d="M74 512q0 170 71.5 291t184 181t231.5 60q109 0 189.5 -34.5t132.5 -91.5v106h286v-1434h-286v494q-129 -104 -305 -104q-131 0 -247 60t-186.5 180t-70.5 292zM365 512q0 -139 73.5 -217t192.5 -78q106 0 179 67.5t73 178.5v98q0 113 -72 179.5t-178 66.5 q-119 0 -193.5 -78t-74.5 -217z" />
<glyph unicode="r" horiz-adv-x="854" d="M127 0v1024h287v-123q55 66 126.5 104.5t157.5 38.5q61 0 99 -16l-37 -225l-15 -15q-41 10 -69 11q-84 0 -151.5 -47t-110.5 -138v-614h-287z" />
<glyph unicode="s" horiz-adv-x="985" d="M57 281l9 26l219 66q37 -172 221 -172q63 0 104 26.5t41 73.5q0 49 -46 77t-179 62q-162 39 -244 114t-82 198q0 82 46.5 148.5t130 105t192.5 38.5q162 0 265.5 -70.5t133.5 -199.5l-12 -22l-217 -54q-14 72 -61.5 110t-114.5 38q-51 0 -86 -21.5t-35 -58.5 q0 -45 57.5 -73.5t208.5 -69.5q158 -43 232.5 -113t74.5 -193q0 -94 -50 -171.5t-143 -121.5t-216 -44q-180 0 -295 78.5t-154 222.5z" />
<glyph unicode="t" horiz-adv-x="802" d="M43 786v238h182v293h37l248 -86v-207h217v-238h-217v-471q0 -49 28.5 -75.5t82.5 -26.5q33 0 81 14l15 -8v-219q-88 -20 -180 -20q-144 0 -228 77.5t-84 233.5v495h-182z" />
<glyph unicode="u" horiz-adv-x="1226" d="M119 348v676h287v-616q0 -88 45 -135.5t127 -47.5q74 0 135 42t100 112v645h287v-1024h-287v127q-137 -147 -334 -147q-168 0 -264 100t-96 268z" />
<glyph unicode="v" horiz-adv-x="1175" d="M37 1024h311l207 -563l27 -182h12l27 182l206 563h312l-394 -1024h-317z" />
<glyph unicode="w" horiz-adv-x="1640" d="M37 1024h293l145 -522l21 -164h10l24 164l158 522h262l160 -522l25 -164h10l20 164l144 522h295l-308 -1024h-301l-176 672l-176 -672h-301z" />
<glyph unicode="x" horiz-adv-x="1097" d="M27 0l352 559l-318 465h330l158 -248l158 248h329l-317 -465l350 -559h-321l-199 332l-201 -332h-321z" />
<glyph unicode="y" horiz-adv-x="1200" d="M37 1024h328l208 -510l11 -149h16l260 659h303l-581 -1434h-299l176 437z" />
<glyph unicode="z" horiz-adv-x="974" d="M76 0v203l487 590h-463v231h801v-195l-489 -598h489v-231h-825z" />
<glyph unicode="{" horiz-adv-x="806" d="M61 389v246h39q86 0 124 39t38 143v295q0 322 309 322h142v-246h-47q-127 0 -127 -144v-315q0 -170 -140 -217q139 -47 140 -217v-315q0 -143 127 -144h47v-246h-142q-309 0 -309 322v295q0 104 -38 143t-124 39h-39z" />
<glyph unicode="|" horiz-adv-x="536" d="M135 -246v1680h266v-1680h-266z" />
<glyph unicode="}" horiz-adv-x="806" d="M94 -164h45q127 0 127 144v315q0 168 140 217q-139 49 -140 217v315q0 143 -127 144h-45v246h142q307 0 307 -322v-295q0 -104 37.5 -143t126.5 -39h38v-246h-38q-88 0 -126 -39t-38 -143v-295q0 -322 -307 -322h-142v246z" />
<glyph unicode="~" horiz-adv-x="1019" d="M88 555q2 139 72.5 218t179.5 79q61 0 105 -16.5t100 -47.5q37 -20 61.5 -30t50.5 -10q37 0 56.5 23.5t23.5 64.5h195q-2 -139 -73 -218t-179 -79q-62 0 -106 16t-99 47q-37 20 -61.5 30.5t-51.5 10.5q-37 0 -56 -23.5t-23 -64.5h-195z" />
<glyph unicode="&#xa1;" horiz-adv-x="620" d="M135 850q0 72 52.5 123t121.5 51q72 0 124 -51t52 -123t-52 -124t-124 -52t-123 52t-51 124zM145 -410l41 945h246l43 -945h-330z" />
<glyph unicode="&#xa2;" horiz-adv-x="1185" d="M74 512q0 139 57 252t159.5 184.5t229.5 89.5v211h178v-211q166 -20 274.5 -119.5t139.5 -254.5l-16 -21l-238 -25q-16 61 -56 104.5t-104 61.5v-546q115 33 160 168l238 -25l16 -19q-41 -164 -147.5 -260t-266.5 -116v-191h-178v191q-127 18 -229.5 89.5t-159.5 184.5 t-57 252zM352 512q0 -106 46 -176t122 -94v540q-76 -25 -122 -94.5t-46 -175.5z" />
<glyph unicode="&#xa3;" horiz-adv-x="1241" d="M102 565v230h101q-29 63 -45.5 117.5t-16.5 117.5q0 127 65.5 223.5t175.5 148.5t241 52q225 0 363 -104.5t157 -309.5l-19 -26l-250 -27q-12 102 -81.5 156.5t-167.5 54.5q-94 0 -155.5 -54t-61.5 -143q0 -51 18 -95t55 -111h445v-230h-361q4 -16 4 -47 q0 -141 -100 -254h651v-264h-985v227q82 68 122 129.5t40 147.5q0 14 -2 32.5t-4 28.5h-189z" />
<glyph unicode="&#xa4;" horiz-adv-x="1169" d="M106 274l142 142q-51 90 -51 198q0 109 51 199l-142 141l140 140l141 -142q84 49 199 49q113 0 198 -49l142 142l137 -140l-139 -141q49 -92 49 -199q0 -106 -49 -198l139 -142l-137 -139l-142 141q-86 -49 -198 -49q-115 0 -199 49l-141 -141zM395 614q0 -92 54.5 -144 t136.5 -52q80 0 134 52t54 144t-54 144.5t-134 52.5q-82 0 -136.5 -52t-54.5 -145z" />
<glyph unicode="&#xa5;" horiz-adv-x="1298" d="M23 1434h333l265 -500l22 -143h12l23 143l264 500h334l-358 -643h159v-205h-270v-90h270v-205h-270v-291h-313v291h-273v205h273v90h-273v205h160z" />
<glyph unicode="&#xa6;" horiz-adv-x="536" d="M135 -246v721h266v-721h-266zM135 713v721h266v-721h-266z" />
<glyph unicode="&#xa7;" horiz-adv-x="1251" d="M74 510q0 123 64.5 214t168.5 136q-129 92 -129 242q0 102 61.5 183t163 125t218.5 44q219 0 339.5 -97t141.5 -259l-17 -25l-243 -26q-8 88 -65.5 134t-147.5 46q-82 0 -129 -33t-47 -90q0 -63 68.5 -103t252.5 -75q197 -41 300.5 -145.5t103.5 -266.5q0 -121 -67 -212 t-167 -138q129 -92 129 -244q0 -102 -61.5 -182t-162.5 -124t-218 -44q-217 0 -339 97t-142 259l16 25l246 26q8 -88 64 -134t149 -46q80 0 127 33t47 90q0 47 -29 78t-97.5 54.5t-195.5 45.5q-186 37 -294.5 144.5t-108.5 267.5zM356 528q0 -104 85 -166.5t221 -62.5 q98 0 165.5 52t67.5 149q0 102 -86 163.5t-221 61.5q-96 0 -164 -51t-68 -146z" />
<glyph unicode="&#xa8;" horiz-adv-x="790" d="M61 1298q0 59 43 101.5t101 42.5q59 0 101 -42t42 -102q0 -57 -42 -100t-101 -43q-58 0 -101 43t-43 100zM442 1298q0 59 43 101.5t101 42.5q57 0 100 -43t43 -101q0 -57 -43 -100t-100 -43q-58 0 -101 43t-43 100z" />
<glyph unicode="&#xa9;" horiz-adv-x="1662" d="M94 717q0 201 97.5 369.5t266.5 268t373 99.5q205 0 374 -99.5t266.5 -268t97.5 -369.5t-97.5 -370t-266.5 -268t-374 -99q-204 0 -373 99t-266.5 268t-97.5 370zM274 717q0 -154 75 -284t202 -205.5t280 -75.5q154 0 281 75.5t202 205.5t75 284t-75 283.5t-202 205.5 t-281 76t-280.5 -76t-201.5 -206t-75 -283zM430 717q0 119 52.5 213t143.5 146t205 52q143 0 244 -72.5t123 -193.5l-6 -10l-148 -31q-27 72 -80 110t-133 38q-104 0 -169.5 -69t-65.5 -183q0 -115 65.5 -183.5t169.5 -68.5q82 0 133.5 37t79.5 112l146 -32l6 -11 q-86 -266 -365 -266q-114 0 -205 52.5t-143.5 146.5t-52.5 213z" />
<glyph unicode="&#xaa;" horiz-adv-x="944" d="M74 860q0 111 75.5 177.5t208.5 78.5l217 23v35q0 57 -34.5 86.5t-96.5 29.5q-57 0 -91 -29.5t-42 -80.5l-188 16l-10 10q27 119 115.5 183.5t220.5 64.5q152 0 248 -77t96 -216v-287q0 -78 57 -77q8 0 31 6l8 -19v-147q-55 -16 -113 -16q-59 0 -107 26.5t-75 83.5h-10 q-53 -57 -111.5 -87t-142.5 -30q-107 0 -181.5 68t-74.5 178zM283 874q0 -41 27.5 -64.5t70.5 -23.5q110 0 194 119v92l-176 -22q-57 -8 -86.5 -35t-29.5 -66z" />
<glyph unicode="&#xab;" horiz-adv-x="1036" d="M82 573l219 465h250l-195 -465l195 -464h-250zM473 573l219 465h250l-192 -465l192 -464h-250z" />
<glyph unicode="&#xac;" horiz-adv-x="927" d="M88 629v209h752v-463h-242v254h-510z" />
<glyph unicode="&#xad;" horiz-adv-x="933" d="M88 522v230h756v-230h-756z" />
<glyph unicode="&#xae;" horiz-adv-x="1662" d="M94 717q0 201 97.5 369.5t266.5 268t373 99.5q205 0 374 -99.5t266.5 -268t97.5 -369.5t-97.5 -370t-266.5 -268t-374 -99q-204 0 -373 99t-266.5 268t-97.5 370zM274 717q0 -154 75 -284t202 -205.5t280 -75.5q154 0 281 75.5t202 205.5t75 284t-75 283.5t-202 205.5 t-281 76t-280.5 -76t-201.5 -206t-75 -283zM555 299v836h270q150 0 231 -73t81 -196q0 -78 -38 -135t-112 -100v-10l164 -322h-170l-152 303h-118v-303h-156zM711 743h118q150 0 150 125t-150 125h-118v-250z" />
<glyph unicode="&#xaf;" horiz-adv-x="653" d="M61 1198v193h531v-193h-531z" />
<glyph unicode="&#xb0;" horiz-adv-x="698" d="M74 1178q0 76 36.5 139t99 100t138.5 37q117 0 197 -80t80 -196q0 -76 -37 -138.5t-100.5 -99.5t-139.5 -37t-138.5 37t-99 99.5t-36.5 138.5zM236 1178q0 -45 33.5 -79t78.5 -34t80 34t35 79q0 47 -34 80.5t-81 33.5q-45 0 -78.5 -34.5t-33.5 -79.5z" />
<glyph unicode="&#xb1;" horiz-adv-x="1060" d="M92 0v229h879v-229h-879zM92 691v229h324v324h229v-324h326v-229h-326v-326h-229v326h-324z" />
<glyph unicode="&#xb2;" horiz-adv-x="688" d="M68 1495q8 98 79.5 166.5t192.5 68.5q125 0 198.5 -59t73.5 -166q0 -66 -33.5 -123t-99.5 -119l-151 -143h295v-158h-551v134l299 276q31 31 46 58.5t15 60.5q0 39 -24.5 60.5t-65.5 21.5q-45 0 -71.5 -30t-30.5 -81l-164 14z" />
<glyph unicode="&#xb3;" horiz-adv-x="724" d="M66 1206l10 14l162 21q4 -57 39.5 -93t89.5 -36q53 0 83.5 30.5t30.5 84.5q0 59 -39 93t-100 34h-53v127l121 96h-310v143h521v-135l-146 -115q184 -53 184 -241q0 -123 -81.5 -200t-206.5 -77q-131 0 -214 72t-91 182z" />
<glyph unicode="&#xb4;" horiz-adv-x="589" d="M61 1149l158 299h309l-237 -299h-230z" />
<glyph unicode="&#xb5;" horiz-adv-x="1234" d="M127 -410v1434h287v-616q0 -88 45 -135.5t127 -47.5q74 0 135 42t100 112v645h287v-1024h-287v127q-137 -147 -334 -147q-47 0 -73 16v-406h-287z" />
<glyph unicode="&#xb6;" horiz-adv-x="1351" d="M94 1022q0 195 127 303.5t340 108.5h656v-1844h-263v1614h-114v-1614h-260v1022h-19q-213 0 -340 108.5t-127 301.5z" />
<glyph unicode="&#xb7;" horiz-adv-x="538" d="M94 717q0 72 51.5 124t122.5 52q72 0 124 -52t52 -124t-52 -123t-124 -51q-69 0 -121.5 52t-52.5 122z" />
<glyph unicode="&#xb8;" horiz-adv-x="557" d="M61 -285l9 17l147 16q14 -35 62 -35q25 0 40 14.5t15 39.5q0 49 -58 49q-41 0 -71 -31l-127 18l-6 19l104 229h172l-100 -155q41 16 80 16q76 0 122 -41t46 -113q0 -86 -59.5 -134t-155.5 -48q-91 0 -145 38t-75 101z" />
<glyph unicode="&#xb9;" horiz-adv-x="493" d="M66 1446v176h16q129 0 143 98h195v-758h-195v527q-27 -25 -64.5 -34t-94.5 -9z" />
<glyph unicode="&#xba;" horiz-adv-x="1026" d="M74 1034q0 119 56 215.5t156.5 150.5t227.5 54q125 0 225.5 -54t156.5 -150.5t56 -215.5t-56 -215t-156.5 -150.5t-225.5 -54.5q-127 0 -227.5 54.5t-156.5 150.5t-56 215zM299 1034q0 -102 60.5 -163.5t154.5 -61.5t153.5 61.5t59.5 163.5t-59.5 164t-153.5 62 t-154.5 -61.5t-60.5 -164.5z" />
<glyph unicode="&#xbb;" horiz-adv-x="1036" d="M94 109l195 464l-195 465h250l219 -465l-219 -464h-250zM485 109l195 464l-195 465h252l217 -465l-217 -464h-252z" />
<glyph unicode="&#xbc;" horiz-adv-x="1644" d="M66 1159v176h16q129 0 143 98h195v-758h-195v527q-27 -25 -64.5 -34t-94.5 -9zM166 123l1080 1304l143 -116l-1079 -1305zM963 117v164l360 477h176v-477h90v-164h-90v-117h-182v117h-354zM1147 281h170v227z" />
<glyph unicode="&#xbd;" horiz-adv-x="1687" d="M66 1159v176h16q129 0 143 98h195v-758h-195v527q-27 -25 -64.5 -34t-94.5 -9zM166 123l1080 1304l143 -116l-1079 -1305zM1067 533q8 98 79.5 166.5t192.5 68.5q125 0 198.5 -59t73.5 -166q0 -66 -33.5 -123t-99.5 -119l-151 -143h295v-158h-551v134l299 276 q31 31 46 58.5t15 60.5q0 39 -24.5 60.5t-65.5 21.5q-45 0 -71.5 -30t-30.5 -81l-164 14z" />
<glyph unicode="&#xbe;" horiz-adv-x="1835" d="M66 919l10 14l162 21q4 -57 39.5 -93t89.5 -36q53 0 83.5 30.5t30.5 84.5q0 59 -39 93t-100 34h-53v127l121 96h-310v143h521v-135l-146 -115q184 -53 184 -241q0 -123 -81.5 -200t-206.5 -77q-131 0 -214 72t-91 182zM356 123l1080 1304l143 -116l-1079 -1305zM1153 117 v164l360 477h176v-477h90v-164h-90v-117h-182v117h-354zM1337 281h170v227z" />
<glyph unicode="&#xbf;" horiz-adv-x="1083" d="M76 -78q0 109 51 192t156 156q70 49 103.5 96.5t37.5 114.5l4 54h223l2 -52q4 -98 -19.5 -163.5t-62.5 -105.5t-108 -93q-66 -49 -90.5 -88t-24.5 -94q0 -57 49 -97.5t133 -40.5q94 0 154.5 56.5t67.5 142.5l233 -35l16 -26q-12 -106 -76.5 -190.5t-166 -131.5 t-226.5 -47q-223 0 -339.5 97t-116.5 255zM365 850q0 72 52 123t122 51q71 0 123.5 -51t52.5 -123t-52.5 -124t-123.5 -52q-72 0 -123 52t-51 124z" />
<glyph unicode="&#xc0;" d="M33 0l547 1434h282l547 -1434h-330l-84 242h-549l-86 -242h-327zM373 1858h309l158 -299h-227zM541 510h360l-153 438l-23 156h-10l-21 -156z" />
<glyph unicode="&#xc1;" d="M33 0l547 1434h282l547 -1434h-330l-84 242h-549l-86 -242h-327zM541 510h360l-153 438l-23 156h-10l-21 -156zM594 1559l158 299h309l-238 -299h-229z" />
<glyph unicode="&#xc2;" d="M33 0l547 1434h282l547 -1434h-330l-84 242h-549l-86 -242h-327zM396 1556l235 302h183l233 -302h-211l-115 117l-112 -117h-213zM541 510h360l-153 438l-23 156h-10l-21 -156z" />
<glyph unicode="&#xc3;" d="M33 0l547 1434h282l547 -1434h-330l-84 242h-549l-86 -242h-327zM338 1579q6 137 73.5 205.5t166.5 68.5q59 0 96 -16t78 -45q27 -20 47 -29.5t47 -9.5q37 0 58.5 23.5t27.5 62.5h172q-6 -137 -73.5 -205.5t-166.5 -68.5q-59 0 -96 16t-78 45q-27 20 -47 29.5t-47 9.5 q-37 0 -58.5 -23.5t-27.5 -62.5h-172zM541 510h360l-153 438l-23 156h-10l-21 -156z" />
<glyph unicode="&#xc4;" d="M33 0l547 1434h282l547 -1434h-330l-84 242h-549l-86 -242h-327zM368 1712q0 61 44.5 105.5t105.5 44.5t105 -44t44 -106q0 -61 -44 -105t-105 -44t-105.5 44t-44.5 105zM541 510h360l-153 438l-23 156h-10l-21 -156zM776 1712q0 61 44 105.5t103 44.5q61 0 105.5 -44 t44.5 -106q0 -61 -44 -105t-106 -44q-59 0 -103 44t-44 105z" />
<glyph unicode="&#xc5;" d="M33 0l547 1434h282l547 -1434h-330l-84 242h-549l-86 -242h-327zM521 1696q0 82 59 141t141 59q84 0 143.5 -59t59.5 -141t-59.5 -141.5t-143.5 -59.5q-82 0 -141 59.5t-59 141.5zM541 510h360l-153 438l-23 156h-10l-21 -156zM652 1696q0 -29 20.5 -49.5t48.5 -20.5 q31 0 50.5 20.5t19.5 49.5t-19.5 49t-50.5 20q-29 0 -49 -20.5t-20 -48.5z" />
<glyph unicode="&#xc6;" horiz-adv-x="2064" d="M33 0l776 1434h1124v-267h-637v-317h582v-266h-582v-310h660v-274h-973v242h-465l-125 -242h-360zM657 510h326v657h-18l-50 -170z" />
<glyph unicode="&#xc7;" horiz-adv-x="1585" d="M94 717q0 219 99.5 386t268.5 259t369 92q176 0 314.5 -59.5t226.5 -166t119 -245.5l-18 -29l-281 -36q-35 123 -131 190.5t-238 67.5q-125 0 -219 -58.5t-144 -163t-50 -237.5t51 -237.5t146 -163t224 -58.5q135 0 229.5 67.5t131.5 190.5l281 -37l16 -28 q-68 -221 -231.5 -342t-397.5 -129l-55 -84q41 16 80 16q76 0 122 -41t46 -113q0 -86 -59.5 -134t-155.5 -48q-90 0 -144.5 38t-75.5 101l9 17l147 16q14 -35 62 -35q25 0 40 14.5t15 39.5q0 49 -57 49q-41 0 -72 -31l-127 18l-6 19l76 168q-172 27 -311.5 124t-219.5 252.5 t-80 350.5z" />
<glyph unicode="&#xc8;" horiz-adv-x="1216" d="M135 0v1434h950v-267h-636v-317h581v-266h-581v-318h659v-266h-973zM274 1858h309l158 -299h-227z" />
<glyph unicode="&#xc9;" horiz-adv-x="1216" d="M135 0v1434h950v-267h-636v-317h581v-266h-581v-318h659v-266h-973zM496 1559l158 299h309l-238 -299h-229z" />
<glyph unicode="&#xca;" horiz-adv-x="1216" d="M135 0v1434h950v-267h-636v-317h581v-266h-581v-318h659v-266h-973zM295 1556l235 302h183l233 -302h-211l-115 117l-112 -117h-213z" />
<glyph unicode="&#xcb;" horiz-adv-x="1216" d="M135 0v1434h950v-267h-636v-317h581v-266h-581v-318h659v-266h-973zM268 1712q0 61 44.5 105.5t105.5 44.5t105 -44t44 -106q0 -61 -44 -105t-105 -44t-105.5 44t-44.5 105zM676 1712q0 61 44 105.5t103 44.5q61 0 105.5 -44t44.5 -106q0 -61 -44 -105t-106 -44 q-59 0 -103 44t-44 105z" />
<glyph unicode="&#xcc;" horiz-adv-x="583" d="M-55 1858h309l158 -299h-227zM135 0v1434h314v-1434h-314z" />
<glyph unicode="&#xcd;" horiz-adv-x="583" d="M135 0v1434h314v-1434h-314zM166 1559l158 299h309l-238 -299h-229z" />
<glyph unicode="&#xce;" horiz-adv-x="583" d="M-35 1556l235 302h183l233 -302h-211l-115 117l-112 -117h-213zM135 0v1434h314v-1434h-314z" />
<glyph unicode="&#xcf;" horiz-adv-x="583" d="M-62 1712q0 61 44.5 105.5t105.5 44.5t105 -44t44 -106q0 -61 -44 -105t-105 -44t-105.5 44t-44.5 105zM135 0v1434h314v-1434h-314zM346 1712q0 61 44 105.5t103 44.5q61 0 105.5 -44t44.5 -106q0 -61 -44 -105t-106 -44q-59 0 -103 44t-44 105z" />
<glyph unicode="&#xd0;" horiz-adv-x="1550" d="M35 602v229h147v603h510q233 0 405.5 -85t265.5 -247t93 -385t-93 -385t-265 -247t-406 -85h-510v602h-147zM496 279h186q225 0 343 109.5t118 328.5t-118 328.5t-343 109.5h-186v-324h295v-229h-295v-323z" />
<glyph unicode="&#xd1;" horiz-adv-x="1486" d="M135 0v1434h338l526 -873l25 -117h14v990h314v-1434h-338l-527 872l-24 117h-14v-989h-314zM360 1579q6 137 73.5 205.5t166.5 68.5q59 0 96 -16t78 -45q27 -20 47 -29.5t47 -9.5q37 0 58.5 23.5t27.5 62.5h172q-6 -137 -73.5 -205.5t-166.5 -68.5q-59 0 -96 16t-78 45 q-27 20 -47 29.5t-47 9.5q-37 0 -58.5 -23.5t-27.5 -62.5h-172z" />
<glyph unicode="&#xd2;" horiz-adv-x="1656" d="M94 717q0 217 95.5 384t263.5 260t376 93q207 0 375 -93t263.5 -260t95.5 -384t-95.5 -384t-263.5 -260t-375 -93q-208 0 -376 93t-263.5 260t-95.5 384zM410 717q0 -135 51 -238.5t146 -162t222 -58.5q125 0 220.5 58.5t147.5 162t52 238.5t-52 238.5t-147.5 162 t-220.5 58.5q-127 0 -222 -58.5t-146 -162t-51 -238.5zM481 1858h309l158 -299h-227z" />
<glyph unicode="&#xd3;" horiz-adv-x="1656" d="M94 717q0 217 95.5 384t263.5 260t376 93q207 0 375 -93t263.5 -260t95.5 -384t-95.5 -384t-263.5 -260t-375 -93q-208 0 -376 93t-263.5 260t-95.5 384zM410 717q0 -135 51 -238.5t146 -162t222 -58.5q125 0 220.5 58.5t147.5 162t52 238.5t-52 238.5t-147.5 162 t-220.5 58.5q-127 0 -222 -58.5t-146 -162t-51 -238.5zM702 1559l158 299h309l-238 -299h-229z" />
<glyph unicode="&#xd4;" horiz-adv-x="1656" d="M94 717q0 217 95.5 384t263.5 260t376 93q207 0 375 -93t263.5 -260t95.5 -384t-95.5 -384t-263.5 -260t-375 -93q-208 0 -376 93t-263.5 260t-95.5 384zM410 717q0 -135 51 -238.5t146 -162t222 -58.5q125 0 220.5 58.5t147.5 162t52 238.5t-52 238.5t-147.5 162 t-220.5 58.5q-127 0 -222 -58.5t-146 -162t-51 -238.5zM502 1556l235 302h183l233 -302h-211l-115 117l-112 -117h-213z" />
<glyph unicode="&#xd5;" horiz-adv-x="1656" d="M94 717q0 217 95.5 384t263.5 260t376 93q207 0 375 -93t263.5 -260t95.5 -384t-95.5 -384t-263.5 -260t-375 -93q-208 0 -376 93t-263.5 260t-95.5 384zM410 717q0 -135 51 -238.5t146 -162t222 -58.5q125 0 220.5 58.5t147.5 162t52 238.5t-52 238.5t-147.5 162 t-220.5 58.5q-127 0 -222 -58.5t-146 -162t-51 -238.5zM446 1579q6 137 73.5 205.5t166.5 68.5q59 0 96 -16t78 -45q27 -20 47 -29.5t47 -9.5q37 0 58.5 23.5t27.5 62.5h172q-6 -137 -73.5 -205.5t-166.5 -68.5q-59 0 -96 16t-78 45q-27 20 -47 29.5t-47 9.5 q-37 0 -58.5 -23.5t-27.5 -62.5h-172z" />
<glyph unicode="&#xd6;" horiz-adv-x="1656" d="M94 717q0 217 95.5 384t263.5 260t376 93q207 0 375 -93t263.5 -260t95.5 -384t-95.5 -384t-263.5 -260t-375 -93q-208 0 -376 93t-263.5 260t-95.5 384zM410 717q0 -135 51 -238.5t146 -162t222 -58.5q125 0 220.5 58.5t147.5 162t52 238.5t-52 238.5t-147.5 162 t-220.5 58.5q-127 0 -222 -58.5t-146 -162t-51 -238.5zM475 1712q0 61 44.5 105.5t105.5 44.5t105 -44t44 -106q0 -61 -44 -105t-105 -44t-105.5 44t-44.5 105zM883 1712q0 61 44 105.5t103 44.5q61 0 105.5 -44t44.5 -106q0 -61 -44 -105t-106 -44q-59 0 -103 44t-44 105z " />
<glyph unicode="&#xd7;" horiz-adv-x="985" d="M100 426l228 227l-228 230l162 164l230 -230l229 230l162 -162l-232 -232l232 -229l-162 -162l-229 230l-230 -230z" />
<glyph unicode="&#xd8;" horiz-adv-x="1656" d="M94 717q0 217 95.5 384t263.5 260t376 93q125 0 240 -35l61 111l222 -113l-62 -112q129 -99 201 -250.5t72 -337.5q0 -217 -95.5 -384t-263.5 -260t-375 -93q-125 0 -239 34l-62 -110l-221 112l62 111q-131 100 -203 251.5t-72 338.5zM410 717q0 -197 104 -320l418 768 q-55 10 -103 11q-127 0 -222 -58.5t-146 -162t-51 -238.5zM727 268q55 -10 102 -10q125 0 220.5 58.5t147.5 162t52 238.5q0 197 -104 319z" />
<glyph unicode="&#xd9;" d="M135 561v873h314v-871q0 -150 69.5 -227.5t202.5 -77.5t202.5 78t69.5 227v871h314v-873q0 -174 -70 -305t-202 -203.5t-314 -72.5t-314.5 72.5t-202 203.5t-69.5 305zM373 1858h309l158 -299h-227z" />
<glyph unicode="&#xda;" d="M135 561v873h314v-871q0 -150 69.5 -227.5t202.5 -77.5t202.5 78t69.5 227v871h314v-873q0 -174 -70 -305t-202 -203.5t-314 -72.5t-314.5 72.5t-202 203.5t-69.5 305zM594 1559l158 299h309l-238 -299h-229z" />
<glyph unicode="&#xdb;" d="M135 561v873h314v-871q0 -150 69.5 -227.5t202.5 -77.5t202.5 78t69.5 227v871h314v-873q0 -174 -70 -305t-202 -203.5t-314 -72.5t-314.5 72.5t-202 203.5t-69.5 305zM396 1556l235 302h183l233 -302h-211l-115 117l-112 -117h-213z" />
<glyph unicode="&#xdc;" d="M135 561v873h314v-871q0 -150 69.5 -227.5t202.5 -77.5t202.5 78t69.5 227v871h314v-873q0 -174 -70 -305t-202 -203.5t-314 -72.5t-314.5 72.5t-202 203.5t-69.5 305zM368 1712q0 61 44.5 105.5t105.5 44.5t105 -44t44 -106q0 -61 -44 -105t-105 -44t-105.5 44 t-44.5 105zM776 1712q0 61 44 105.5t103 44.5q61 0 105.5 -44t44.5 -106q0 -61 -44 -105t-106 -44q-59 0 -103 44t-44 105z" />
<glyph unicode="&#xdd;" horiz-adv-x="1241" d="M23 1434h333l236 -506l22 -172h13l24 172l234 506h334l-441 -934v-500h-313v500zM496 1559l158 299h309l-238 -299h-229z" />
<glyph unicode="&#xde;" horiz-adv-x="1368" d="M135 0v1434h314v-226h260q168 0 296 -58t198.5 -169t70.5 -264q0 -154 -70.5 -264.5t-198.5 -169t-296 -58.5h-260v-225h-314zM449 494h241q270 0 271 223q0 223 -271 223h-241v-446z" />
<glyph unicode="&#xdf;" horiz-adv-x="1339" d="M55 819v205h172v16q0 135 61.5 229.5t164 139.5t221.5 45q117 0 215 -39t156.5 -112.5t58.5 -178.5q0 -84 -42 -143t-114 -121q-23 -20 -40 -37.5t-17 -29.5q0 -20 23.5 -37t78.5 -41l39 -17q123 -57 180.5 -141t57.5 -207q0 -104 -47 -188t-138.5 -133t-218.5 -49 q-106 0 -185 47t-118 141v27l135 147q51 -117 164 -117q57 0 92 35t35 92q0 53 -33.5 89t-115.5 73q-82 39 -127 66.5t-77 69.5t-32 100q0 55 27.5 97t81.5 93q49 47 73.5 83t24.5 81q0 57 -40 91t-97 34q-72 0 -117 -47t-45 -138v-1044h-285v819h-172z" />
<glyph unicode="&#xe0;" horiz-adv-x="1167" d="M78 291q0 139 96 224t264 101l277 29v45q0 70 -44 109t-124 39q-72 0 -115 -38t-53 -104l-242 21l-10 12q31 154 145.5 234.5t278.5 80.5q195 0 315.5 -97t120.5 -273v-367q0 -47 19.5 -71.5t54.5 -24.5q23 0 39 6l10 -12v-197q-61 -20 -141 -20q-166 0 -230 139h-14 q-72 -74 -147.5 -110.5t-174.5 -36.5q-88 0 -162.5 37.5t-118.5 108.5t-44 165zM215 1448h309l158 -299h-227zM342 307q0 -51 36 -80.5t91 -29.5q74 0 130 36.5t116 112.5v119l-226 -29q-72 -8 -109.5 -43t-37.5 -86z" />
<glyph unicode="&#xe1;" horiz-adv-x="1167" d="M78 291q0 139 96 224t264 101l277 29v45q0 70 -44 109t-124 39q-72 0 -115 -38t-53 -104l-242 21l-10 12q31 154 145.5 234.5t278.5 80.5q195 0 315.5 -97t120.5 -273v-367q0 -47 19.5 -71.5t54.5 -24.5q23 0 39 6l10 -12v-197q-61 -20 -141 -20q-166 0 -230 139h-14 q-72 -74 -147.5 -110.5t-174.5 -36.5q-88 0 -162.5 37.5t-118.5 108.5t-44 165zM342 307q0 -51 36 -80.5t91 -29.5q74 0 130 36.5t116 112.5v119l-226 -29q-72 -8 -109.5 -43t-37.5 -86zM430 1149l158 299h309l-238 -299h-229z" />
<glyph unicode="&#xe2;" horiz-adv-x="1167" d="M78 291q0 139 96 224t264 101l277 29v45q0 70 -44 109t-124 39q-72 0 -115 -38t-53 -104l-242 21l-10 12q31 154 145.5 234.5t278.5 80.5q195 0 315.5 -97t120.5 -273v-367q0 -47 19.5 -71.5t54.5 -24.5q23 0 39 6l10 -12v-197q-61 -20 -141 -20q-166 0 -230 139h-14 q-72 -74 -147.5 -110.5t-174.5 -36.5q-88 0 -162.5 37.5t-118.5 108.5t-44 165zM238 1147l235 301h183l233 -301h-211l-115 117l-112 -117h-213zM342 307q0 -51 36 -80.5t91 -29.5q74 0 130 36.5t116 112.5v119l-226 -29q-72 -8 -109.5 -43t-37.5 -86z" />
<glyph unicode="&#xe3;" horiz-adv-x="1167" d="M78 291q0 139 96 224t264 101l277 29v45q0 70 -44 109t-124 39q-72 0 -115 -38t-53 -104l-242 21l-10 12q31 154 145.5 234.5t278.5 80.5q195 0 315.5 -97t120.5 -273v-367q0 -47 19.5 -71.5t54.5 -24.5q23 0 39 6l10 -12v-197q-61 -20 -141 -20q-166 0 -230 139h-14 q-72 -74 -147.5 -110.5t-174.5 -36.5q-88 0 -162.5 37.5t-118.5 108.5t-44 165zM180 1169q6 137 73.5 206t166.5 69q59 0 96 -16.5t78 -45.5q27 -20 47 -29.5t47 -9.5q37 0 58.5 24t27.5 63h172q-6 -137 -73.5 -206t-166.5 -69q-59 0 -96 16.5t-78 45.5q-27 20 -47 29t-47 9 q-37 0 -58.5 -23.5t-27.5 -62.5h-172zM342 307q0 -51 36 -80.5t91 -29.5q74 0 130 36.5t116 112.5v119l-226 -29q-72 -8 -109.5 -43t-37.5 -86z" />
<glyph unicode="&#xe4;" horiz-adv-x="1167" d="M78 291q0 139 96 224t264 101l277 29v45q0 70 -44 109t-124 39q-72 0 -115 -38t-53 -104l-242 21l-10 12q31 154 145.5 234.5t278.5 80.5q195 0 315.5 -97t120.5 -273v-367q0 -47 19.5 -71.5t54.5 -24.5q23 0 39 6l10 -12v-197q-61 -20 -141 -20q-166 0 -230 139h-14 q-72 -74 -147.5 -110.5t-174.5 -36.5q-88 0 -162.5 37.5t-118.5 108.5t-44 165zM210 1303q0 61 44.5 105t105.5 44t105 -44t44 -105t-44 -105.5t-105 -44.5t-105.5 44t-44.5 106zM342 307q0 -51 36 -80.5t91 -29.5q74 0 130 36.5t116 112.5v119l-226 -29q-72 -8 -109.5 -43 t-37.5 -86zM618 1303q0 61 44 105t103 44q61 0 105.5 -44t44.5 -105t-44 -105.5t-106 -44.5q-59 0 -103 44t-44 106z" />
<glyph unicode="&#xe5;" horiz-adv-x="1167" d="M78 291q0 139 96 224t264 101l277 29v45q0 70 -44 109t-124 39q-72 0 -115 -38t-53 -104l-242 21l-10 12q31 154 145.5 234.5t278.5 80.5q195 0 315.5 -97t120.5 -273v-367q0 -47 19.5 -71.5t54.5 -24.5q23 0 39 6l10 -12v-197q-61 -20 -141 -20q-166 0 -230 139h-14 q-72 -74 -147.5 -110.5t-174.5 -36.5q-88 0 -162.5 37.5t-118.5 108.5t-44 165zM342 307q0 -51 36 -80.5t91 -29.5q74 0 130 36.5t116 112.5v119l-226 -29q-72 -8 -109.5 -43t-37.5 -86zM363 1286q0 82 59 141.5t141 59.5q84 0 143.5 -59.5t59.5 -141.5t-59.5 -141.5 t-143.5 -59.5q-82 0 -141 59.5t-59 141.5zM494 1286q0 -29 20.5 -49t48.5 -20q31 0 50.5 20t19.5 49t-19.5 49.5t-50.5 20.5q-29 0 -49 -20.5t-20 -49.5z" />
<glyph unicode="&#xe6;" horiz-adv-x="1822" d="M78 291q0 141 101.5 226t273.5 95l262 15v57q0 72 -44 113t-122 41q-72 0 -116 -38t-54 -104l-246 21l-6 12q31 154 145.5 234.5t280.5 80.5q109 0 198 -32.5t146 -96.5q72 61 161 95t185 34q152 0 269.5 -63t182 -182t64.5 -281v-76h-768l-2 -10q14 -102 84 -161.5 t176 -59.5q94 0 150.5 41t85.5 117l239 -25l13 -25q-55 -170 -181 -254.5t-313 -84.5q-133 0 -240.5 51t-179.5 143h-12q-78 -96 -171 -145t-210 -49q-154 0 -253 83.5t-99 227.5zM342 305q0 -51 35 -79.5t94 -28.5q138 -1 244 149v94l-213 -14q-78 -4 -119 -36t-41 -85z M995 627h494q-10 92 -78 147t-170 55q-90 0 -157.5 -55t-88.5 -147z" />
<glyph unicode="&#xe7;" horiz-adv-x="1185" d="M74 512q0 154 71.5 275.5t193.5 189t271 67.5q203 0 335 -102t167 -278l-16 -21l-238 -25q-20 82 -83.5 130.5t-164.5 48.5q-113 0 -185.5 -75t-72.5 -210t73 -210t185 -75q100 0 159.5 45t88.5 134l238 -25l16 -19q-45 -178 -168 -277t-309 -105l-55 -84q41 16 79 16 q76 0 122 -41t46 -113q0 -86 -59 -134t-156 -48q-90 0 -144 38t-75 101l8 17l148 16q14 -35 61 -35q25 0 40.5 14.5t15.5 39.5q0 49 -58 49q-41 0 -71 -31l-127 18l-7 19l78 172q-180 41 -293.5 181t-113.5 337z" />
<glyph unicode="&#xe8;" horiz-adv-x="1179" d="M74 512q0 156 72.5 276.5t193.5 188t260 67.5q152 0 268.5 -63t181 -182t64.5 -281v-76h-770q10 -106 81 -168.5t181 -62.5q176 0 234 158l239 -25l15 -25q-57 -170 -183.5 -254.5t-310.5 -84.5q-151 0 -271 66.5t-187.5 187t-67.5 278.5zM252 1448h309l158 -299h-227z M352 627h492q-10 92 -78 147t-168 55q-90 0 -158.5 -55t-87.5 -147z" />
<glyph unicode="&#xe9;" horiz-adv-x="1179" d="M74 512q0 156 72.5 276.5t193.5 188t260 67.5q152 0 268.5 -63t181 -182t64.5 -281v-76h-770q10 -106 81 -168.5t181 -62.5q176 0 234 158l239 -25l15 -25q-57 -170 -183.5 -254.5t-310.5 -84.5q-151 0 -271 66.5t-187.5 187t-67.5 278.5zM352 627h492q-10 92 -78 147 t-168 55q-90 0 -158.5 -55t-87.5 -147zM467 1149l158 299h309l-238 -299h-229z" />
<glyph unicode="&#xea;" horiz-adv-x="1179" d="M74 512q0 156 72.5 276.5t193.5 188t260 67.5q152 0 268.5 -63t181 -182t64.5 -281v-76h-770q10 -106 81 -168.5t181 -62.5q176 0 234 158l239 -25l15 -25q-57 -170 -183.5 -254.5t-310.5 -84.5q-151 0 -271 66.5t-187.5 187t-67.5 278.5zM275 1147l235 301h183l233 -301 h-211l-115 117l-112 -117h-213zM352 627h492q-10 92 -78 147t-168 55q-90 0 -158.5 -55t-87.5 -147z" />
<glyph unicode="&#xeb;" horiz-adv-x="1179" d="M74 512q0 156 72.5 276.5t193.5 188t260 67.5q152 0 268.5 -63t181 -182t64.5 -281v-76h-770q10 -106 81 -168.5t181 -62.5q176 0 234 158l239 -25l15 -25q-57 -170 -183.5 -254.5t-310.5 -84.5q-151 0 -271 66.5t-187.5 187t-67.5 278.5zM247 1303q0 61 44.5 105 t105.5 44t105 -44t44 -105t-44 -105.5t-105 -44.5t-105.5 44t-44.5 106zM352 627h492q-10 92 -78 147t-168 55q-90 0 -158.5 -55t-87.5 -147zM655 1303q0 61 44 105t103 44q61 0 105.5 -44t44.5 -105t-44 -105.5t-106 -44.5q-59 0 -103 44t-44 106z" />
<glyph unicode="&#xec;" horiz-adv-x="520" d="M-88 1448h309l158 -299h-227zM117 0v1024h286v-1024h-286z" />
<glyph unicode="&#xed;" horiz-adv-x="520" d="M117 0v1024h286v-1024h-286zM127 1149l158 299h309l-238 -299h-229z" />
<glyph unicode="&#xee;" horiz-adv-x="520" d="M-65 1147l235 301h183l233 -301h-211l-115 117l-112 -117h-213zM117 0v1024h286v-1024h-286z" />
<glyph unicode="&#xef;" horiz-adv-x="520" d="M-93 1303q0 61 44.5 105t105.5 44t105 -44t44 -105t-44 -105.5t-105 -44.5t-105.5 44t-44.5 106zM117 0v1024h286v-1024h-286zM315 1303q0 61 44 105t103 44q61 0 105.5 -44t44.5 -105t-44 -105.5t-106 -44.5q-59 0 -103 44t-44 106z" />
<glyph unicode="&#xf0;" horiz-adv-x="1267" d="M74 481q0 133 64.5 248t183 183.5t274.5 68.5q176 0 301 -107q-16 150 -104 252l-140 -100l-116 158l90 65q-82 35 -189 47l-22 27l43 193q215 -20 372 -117l142 102l119 -160l-107 -75q94 -113 141.5 -269.5t47.5 -345.5q0 -199 -65 -350t-191.5 -236t-307.5 -85 q-164 0 -285.5 68.5t-186 183t-64.5 249.5zM362 481q0 -109 70 -181.5t182 -72.5q113 0 183.5 73t70.5 181q0 106 -70.5 179t-183.5 73q-111 0 -181.5 -72.5t-70.5 -179.5z" />
<glyph unicode="&#xf1;" horiz-adv-x="1226" d="M127 0v1024h287v-133q145 154 340 153q166 0 260 -96t94 -248v-700h-287v616q0 90 -42 136.5t-124 46.5q-72 0 -137 -44t-104 -110v-645h-287zM235 1169q6 137 73.5 206t166.5 69q59 0 96 -16.5t78 -45.5q27 -20 47 -29.5t47 -9.5q37 0 58.5 24t27.5 63h172 q-6 -137 -73.5 -206t-166.5 -69q-59 0 -96 16.5t-78 45.5q-27 20 -47 29t-47 9q-37 0 -58.5 -23.5t-27.5 -62.5h-172z" />
<glyph unicode="&#xf2;" horiz-adv-x="1263" d="M74 512q0 152 71.5 272.5t198.5 190t287 69.5q162 0 289 -69.5t198.5 -190t71.5 -272.5t-71.5 -272.5t-198.5 -190t-289 -69.5q-160 0 -287 69.5t-198.5 190t-71.5 272.5zM283 1448h309l158 -299h-227zM360 512q0 -131 76 -208t195 -77t195.5 77t76.5 208t-76.5 208 t-195.5 77t-195 -77t-76 -208z" />
<glyph unicode="&#xf3;" horiz-adv-x="1263" d="M74 512q0 152 71.5 272.5t198.5 190t287 69.5q162 0 289 -69.5t198.5 -190t71.5 -272.5t-71.5 -272.5t-198.5 -190t-289 -69.5q-160 0 -287 69.5t-198.5 190t-71.5 272.5zM360 512q0 -131 76 -208t195 -77t195.5 77t76.5 208t-76.5 208t-195.5 77t-195 -77t-76 -208z M498 1149l158 299h309l-238 -299h-229z" />
<glyph unicode="&#xf4;" horiz-adv-x="1263" d="M74 512q0 152 71.5 272.5t198.5 190t287 69.5q162 0 289 -69.5t198.5 -190t71.5 -272.5t-71.5 -272.5t-198.5 -190t-289 -69.5q-160 0 -287 69.5t-198.5 190t-71.5 272.5zM305 1147l235 301h183l233 -301h-211l-115 117l-112 -117h-213zM360 512q0 -131 76 -208t195 -77 t195.5 77t76.5 208t-76.5 208t-195.5 77t-195 -77t-76 -208z" />
<glyph unicode="&#xf5;" horiz-adv-x="1263" d="M74 512q0 152 71.5 272.5t198.5 190t287 69.5q162 0 289 -69.5t198.5 -190t71.5 -272.5t-71.5 -272.5t-198.5 -190t-289 -69.5q-160 0 -287 69.5t-198.5 190t-71.5 272.5zM248 1169q6 137 73.5 206t166.5 69q59 0 96 -16.5t78 -45.5q27 -20 47 -29.5t47 -9.5 q37 0 58.5 24t27.5 63h172q-6 -137 -73.5 -206t-166.5 -69q-59 0 -96 16.5t-78 45.5q-27 20 -47 29t-47 9q-37 0 -58.5 -23.5t-27.5 -62.5h-172zM360 512q0 -131 76 -208t195 -77t195.5 77t76.5 208t-76.5 208t-195.5 77t-195 -77t-76 -208z" />
<glyph unicode="&#xf6;" horiz-adv-x="1263" d="M74 512q0 152 71.5 272.5t198.5 190t287 69.5q162 0 289 -69.5t198.5 -190t71.5 -272.5t-71.5 -272.5t-198.5 -190t-289 -69.5q-160 0 -287 69.5t-198.5 190t-71.5 272.5zM278 1303q0 61 44.5 105t105.5 44t105 -44t44 -105t-44 -105.5t-105 -44.5t-105.5 44t-44.5 106z M360 512q0 -131 76 -208t195 -77t195.5 77t76.5 208t-76.5 208t-195.5 77t-195 -77t-76 -208zM686 1303q0 61 44 105t103 44q61 0 105.5 -44t44.5 -105t-44 -105.5t-106 -44.5q-59 0 -103 44t-44 106z" />
<glyph unicode="&#xf7;" horiz-adv-x="1060" d="M92 541v229h879v-229h-879zM356 260q0 72 52.5 123t123.5 51q72 0 123.5 -51t51.5 -123q0 -70 -51.5 -122t-123.5 -52q-71 0 -123.5 51t-52.5 123zM356 1051q0 72 52.5 123t123.5 51q72 0 123.5 -51.5t51.5 -122.5q0 -70 -51.5 -122t-123.5 -52q-71 0 -123.5 51 t-52.5 123z" />
<glyph unicode="&#xf8;" horiz-adv-x="1263" d="M74 512q0 152 71.5 272.5t198.5 190t287 69.5q84 0 157 -18l48 88l194 -100l-45 -82q98 -72 151.5 -180.5t53.5 -239.5q0 -152 -71.5 -272.5t-198.5 -190t-289 -69.5q-80 0 -154 18l-47 -88l-194 100l43 80q-96 74 -150.5 182.5t-54.5 239.5zM360 512q1 -104 52 -178 l250 461q-10 2 -31 2q-119 0 -195 -77t-76 -208zM604 229q8 -2 27 -2q119 0 195.5 77t76.5 208q0 100 -49 176z" />
<glyph unicode="&#xf9;" horiz-adv-x="1226" d="M119 348v676h287v-616q0 -88 45 -135.5t127 -47.5q74 0 135 42t100 112v645h287v-1024h-287v127q-137 -147 -334 -147q-168 0 -264 100t-96 268zM262 1448h309l158 -299h-227z" />
<glyph unicode="&#xfa;" horiz-adv-x="1226" d="M119 348v676h287v-616q0 -88 45 -135.5t127 -47.5q74 0 135 42t100 112v645h287v-1024h-287v127q-137 -147 -334 -147q-168 0 -264 100t-96 268zM477 1149l158 299h309l-238 -299h-229z" />
<glyph unicode="&#xfb;" horiz-adv-x="1226" d="M119 348v676h287v-616q0 -88 45 -135.5t127 -47.5q74 0 135 42t100 112v645h287v-1024h-287v127q-137 -147 -334 -147q-168 0 -264 100t-96 268zM285 1147l235 301h183l233 -301h-211l-115 117l-112 -117h-213z" />
<glyph unicode="&#xfc;" horiz-adv-x="1226" d="M119 348v676h287v-616q0 -88 45 -135.5t127 -47.5q74 0 135 42t100 112v645h287v-1024h-287v127q-137 -147 -334 -147q-168 0 -264 100t-96 268zM258 1303q0 61 44.5 105t105.5 44t105 -44t44 -105t-44 -105.5t-105 -44.5t-105.5 44t-44.5 106zM666 1303q0 61 44 105 t103 44q61 0 105.5 -44t44.5 -105t-44 -105.5t-106 -44.5q-59 0 -103 44t-44 106z" />
<glyph unicode="&#xfd;" horiz-adv-x="1200" d="M37 1024h328l208 -510l11 -149h16l260 659h303l-581 -1434h-299l176 437zM487 1149l158 299h309l-238 -299h-229z" />
<glyph unicode="&#xfe;" horiz-adv-x="1296" d="M127 -410v1905h287v-582q127 131 329 131q119 0 229.5 -60t180.5 -180t70 -292t-73 -292t-190.5 -180t-250.5 -60q-86 0 -163 28.5t-132 75.5v-494h-287zM414 463q0 -111 72.5 -178.5t181.5 -67.5q116 0 190 78t74 217t-75 217t-193 78q-106 0 -178 -66.5t-72 -179.5v-98 z" />
<glyph unicode="&#xff;" horiz-adv-x="1200" d="M37 1024h328l208 -510l11 -149h16l260 659h303l-581 -1434h-299l176 437zM268 1303q0 61 44.5 105t105.5 44t105 -44t44 -105t-44 -105.5t-105 -44.5t-105.5 44t-44.5 106zM676 1303q0 61 44 105t103 44q61 0 105.5 -44t44.5 -105t-44 -105.5t-106 -44.5q-59 0 -103 44 t-44 106z" />
<glyph unicode="&#x152;" horiz-adv-x="2330" d="M94 717q0 217 95.5 384t263.5 260t376 93q236 0 420 -129v109h951v-267h-637v-317h581v-266h-581v-310h659v-274h-973v109q-184 -129 -420 -129q-208 0 -376 93t-263.5 260t-95.5 384zM410 717q0 -135 51 -238.5t146 -162t222 -58.5q125 0 220.5 58.5t147.5 162t52 238.5 t-52 238.5t-147.5 162t-220.5 58.5q-127 0 -222 -58.5t-146 -162t-51 -238.5z" />
<glyph unicode="&#x153;" horiz-adv-x="2023" d="M74 512q0 152 71.5 272.5t198.5 190t287 69.5q260 0 422 -194q76 92 174 143t217 51q152 0 269.5 -63t182 -182t64.5 -281v-76h-770q10 -106 80.5 -168.5t179.5 -62.5q178 0 236 158l239 -25l14 -25q-57 -170 -183 -254.5t-312 -84.5q-123 0 -224.5 48t-170.5 138 q-80 -96 -182.5 -141t-235.5 -45q-160 0 -287 69.5t-198.5 190t-71.5 272.5zM360 512q0 -131 76 -208t195 -77t195.5 77t76.5 208t-76.5 208t-195.5 77t-195 -77t-76 -208zM1198 627h492q-10 92 -78 147t-168 55q-90 0 -158.5 -55t-87.5 -147z" />
<glyph unicode="&#x178;" horiz-adv-x="1241" d="M23 1434h333l236 -506l22 -172h13l24 172l234 506h334l-441 -934v-500h-313v500zM268 1712q0 61 44.5 105.5t105.5 44.5t105 -44t44 -106q0 -61 -44 -105t-105 -44t-105.5 44t-44.5 105zM676 1712q0 61 44 105.5t103 44.5q61 0 105.5 -44t44.5 -106q0 -61 -44 -105 t-106 -44q-59 0 -103 44t-44 105z" />
<glyph unicode="&#x2c6;" horiz-adv-x="774" d="M61 1147l236 301h182l234 -301h-211l-115 117l-113 -117h-213z" />
<glyph unicode="&#x2dc;" horiz-adv-x="888" d="M61 1169q6 137 74 206t166 69q59 0 96 -16.5t78 -45.5q27 -20 47.5 -29.5t46.5 -9.5q37 0 58.5 24t27.5 63h172q-6 -137 -73.5 -206t-165.5 -69q-60 0 -96.5 16.5t-77.5 45.5q-27 20 -47.5 29t-47.5 9q-37 0 -58 -23.5t-28 -62.5h-172z" />
<glyph unicode="&#x2000;" horiz-adv-x="948" />
<glyph unicode="&#x2001;" horiz-adv-x="1896" />
<glyph unicode="&#x2002;" horiz-adv-x="948" />
<glyph unicode="&#x2003;" horiz-adv-x="1896" />
<glyph unicode="&#x2004;" horiz-adv-x="632" />
<glyph unicode="&#x2005;" horiz-adv-x="474" />
<glyph unicode="&#x2006;" horiz-adv-x="316" />
<glyph unicode="&#x2007;" horiz-adv-x="316" />
<glyph unicode="&#x2008;" horiz-adv-x="237" />
<glyph unicode="&#x2009;" horiz-adv-x="379" />
<glyph unicode="&#x200a;" horiz-adv-x="105" />
<glyph unicode="&#x2010;" horiz-adv-x="933" d="M88 522v230h756v-230h-756z" />
<glyph unicode="&#x2011;" horiz-adv-x="933" d="M88 522v230h756v-230h-756z" />
<glyph unicode="&#x2012;" horiz-adv-x="933" d="M88 522v230h756v-230h-756z" />
<glyph unicode="&#x2013;" horiz-adv-x="1187" d="M88 522v230h1012v-230h-1012z" />
<glyph unicode="&#x2014;" horiz-adv-x="1703" d="M88 522v230h1526v-230h-1526z" />
<glyph unicode="&#x2018;" horiz-adv-x="565" d="M94 1040q0 143 94.5 258t257.5 156l29 -70q-82 -27 -135 -77t-72 -121q76 -6 122 -54.5t46 -117.5q0 -74 -49 -122t-123 -48t-122 54t-48 142z" />
<glyph unicode="&#x2019;" horiz-adv-x="565" d="M90 915q170 53 207 199q-76 6 -121 54.5t-45 115.5q0 76 49 124t121 48q74 0 122 -54t48 -142q0 -143 -94 -258t-258 -156z" />
<glyph unicode="&#x201a;" horiz-adv-x="565" d="M90 -199q170 53 207 199q-76 6 -121 54t-45 116q0 76 49 124t121 48q74 0 122 -54.5t48 -142.5q0 -145 -94 -258.5t-258 -154.5z" />
<glyph unicode="&#x201c;" horiz-adv-x="972" d="M94 1040q0 143 94.5 258t257.5 156l29 -70q-82 -27 -135 -77t-72 -121q76 -6 122 -54.5t46 -117.5q0 -74 -49 -122t-123 -48t-122 54t-48 142zM502 1040q0 143 94 258t258 156l29 -70q-82 -27 -135.5 -77t-69.5 -121q74 -6 120 -54.5t46 -117.5q0 -74 -49.5 -122 t-120.5 -48q-74 0 -123 54t-49 142z" />
<glyph unicode="&#x201d;" horiz-adv-x="972" d="M90 913q82 27 135.5 77t71.5 122q-76 6 -121 54t-45 118q0 74 48 122t122 48t122 -54t48 -143q0 -143 -94 -257.5t-258 -155.5zM498 913q84 27 137 78t70 121q-74 6 -120 54t-46 118q0 74 49 122t121 48q73 0 121.5 -54t48.5 -143q0 -143 -94.5 -257.5t-258.5 -155.5z " />
<glyph unicode="&#x201e;" horiz-adv-x="972" d="M90 -199q170 53 207 199q-76 6 -121 54t-45 116q0 76 49 124t121 48q74 0 122 -54.5t48 -142.5q0 -145 -94 -258.5t-258 -154.5zM498 -199q84 27 137 77t70 122q-74 6 -120 54t-46 116q0 74 49 123t121 49q74 0 122 -54.5t48 -142.5q0 -145 -93.5 -258.5t-259.5 -154.5z " />
<glyph unicode="&#x2022;" horiz-adv-x="684" d="M94 655q0 104 72 176t176 72t176 -71.5t72 -176.5q0 -104 -72 -175.5t-176 -71.5t-176 71.5t-72 175.5z" />
<glyph unicode="&#x2026;" horiz-adv-x="1525" d="M94 174q0 72 51.5 124t122.5 52q72 0 124 -52t52 -124t-52 -123t-124 -51q-69 0 -121.5 52t-52.5 122zM588 174q0 72 51.5 124t122.5 52q72 0 124 -52t52 -124t-52 -123t-124 -51q-69 0 -121.5 52t-52.5 122zM1083 174q0 72 51.5 124t122.5 52q72 0 124 -52t52 -124 t-52 -123t-124 -51q-69 0 -121.5 52t-52.5 122z" />
<glyph unicode="&#x202f;" horiz-adv-x="379" />
<glyph unicode="&#x2039;" horiz-adv-x="645" d="M82 573l219 465h250l-195 -465l195 -464h-250z" />
<glyph unicode="&#x203a;" horiz-adv-x="645" d="M94 109l195 464l-195 465h250l219 -465l-219 -464h-250z" />
<glyph unicode="&#x205f;" horiz-adv-x="474" />
<glyph unicode="&#x20ac;" horiz-adv-x="1607" d="M45 475l55 203h101v33v61h-156l55 203h140q70 221 244.5 350t412.5 129t401.5 -113.5t214.5 -318.5l-18 -29l-283 -37q-68 219 -323 220q-109 0 -190 -53.5t-126 -147.5h385l-53 -203h-389v-70v-24h442l-53 -203h-342q43 -104 127 -160.5t207 -56.5q121 0 203 59.5 t112 169.5l283 -36l16 -29q-68 -217 -225.5 -329.5t-388.5 -112.5q-246 0 -422 133t-239 362h-191z" />
<glyph unicode="&#x2122;" horiz-adv-x="1689" d="M68 1272v162h589v-162h-202v-658h-183v658h-204zM766 614v820h184l242 -600l244 600h184v-820h-180v463h-8l-15 -98l-147 -365h-154l-149 365l-13 98h-8v-463h-180z" />
<glyph unicode="&#x25fc;" horiz-adv-x="1024" d="M0 0v1024h1024v-1024h-1024z" />
<glyph unicode="&#xfb01;" horiz-adv-x="1259" />
<glyph unicode="&#xfb02;" horiz-adv-x="1269" />
<glyph unicode="&#xfb03;" horiz-adv-x="1888" d="M55 786v238h172v168q0 162 101.5 243t251.5 81q78 0 145 -21v-223l-14 -8q-45 18 -93 18q-49 0 -77.5 -26.5t-28.5 -79.5v-152h344v168q0 162 101.5 243t250.5 81q78 0 146 -21v-223l-13 -8q-45 18 -92 18q-49 0 -77.5 -26.5t-28.5 -79.5v-152h629v-1024h-287v786h-342 v-786h-287v786h-344v-786h-285v786h-172zM1462 1303q0 68 49.5 116.5t116.5 48.5q68 0 117 -49t49 -116q0 -68 -49 -117t-117 -49q-67 0 -116.5 49t-49.5 117z" />
<glyph unicode="&#xfb04;" horiz-adv-x="1898" d="M55 786v238h172v168q0 162 101.5 243t251.5 81q78 0 145 -21v-223l-14 -8q-45 18 -93 18q-49 0 -77.5 -26.5t-28.5 -79.5v-152h344v168q0 162 101.5 243t254.5 81h560v-1516h-287v1282h-236q-106 0 -106 -106v-152h209v-238h-209v-786h-287v786h-344v-786h-285v786h-172z " />
</font>
</defs>
</svg>
