<?xml version="1.0" standalone="no"?>
<!DOCTYPE svg PUBLIC "-//W3C//DTD SVG 1.1//EN" "http://www.w3.org/Graphics/SVG/1.1/DTD/svg11.dtd" >
<svg xmlns="http://www.w3.org/2000/svg" xmlns:xlink="http://www.w3.org/1999/xlink" version="1.1">
<metadata></metadata>
<defs>
<font id="visuelt_promedium" horiz-adv-x="1183" >
<font-face units-per-em="2048" ascent="1516" descent="-532" />
<missing-glyph horiz-adv-x="430" />
<glyph horiz-adv-x="0" />
<glyph unicode="&#xd;" horiz-adv-x="430" />
<glyph unicode=" "  horiz-adv-x="430" />
<glyph unicode="&#x09;" horiz-adv-x="430" />
<glyph unicode="&#xa0;" horiz-adv-x="430" />
<glyph unicode="!" horiz-adv-x="600" d="M139 162q0 66 48.5 113t113.5 47q66 0 113 -47.5t47 -112.5q0 -66 -47 -114t-113 -48q-65 0 -113.5 48t-48.5 114zM158 1434h284l-39 -973h-204z" />
<glyph unicode="&#x22;" horiz-adv-x="790" d="M96 1434h230l-27 -521h-178zM467 1434h230l-27 -521h-178z" />
<glyph unicode="#" horiz-adv-x="1484" d="M98 383l35 186h234l51 289h-236l33 186h236l67 390h201l-68 -390h297l70 390h201l-70 -390h237l-32 -186h-238l-49 -289h238l-35 -186h-236l-67 -383h-201l68 383h-299l-66 -383h-201l66 383h-236zM567 569h299l49 289h-297z" />
<glyph unicode="$" horiz-adv-x="1275" d="M84 440l8 11l240 22q8 -104 69.5 -172t155.5 -90v481l-31 8q-170 39 -269 137.5t-99 247.5q0 154 109.5 252.5t289.5 114.5v186h162v-190q180 -20 287.5 -124.5t126.5 -270.5l-9 -13l-225 -12q-20 166 -180 207v-361q236 -49 343 -148t107 -282q0 -127 -58 -226 t-160.5 -159.5t-231.5 -74.5v-189h-162v191q-199 23 -329 145.5t-144 308.5zM393 1094q0 -57 38 -99.5t126 -74.5v323q-78 -10 -121 -50t-43 -99zM719 207q92 16 144 73.5t52 149.5q0 90 -42 140.5t-154 82.5v-446z" />
<glyph unicode="%" horiz-adv-x="1679" d="M78 1102q0 100 44 181t123 126t181 45t181 -45t123 -126t44 -181t-44 -181t-123 -126t-181 -45t-181 45t-123 125.5t-44 181.5zM233 119l1080 1304l131 -108l-1079 -1305zM244 1102q0 -92 51 -142.5t131 -50.5t131 50.5t51 142.5t-51 142t-131 50t-131 -50t-51 -142z M905 332q0 100 44 181t123 126t181 45t181 -45t123.5 -126t44.5 -181t-44.5 -181t-123 -126t-181.5 -45q-102 0 -181 45t-123 125.5t-44 181.5zM1071 332q0 -92 51.5 -142.5t130.5 -50.5q80 0 131.5 50.5t51.5 142.5t-51.5 142t-131.5 50t-131 -50t-51 -142z" />
<glyph unicode="&#x26;" horiz-adv-x="1382" d="M98 438q0 141 75 249t208 179q-86 133 -86 262q0 96 46 170t125 115t173 41q98 0 172 -37t113 -100.5t39 -138.5q0 -127 -71 -212t-208 -151l274 -340q27 102 27 240v45h215v-80q0 -227 -88 -395l234 -285h-279l-92 113q-150 -133 -381 -133q-139 0 -253 56t-178.5 160.5 t-64.5 241.5zM332 446q0 -119 78.5 -189.5t195.5 -70.5q154 0 242 84l-356 447q-86 -49 -123 -115.5t-37 -155.5zM514 1139q0 -55 14.5 -96.5t44.5 -88.5q95 41 138 90.5t43 114.5q0 47 -32 80t-85 33q-49 0 -86 -37t-37 -96z" />
<glyph unicode="'" horiz-adv-x="419" d="M96 1434h230l-27 -521h-178z" />
<glyph unicode="(" horiz-adv-x="727" d="M98 717q0 301 103.5 525t285.5 400l158 -157q-152 -166 -226.5 -349.5t-74.5 -418.5q0 -236 75 -419t226 -349l-158 -158q-182 176 -285.5 400.5t-103.5 525.5z" />
<glyph unicode=")" horiz-adv-x="727" d="M82 -51q152 166 226.5 349t74.5 419t-75 419t-226 349l158 157q182 -176 285.5 -400t103.5 -525t-103.5 -525.5t-285.5 -400.5z" />
<glyph unicode="*" horiz-adv-x="878" d="M96 1112l64 191l211 -103l-33 234h203l-33 -234l211 103l61 -191l-231 -41l162 -168l-162 -121l-111 207l-108 -207l-164 121l164 168z" />
<glyph unicode="+" horiz-adv-x="1040" d="M96 557v197h324v323h196v-323h326v-197h-326v-326h-196v326h-324z" />
<glyph unicode="," horiz-adv-x="518" d="M94 -256q74 63 116 122.5t46 133.5q-72 2 -115 49t-43 109q0 68 46 116t116 48q72 0 116 -48.5t44 -121.5q0 -139 -67.5 -245t-211.5 -208z" />
<glyph unicode="-" horiz-adv-x="913" d="M96 547v196h723v-196h-723z" />
<glyph unicode="." horiz-adv-x="518" d="M98 162q0 66 48.5 113t113.5 47q66 0 113 -47.5t47 -112.5q0 -66 -47 -114t-113 -48q-65 0 -113.5 48t-48.5 114z" />
<glyph unicode="/" horiz-adv-x="1126" d="M51 0l778 1434h246l-778 -1434h-246z" />
<glyph unicode="0" horiz-adv-x="1400" d="M98 717q0 215 73 383t210 261t319 93t318.5 -93t210.5 -261t74 -383t-74 -383t-210 -261t-319 -93q-182 0 -319 93t-210 261t-73 383zM346 717q0 -240 91 -376t263 -136t263.5 136t91.5 376t-91.5 376t-263.5 136t-263 -136.5t-91 -375.5z" />
<glyph unicode="1" horiz-adv-x="712" d="M51 1042v207h29q115 0 176 44t74 141h243v-1434h-243v1116q-47 -43 -109.5 -58.5t-169.5 -15.5z" />
<glyph unicode="2" horiz-adv-x="1193" d="M84 0v207l582 522q80 72 120.5 138.5t40.5 154.5q0 98 -63.5 156.5t-165.5 58.5q-119 0 -190.5 -70.5t-77.5 -191.5l-232 18l-6 15q10 125 75.5 227t176.5 160.5t252 58.5q135 0 242.5 -52t168 -147.5t60.5 -220.5q0 -133 -59.5 -237.5t-178.5 -206.5l-413 -365h676v-225 h-1008z" />
<glyph unicode="3" horiz-adv-x="1243" d="M66 479l12 8l217 21q10 -139 94 -225t225 -86q129 0 206 79.5t77 221.5q0 141 -94 218t-236 77h-59v194l256 234h-639v213h946v-211l-299 -258q160 -39 266.5 -156t106.5 -309q0 -147 -69.5 -266t-190.5 -186.5t-271 -67.5q-161 0 -283 66.5t-189.5 180t-75.5 252.5z" />
<glyph unicode="4" horiz-adv-x="1234" d="M78 281v225l680 928h231v-928h172v-225h-172v-281h-244v281h-667zM342 506h403v553z" />
<glyph unicode="5" horiz-adv-x="1257" d="M78 432l8 17l233 22q14 -115 89 -194.5t204 -79.5q139 0 219 81.5t80 227.5q0 145 -83 225t-212 80q-180 0 -327 -113l-174 86l92 650h844v-209h-658l-53 -301q61 39 145 64.5t174 25.5q229 0 364.5 -134.5t135.5 -365.5q0 -145 -65.5 -268t-190.5 -194.5t-291 -71.5 q-143 0 -259.5 57t-189.5 159.5t-85 235.5z" />
<glyph unicode="6" horiz-adv-x="1247" d="M98 668q0 236 67.5 414t197 275t305.5 97q188 0 309 -97t149 -265l-8 -15l-215 -22q-29 96 -87 140t-150 44q-88 0 -159 -50t-112 -145.5t-43 -224.5q66 70 154 107t190 37q133 0 242 -61.5t170 -171t61 -249.5q0 -141 -66.5 -255.5t-186 -180t-275.5 -65.5 q-119 0 -229.5 53t-180.5 145q-70 90 -101.5 210t-31.5 280zM365 475q0 -121 75.5 -204t206.5 -83q86 0 150.5 40t98.5 105.5t34 141.5t-34 141.5t-98.5 105.5t-150.5 40t-150.5 -40t-98 -105.5t-33.5 -141.5z" />
<glyph unicode="7" horiz-adv-x="1120" d="M82 1212v222h946v-183l-536 -1251h-252l524 1212h-682z" />
<glyph unicode="8" horiz-adv-x="1185" d="M98 432q0 119 58.5 214t154.5 151q-68 51 -105.5 125.5t-37.5 160.5q0 106 54 190.5t151.5 132.5t218.5 48q123 0 220 -48t151.5 -132t54.5 -191q0 -86 -38 -160.5t-106 -125.5q96 -55 154.5 -150.5t58.5 -214.5q0 -129 -60 -231.5t-173 -161.5t-262 -59 q-150 0 -262.5 59t-172 161.5t-59.5 231.5zM338 440q0 -111 72.5 -181.5t181.5 -70.5q108 0 182 71t74 181q0 111 -74 182.5t-182 71.5q-106 0 -180 -71.5t-74 -182.5zM389 1073q0 -86 56.5 -140t146.5 -54t147.5 54t57.5 140t-57.5 140.5t-147.5 54.5t-146.5 -53.5 t-56.5 -141.5z" />
<glyph unicode="9" horiz-adv-x="1247" d="M78 952q0 141 66.5 256t187.5 180.5t276 65.5q117 0 227.5 -53t182.5 -146q68 -90 99.5 -209.5t31.5 -279.5q0 -236 -67.5 -414t-195.5 -275t-304 -97q-189 0 -308.5 97t-150.5 265l6 14l215 23q29 -96 87 -140t153 -44q88 0 158.5 51t111.5 147t41 228 q-123 -135 -342 -136q-133 0 -241.5 57.5t-171 164t-62.5 245.5zM319 958q0 -76 34 -141t97.5 -105t149.5 -40t150.5 40t98.5 105.5t34 140.5q0 121 -76 204t-207 83q-86 0 -149.5 -40t-97.5 -105.5t-34 -141.5z" />
<glyph unicode=":" horiz-adv-x="518" d="M98 162q0 66 48.5 113t113.5 47q66 0 113 -47.5t47 -112.5q0 -66 -47 -114t-113 -48q-65 0 -113.5 48t-48.5 114zM98 885q0 66 48.5 113t113.5 47q66 0 113 -47.5t47 -112.5q0 -66 -47 -114t-113 -48q-65 0 -113.5 48t-48.5 114z" />
<glyph unicode=";" horiz-adv-x="522" d="M98 -256q66 55 99.5 117.5t38.5 140.5q-57 8 -95.5 54t-38.5 106q0 66 48.5 113t113.5 47q66 0 113 -48.5t47 -117.5q0 -141 -70.5 -252t-208.5 -205zM102 883q0 66 48.5 113.5t113.5 47.5q66 0 113 -48t47 -113q0 -63 -47 -111.5t-113 -48.5q-65 0 -113.5 47t-48.5 113z " />
<glyph unicode="&#x3c;" horiz-adv-x="1046" d="M125 522v185l766 421v-237l-514 -277l514 -276v-238z" />
<glyph unicode="=" horiz-adv-x="1040" d="M96 360v197h846v-197h-846zM96 756v197h846v-197h-846z" />
<glyph unicode="&#x3e;" horiz-adv-x="1046" d="M154 100v238l516 276l-516 277v237l766 -421v-185z" />
<glyph unicode="?" horiz-adv-x="1081" d="M86 1065q8 113 69.5 201t164 138t231.5 50q221 0 335.5 -97t114.5 -255q0 -106 -49 -188.5t-153 -155.5q-78 -53 -114 -104.5t-40 -125.5l-4 -67h-192l-3 55q-4 100 21 168t64.5 110t105.5 91q72 55 100.5 100t28.5 102q0 68 -57.5 114t-155.5 46q-104 0 -173 -59.5 t-77 -153.5l-209 17zM383 162q0 66 48 113t114 47t114 -47.5t48 -112.5q0 -66 -48.5 -114t-113.5 -48q-66 0 -114 48t-48 114z" />
<glyph unicode="@" horiz-adv-x="1607" d="M98 512q0 295 102.5 508t275.5 323.5t384 110.5q295 0 451.5 -143.5t156.5 -388.5v-922h-208v109q-53 -57 -134.5 -93t-185.5 -36q-131 0 -239.5 63t-173 184t-64.5 285t65.5 285t176 184t243.5 63q96 0 177 -31.5t135 -86.5q0 152 -101.5 247t-298.5 95q-133 0 -259 -73 t-210 -243t-84 -440q0 -252 79 -422t208 -252t278 -82q115 0 193 28t141 97l191 -26l2 -11q-86 -145 -208 -209.5t-323 -64.5q-192 0 -367 94t-289 306t-114 542zM674 512q0 -174 85 -260t218 -86q76 0 140.5 35t103.5 94t39 127v176q0 68 -39 128t-103.5 96t-140.5 36 q-133 0 -218 -86t-85 -260z" />
<glyph unicode="A" horiz-adv-x="1376" d="M37 0l530 1434h242l530 -1434h-268l-92 260h-584l-88 -260h-270zM473 483h428l-186 541l-23 156h-6l-24 -156z" />
<glyph unicode="B" horiz-adv-x="1323" d="M139 0v1434h578q137 0 240.5 -47.5t158.5 -130t55 -185.5q0 -106 -45 -178t-129 -121v-8q109 -35 182.5 -125t73.5 -219q0 -125 -62.5 -220.5t-178 -147.5t-271.5 -52h-602zM395 225h387q102 0 162 50.5t60 146.5t-59.5 147.5t-162.5 51.5h-387v-396zM395 846h328 q209 0 209 182q0 180 -209 180h-328v-362z" />
<glyph unicode="C" horiz-adv-x="1570" d="M98 717q0 217 97.5 385t263.5 260t364 92q172 0 308.5 -60.5t223.5 -170t118 -250.5l-9 -17l-239 -18q-39 135 -145.5 211t-260.5 76q-139 0 -244.5 -64.5t-162 -180.5t-56.5 -263t57.5 -263t163 -180.5t246.5 -64.5q152 0 256.5 75.5t145.5 211.5l237 -19l11 -16 q-57 -225 -228.5 -353t-421.5 -128q-198 0 -364 92t-263.5 260t-97.5 385z" />
<glyph unicode="D" horiz-adv-x="1458" d="M139 0v1434h463q231 0 402.5 -87t263.5 -249t92 -381t-92 -381t-263 -249t-403 -87h-463zM395 225h199q242 0 376 124t134 368t-134 367.5t-376 123.5h-199v-983z" />
<glyph unicode="E" horiz-adv-x="1179" d="M139 0v1434h905v-226h-649v-379h594v-225h-594v-379h672v-225h-928z" />
<glyph unicode="F" horiz-adv-x="1155" d="M139 0v1434h930v-226h-674v-397h621v-223h-621v-588h-256z" />
<glyph unicode="G" horiz-adv-x="1581" d="M98 717q0 213 95.5 381t261.5 262t368 94q246 0 418 -125t221 -340l-8 -14l-237 -19q-43 131 -142.5 202t-253.5 71q-137 0 -243.5 -65.5t-164 -181.5t-57.5 -265q0 -150 57.5 -265.5t164 -180t247.5 -64.5q178 0 282.5 95t125.5 267h-535v209h785v-116 q0 -199 -81 -353.5t-229.5 -241.5t-347.5 -87q-200 0 -367 94t-263.5 262t-96.5 381z" />
<glyph unicode="H" horiz-adv-x="1394" d="M139 0v1434h256v-605h604v605h256v-1434h-256v604h-604v-604h-256z" />
<glyph unicode="I" horiz-adv-x="534" d="M139 0v1434h256v-1434h-256z" />
<glyph unicode="J" horiz-adv-x="1110" d="M59 422l11 12l233 19q2 -127 55.5 -191.5t153.5 -64.5t151.5 61t51.5 178v998h256v-977q0 -223 -120 -350t-339 -127q-137 0 -238.5 58t-156 158.5t-58.5 225.5z" />
<glyph unicode="K" horiz-adv-x="1290" d="M139 0v1434h256v-594h6l510 594h297l-581 -672l606 -762h-322l-510 651h-6v-651h-256z" />
<glyph unicode="L" horiz-adv-x="1208" d="M139 0v1434h256v-1209h703v-225h-959z" />
<glyph unicode="M" horiz-adv-x="1677" d="M139 0v1434h256l443 -1119l444 1119h256v-1434h-246v899h-8l-10 -90l-318 -809h-235l-318 809l-10 90h-8v-899h-246z" />
<glyph unicode="N" horiz-adv-x="1425" d="M139 0v1434h281l592 -998l12 -57h6v1055h256v-1434h-280l-592 997l-13 58h-6v-1055h-256z" />
<glyph unicode="O" horiz-adv-x="1644" d="M98 717q0 215 95.5 383t260 261t367.5 93q205 0 370 -93t260 -261t95 -383t-95 -383t-260 -261t-370 -93q-203 0 -367.5 93t-260 261t-95.5 383zM356 717q0 -150 57.5 -264.5t163 -179t244.5 -64.5q140 0 245 64.5t162.5 179t57.5 264.5t-57.5 264.5t-162.5 179 t-245 64.5q-139 0 -244.5 -64.5t-163 -179.5t-57.5 -264z" />
<glyph unicode="P" horiz-adv-x="1318" d="M139 0v1434h533q164 0 287.5 -57.5t192.5 -166t69 -256.5q0 -150 -69 -258t-192.5 -165.5t-287.5 -57.5h-277v-473h-256zM395 698h269q301 0 301 256q0 254 -301 254h-269v-510z" />
<glyph unicode="Q" horiz-adv-x="1644" d="M98 717q0 215 95.5 383t260 261t367.5 93q205 0 370 -93t260 -261t95 -383q0 -178 -77.5 -339t-210 -264.5t-285.5 -117.5v-10q27 -59 108.5 -106.5t175.5 -59.5v-10l-81 -179q-105 13 -202 62t-166 126t-89 169q-178 20 -319.5 117.5t-221.5 255t-80 356.5zM356 717 q0 -150 57.5 -264.5t163 -179t244.5 -64.5q140 0 245 64.5t162.5 179t57.5 264.5t-57.5 264.5t-162.5 179t-245 64.5q-139 0 -244.5 -64.5t-163 -179.5t-57.5 -264z" />
<glyph unicode="R" horiz-adv-x="1316" d="M139 0v1434h498q164 0 285.5 -57.5t188.5 -163t67 -246.5q0 -137 -63.5 -235.5t-184.5 -170.5v-10l321 -551h-286l-289 506h-281v-506h-256zM395 731h260q123 0 195 62.5t72 177.5q0 113 -71 175t-196 62h-260v-477z" />
<glyph unicode="S" horiz-adv-x="1275" d="M84 440l8 11l240 22q12 -129 99 -200.5t214 -71.5q119 0 194.5 60.5t75.5 170.5q0 115 -81.5 172.5t-268.5 97.5q-205 47 -316.5 136.5t-111.5 248.5q0 111 61.5 194t168 128t239.5 45q219 0 349 -108.5t151 -292.5l-10 -13l-226 -12q-14 109 -81.5 165t-184.5 56 q-98 0 -159.5 -41t-61.5 -106q0 -84 79 -127t265 -88q209 -49 325.5 -151.5t116.5 -289.5q0 -141 -69.5 -246.5t-191.5 -162.5t-271 -57q-145 0 -268 57t-199 161.5t-86 241.5z" />
<glyph unicode="T" horiz-adv-x="1120" d="M70 1208v226h981v-226h-363v-1208h-256v1208h-362z" />
<glyph unicode="U" horiz-adv-x="1384" d="M139 535v899h256v-895q0 -160 75 -245t222 -85t222 85t75 245v895h256v-899q0 -164 -65.5 -290t-190.5 -195.5t-297 -69.5t-297 69.5t-190.5 195.5t-65.5 290z" />
<glyph unicode="V" horiz-adv-x="1314" d="M29 1434h278l316 -971l32 -178h4l33 178l316 971h278l-489 -1434h-279z" />
<glyph unicode="W" horiz-adv-x="2023" d="M29 1434h272l250 -951l33 -184h6l28 184l267 951h254l264 -951l31 -184h6l30 184l252 951h273l-416 -1434h-272l-295 1087l-295 -1087h-273z" />
<glyph unicode="X" horiz-adv-x="1290" d="M29 0l479 786l-379 648h274l242 -437l242 437h276l-379 -648l478 -786h-281l-336 569l-334 -569h-282z" />
<glyph unicode="Y" d="M31 1434h274l256 -555l27 -156h8l27 156l256 555h274l-434 -918v-516h-256v516z" />
<glyph unicode="Z" horiz-adv-x="1220" d="M82 0v223l715 985h-678v226h983v-183l-740 -1026h764v-225h-1044z" />
<glyph unicode="[" horiz-adv-x="602" d="M98 -410v1844h443v-205h-215v-1434h215v-205h-443z" />
<glyph unicode="\" horiz-adv-x="1128" d="M51 1434h246l778 -1434h-246z" />
<glyph unicode="]" horiz-adv-x="602" d="M61 -205h215v1434h-215v205h443v-1844h-443v205z" />
<glyph unicode="^" horiz-adv-x="1150" d="M84 840l391 594h199l393 -594h-254l-238 379l-237 -379h-254z" />
<glyph unicode="_" horiz-adv-x="1032" d="M47 -20h940v-197h-940v197z" />
<glyph unicode="`" horiz-adv-x="557" d="M61 1440h273l162 -285h-207z" />
<glyph unicode="a" horiz-adv-x="1150" d="M82 285q0 141 97 224t257 99l297 31v55q0 80 -53 122t-143 42q-80 0 -130.5 -39t-64.5 -114l-203 10l-10 8q29 156 143.5 238.5t272.5 82.5q186 0 301 -93t115 -255v-420q0 -102 81 -102q18 0 45 6l7 -4v-168q-63 -20 -129 -20q-74 0 -132.5 34.5t-84.5 114.5h-7 q-66 -72 -150.5 -114.5t-182.5 -42.5q-140 0 -233 82.5t-93 222.5zM305 297q0 -61 41 -94t105 -33q81 0 149 40t133 116v149l-266 -31q-80 -10 -121 -50t-41 -97z" />
<glyph unicode="b" horiz-adv-x="1245" d="M131 0v1495h234v-573q61 57 144 89.5t183 32.5q131 0 238.5 -62t172 -183t64.5 -287t-66.5 -287t-176 -183t-232.5 -62q-198 0 -327 133v-113h-234zM365 436q0 -72 37.5 -130t101 -92t135.5 -34q129 0 211 85t82 247t-82 247t-211 85q-74 0 -137.5 -34t-100 -93.5 t-36.5 -130.5v-150z" />
<glyph unicode="c" horiz-adv-x="1171" d="M78 512q0 156 68.5 276.5t188.5 188t267 67.5q201 0 332 -102t160 -285l-7 -10l-204 -12q-23 94 -94.5 148.5t-184.5 54.5q-131 0 -214 -86t-83 -240t83 -240t214 -86q113 0 182.5 52.5t96.5 150.5l204 -12l7 -10q-37 -184 -166 -285.5t-326 -101.5q-147 0 -267 67.5 t-188.5 188t-68.5 276.5z" />
<glyph unicode="d" horiz-adv-x="1245" d="M78 512q0 166 65.5 287t177 183t244.5 62q94 0 175 -30.5t141 -85.5v567h233v-1495h-233v111q-123 -131 -322 -131q-123 0 -233.5 63t-179 184t-68.5 285zM313 512q0 -162 82 -247t211 -85q113 0 194 74t81 182v150q0 109 -81 183.5t-196 74.5q-127 0 -209 -85t-82 -247z " />
<glyph unicode="e" horiz-adv-x="1155" d="M78 512q0 156 70.5 276.5t187.5 188t254 67.5q145 0 259 -62t177.5 -181t63.5 -281v-71h-785q8 -125 87 -198t202 -73q104 0 172 48t96 132l205 -12l6 -10q-49 -172 -173 -264t-310 -92q-152 0 -268.5 66.5t-180 187t-63.5 278.5zM309 618h559q-10 111 -86.5 173.5 t-191.5 62.5q-106 0 -183 -62.5t-98 -173.5z" />
<glyph unicode="f" horiz-adv-x="743" d="M55 823v201h174v180q0 156 91.5 234t230.5 78q68 0 137 -21v-192l-6 -5q-55 18 -104 19q-53 0 -83 -28.5t-30 -86.5v-178h219v-201h-219v-823h-236v823h-174z" />
<glyph unicode="g" horiz-adv-x="1224" d="M78 522q0 158 66.5 277t176 182t238.5 63q186 0 307 -120v100h228v-1001q0 -211 -130 -332t-366 -121q-201 0 -316.5 88t-140.5 225l11 11l229 14q16 -66 69.5 -103.5t149.5 -37.5q135 0 200.5 69.5t65.5 188.5v94q-68 -61 -138.5 -90t-170.5 -29q-133 0 -242.5 63.5 t-173 181t-63.5 277.5zM305 522q0 -166 81 -245.5t208 -79.5q123 0 197.5 73.5t74.5 190.5v119q0 117 -78.5 192.5t-193.5 75.5q-127 0 -208 -80t-81 -246z" />
<glyph unicode="h" horiz-adv-x="1210" d="M131 0v1495h234v-600q61 63 158.5 106t203.5 43q164 0 262 -93t98 -253v-698h-233v645q0 94 -55.5 144.5t-145.5 50.5q-82 0 -158.5 -44t-129.5 -118v-678h-234z" />
<glyph unicode="i" horiz-adv-x="487" d="M98 1303q0 59 43 102t103 43q59 0 102 -43t43 -102t-43 -102.5t-102 -43.5q-60 0 -103 43t-43 103zM127 0v1024h233v-1024h-233z" />
<glyph unicode="j" horiz-adv-x="491" d="M-74 -207l11 6q23 -8 48 -14t52 -6q94 0 94 104v1141h234v-1163q0 -145 -77 -218t-212 -73q-74 0 -150 20v203zM102 1303q0 59 43 102t103 43q59 0 102 -43t43 -102t-43 -102.5t-102 -43.5q-60 0 -103 43t-43 103z" />
<glyph unicode="k" horiz-adv-x="1054" d="M131 0v1495h234v-823h8l325 352h287l-424 -455l457 -569h-285l-360 444h-8v-444h-234z" />
<glyph unicode="l" horiz-adv-x="495" d="M131 0v1495h234v-1495h-234z" />
<glyph unicode="m" horiz-adv-x="1699" d="M131 0v1024h234v-121q129 141 307 141q96 0 157.5 -36.5t98.5 -108.5q150 145 334 145q154 0 234.5 -81.5t80.5 -221.5v-741h-234v682q0 74 -36.5 116t-112.5 42q-133 0 -223 -138v-702h-234v678q0 76 -35.5 119t-109.5 43q-66 0 -124 -42t-103 -110v-688h-234z" />
<glyph unicode="n" d="M131 0v1024h234v-133q63 66 154 109.5t196 43.5q164 0 255 -93t91 -246v-705h-234v645q0 94 -48 144.5t-140 50.5q-78 0 -150.5 -48.5t-123.5 -123.5v-668h-234z" />
<glyph unicode="o" horiz-adv-x="1239" d="M78 512q0 152 68.5 272.5t192.5 190t282 69.5t280.5 -69.5t191 -190t68.5 -272.5t-68.5 -272.5t-191.5 -190t-280 -69.5q-158 0 -282 69.5t-192.5 190t-68.5 272.5zM311 512q0 -152 87 -239t223 -87q135 0 221 87t86 239t-86 239t-221 87t-222.5 -87t-87.5 -239z" />
<glyph unicode="p" horiz-adv-x="1245" d="M131 -410v1434h234v-113q129 133 327 133q123 0 232.5 -62t176 -183t66.5 -287t-66.5 -287t-178 -183t-244.5 -62q-92 0 -175 30.5t-138 85.5v-506h-234zM365 438q0 -72 36.5 -131t100 -93t137.5 -34q129 0 211 85t82 247t-82 247t-211 85q-113 0 -193.5 -74t-80.5 -182 v-150z" />
<glyph unicode="q" horiz-adv-x="1245" d="M78 512q0 164 67.5 285t178 184t233.5 63q109 0 190.5 -36.5t133.5 -94.5v111h233v-1434h-233v506q-59 -55 -141.5 -85.5t-176.5 -30.5q-133 0 -243.5 62t-176 183t-65.5 287zM313 512q0 -162 82 -247t209 -85q115 0 196 75t81 183v150q0 109 -81 182.5t-194 73.5 q-129 0 -211 -85t-82 -247z" />
<glyph unicode="r" horiz-adv-x="804" d="M131 0v1024h234v-127q129 147 294 147q55 0 89 -16l-31 -188l-8 -6q-25 6 -68 6q-86 0 -157.5 -49.5t-118.5 -141.5v-649h-234z" />
<glyph unicode="s" horiz-adv-x="968" d="M61 301l5 12l194 33q20 -84 75.5 -129t164.5 -45q74 0 124 33t50 90t-57.5 91t-202.5 71q-158 39 -236 111.5t-78 191.5q0 78 45 143.5t127 103t187 37.5q166 0 268 -76.5t123 -219.5l-4 -11l-199 -26q-14 76 -64.5 115.5t-125.5 39.5q-59 0 -103.5 -24.5t-44.5 -71.5 q0 -49 59.5 -82t209.5 -74q162 -43 239.5 -112.5t77.5 -186.5q0 -94 -49 -170.5t-140.5 -120.5t-209.5 -44q-181 0 -293.5 85t-141.5 236z" />
<glyph unicode="t" horiz-adv-x="778" d="M47 823v201h191v301h18l217 -76v-225h229v-201h-229v-538q0 -51 29.5 -79t87.5 -28q47 0 96 12l6 -4v-186q-84 -20 -172 -20q-131 0 -206.5 72.5t-75.5 211.5v559h-191z" />
<glyph unicode="u" d="M123 334v690h233v-645q0 -94 50.5 -144.5t142.5 -50.5q80 0 149.5 47.5t120.5 124.5v668h234v-1024h-234v131q-61 -68 -151 -109.5t-197 -41.5q-166 0 -257 95t-91 259z" />
<glyph unicode="v" horiz-adv-x="1126" d="M41 1024h252l233 -627l33 -176h8l33 176l234 627h251l-393 -1024h-256z" />
<glyph unicode="w" horiz-adv-x="1597" d="M41 1024h244l166 -592l26 -172h4l29 172l178 592h223l174 -592l31 -172h4l27 172l168 592h241l-305 -1024h-252l-200 741l-199 -741h-252z" />
<glyph unicode="x" horiz-adv-x="1048" d="M31 0l356 561l-317 463h266l188 -287l189 287h266l-317 -463l358 -561h-264l-232 377l-231 -377h-262z" />
<glyph unicode="y" horiz-adv-x="1132" d="M41 1024h258l244 -580l16 -137h10l279 717h244l-576 -1434h-240l179 445z" />
<glyph unicode="z" horiz-adv-x="942" d="M76 0v170l506 655h-482v199h764v-162l-508 -663h508v-199h-788z" />
<glyph unicode="{" horiz-adv-x="753" d="M70 412v200h34q82 0 120 41t38 148v356q0 276 275 277h118v-205h-41q-66 0 -95.5 -34t-29.5 -101v-373q0 -164 -135 -209q135 -45 135 -209v-373q0 -68 30 -101.5t95 -33.5h41v-205h-118q-275 1 -275 277v356q0 106 -38 147.5t-120 41.5h-34z" />
<glyph unicode="|" horiz-adv-x="499" d="M139 -246v1680h221v-1680h-221z" />
<glyph unicode="}" horiz-adv-x="753" d="M98 -205h43q125 0 125 135v373q0 166 135 209q-135 43 -135 209v373q0 135 -125 135h-43v205h119q276 0 277 -277v-356q0 -106 36.5 -147.5t118.5 -41.5h35v-200h-35q-82 0 -118.5 -41t-36.5 -148v-356q0 -276 -277 -277h-119v205z" />
<glyph unicode="~" horiz-adv-x="1019" d="M96 561q2 133 69.5 208t174.5 75q66 0 109 -17.5t98 -50.5q37 -23 62.5 -34t54.5 -11q39 0 59 27.5t25 70.5h176q-2 -133 -70 -207.5t-174 -74.5q-66 0 -109 17.5t-98 49.5q-37 23 -62.5 34t-54.5 11q-39 0 -59.5 -27.5t-24.5 -70.5h-176z" />
<glyph unicode="&#xa1;" horiz-adv-x="600" d="M139 862q0 66 48.5 114t113.5 48q66 0 113 -48t47 -114q0 -63 -47 -111.5t-113 -48.5t-114 47.5t-48 112.5zM158 -410l41 973h204l39 -973h-284z" />
<glyph unicode="&#xa2;" horiz-adv-x="1171" d="M78 512q0 141 57.5 254t157.5 184.5t227 87.5v211h162v-209q170 -20 277.5 -120.5t134.5 -262.5l-7 -10l-204 -12q-16 76 -68.5 127t-132.5 67v-634q156 31 201 194l204 -12l7 -10q-33 -166 -139.5 -264.5t-272.5 -118.5v-189h-162v191q-127 16 -227 87.5t-157.5 184.5 t-57.5 254zM307 512q0 -127 57.5 -209t155.5 -106v630q-98 -25 -155.5 -106.5t-57.5 -208.5z" />
<glyph unicode="&#xa3;" horiz-adv-x="1214" d="M106 582v196h119q-39 76 -58.5 135.5t-19.5 133.5q0 117 59.5 210t166 145t241.5 52q223 0 353.5 -105.5t144.5 -297.5l-12 -15l-221 -12q-12 102 -86 156.5t-177 54.5q-109 0 -172 -58.5t-63 -148.5q0 -61 19.5 -109.5t68.5 -140.5h436v-196h-362q6 -31 6 -64 q0 -174 -131 -295h672v-223h-957v193q92 78 136 144t44 159q0 41 -10 86h-197z" />
<glyph unicode="&#xa4;" horiz-adv-x="1161" d="M115 272l137 140q-53 88 -53 202q0 115 53 203l-137 139l123 123l137 -135q96 53 205 53q113 0 204 -53l138 135l125 -123l-140 -139q55 -86 56 -203q0 -117 -56 -202l140 -140l-125 -122l-138 135q-92 -53 -204 -54q-109 0 -205 54l-137 -135zM375 614 q0 -102 58.5 -157.5t146.5 -55.5t147 55.5t59 157.5t-59 157.5t-147 55.5t-146.5 -55t-58.5 -158z" />
<glyph unicode="&#xa5;" horiz-adv-x="1224" d="M31 1434h274l277 -527l26 -116h8l27 116l277 527h274l-356 -643h192v-185h-291v-106h291v-185h-291v-315h-256v315h-288v185h288v106h-288v185h190z" />
<glyph unicode="&#xa6;" horiz-adv-x="499" d="M139 -246v721h221v-721h-221zM139 713v721h221v-721h-221z" />
<glyph unicode="&#xa7;" horiz-adv-x="1232" d="M78 518q0 125 66.5 217t177.5 135q-129 86 -129 238q0 102 58 181t154.5 122t208.5 43q205 0 320 -97t133 -261l-10 -11l-217 -14q-6 86 -67.5 134t-156.5 48q-86 0 -139 -37.5t-53 -99.5q0 -74 70.5 -116t250.5 -78q410 -84 410 -416q0 -123 -68.5 -214t-175.5 -136 q129 -90 129 -244q0 -100 -58 -178t-154.5 -121t-209.5 -43q-204 0 -319 97t-133 261l10 11l215 14q8 -86 68.5 -134t154.5 -48q88 0 141.5 37.5t53.5 99.5q0 55 -30.5 89t-98.5 58.5t-193 46.5q-186 33 -297.5 142.5t-111.5 273.5zM317 532q0 -123 96.5 -192.5t245.5 -69.5 q113 0 184.5 59.5t71.5 170.5q0 117 -99 185.5t-247 68.5q-106 0 -179 -59.5t-73 -162.5z" />
<glyph unicode="&#xa8;" horiz-adv-x="745" d="M61 1300q0 53 39 91.5t90 38.5q53 0 91 -38t38 -92q0 -51 -37.5 -90t-91.5 -39q-51 0 -90 39t-39 90zM426 1300q0 53 39 91.5t90 38.5q53 0 91 -38t38 -92q0 -51 -38 -90t-91 -39q-51 0 -90 39t-39 90z" />
<glyph unicode="&#xa9;" horiz-adv-x="1671" d="M98 717q0 201 97.5 369.5t266.5 268t374 99.5t373.5 -99.5t266 -268t97.5 -369.5t-97.5 -370t-266.5 -268t-373 -99q-205 0 -374 99t-266.5 268t-97.5 370zM262 717q0 -158 76 -292t208 -212t290 -78q157 0 289 78t208 212t76 292t-76 292t-208 211.5t-289 77.5 q-158 0 -290 -77.5t-208 -212t-76 -291.5zM432 717q0 121 52.5 215t144.5 146t207 52q150 0 251 -76.5t123 -209.5l-4 -4l-141 -15q-23 78 -80 120t-147 42q-111 0 -181.5 -73.5t-70.5 -196.5t70.5 -197t181.5 -74q90 0 145 40t84 124l139 -16l2 -6q-35 -139 -130 -212 t-242 -73q-115 0 -207 52.5t-144.5 146.5t-52.5 215z" />
<glyph unicode="&#xaa;" horiz-adv-x="933" d="M78 854q0 111 76.5 177.5t201.5 78.5l236 25v45q0 63 -42 96t-114 33q-63 0 -103 -32t-50 -91l-154 8l-14 6q23 123 113.5 188.5t213.5 65.5q147 0 237.5 -73.5t90.5 -198.5v-334q0 -80 66 -80q14 0 34 6l4 -18v-119q-51 -16 -100 -16q-133 0 -170 118h-6 q-111 -125 -264 -125q-111 0 -183.5 65.5t-72.5 174.5zM254 864q0 -47 31.5 -73.5t83.5 -26.5q119 0 223 123v119l-211 -25q-61 -8 -94 -40t-33 -77z" />
<glyph unicode="&#xab;" horiz-adv-x="983" d="M86 573l215 457h213l-190 -457l190 -456h-213zM457 573l215 457h213l-193 -457l193 -456h-213z" />
<glyph unicode="&#xac;" horiz-adv-x="911" d="M96 641v188h719v-438h-213v250h-506z" />
<glyph unicode="&#xad;" horiz-adv-x="913" d="M96 547v196h723v-196h-723z" />
<glyph unicode="&#xae;" horiz-adv-x="1671" d="M98 717q0 201 97.5 369.5t266.5 268t374 99.5t373.5 -99.5t266 -268t97.5 -369.5t-97.5 -370t-266.5 -268t-373 -99q-205 0 -374 99t-266.5 268t-97.5 370zM262 717q0 -158 76 -292t208 -212t290 -78q157 0 289 78t208 212t76 292t-76 292t-208 211.5t-289 77.5 q-158 0 -290 -77.5t-208 -212t-76 -291.5zM561 299v836h268q150 0 231 -73t81 -196q0 -80 -39 -137t-113 -98v-6l166 -326h-156l-151 303h-141v-303h-146zM707 731h127q162 0 161 137q0 137 -161 138h-127v-275z" />
<glyph unicode="&#xaf;" horiz-adv-x="632" d="M61 1210v172h510v-172h-510z" />
<glyph unicode="&#xb0;" horiz-adv-x="696" d="M78 1184q0 74 36 136t98 98t136 36t136.5 -36t98 -98.5t35.5 -135.5q0 -74 -35.5 -136.5t-98 -98.5t-136.5 -36t-136 36t-98 98.5t-36 136.5zM219 1184q0 -51 39 -90t90 -39q53 0 91 39t38 90q0 53 -38 91t-91 38q-51 0 -90 -38t-39 -91z" />
<glyph unicode="&#xb1;" horiz-adv-x="1040" d="M96 0v197h846v-197h-846zM96 674v197h324v323h196v-323h326v-197h-326v-326h-196v326h-324z" />
<glyph unicode="&#xb2;" horiz-adv-x="681" d="M72 1489q4 104 75.5 172.5t188.5 68.5q121 0 193.5 -59t72.5 -164q0 -68 -32.5 -124t-102.5 -122l-168 -155h313v-144h-538v129l297 279q35 33 51 60.5t16 64.5q0 41 -28.5 66.5t-73.5 25.5q-47 0 -76 -31.5t-33 -83.5l-151 9z" />
<glyph unicode="&#xb3;" horiz-adv-x="718" d="M70 1216l6 9l151 8q4 -63 39 -100t96 -37q59 0 93 36.5t34 94.5q0 61 -41.5 97t-111.5 36h-55v121l137 108h-312v131h502v-129l-155 -121q88 -20 142 -79.5t54 -163.5q0 -117 -82 -196t-202 -79q-132 0 -210.5 76t-84.5 188z" />
<glyph unicode="&#xb4;" horiz-adv-x="557" d="M61 1155l162 285h273l-230 -285h-205z" />
<glyph unicode="&#xb5;" horiz-adv-x="1191" d="M131 -410v1434h234v-645q0 -94 50 -144.5t142 -50.5q80 0 149.5 47.5t120.5 124.5v668h234v-1024h-234v131q-61 -68 -151 -109.5t-197 -41.5q-66 0 -114 28v-418h-234z" />
<glyph unicode="&#xb6;" horiz-adv-x="1292" d="M98 1044q0 182 120 286t323 104h612v-1844h-229v1643h-131v-1643h-232v1065h-20q-203 0 -323 103.5t-120 285.5z" />
<glyph unicode="&#xb7;" horiz-adv-x="518" d="M98 717q0 66 48.5 113t113.5 47q66 0 113 -47.5t47 -112.5q0 -66 -47 -114t-113 -48q-65 0 -113.5 48t-48.5 114z" />
<glyph unicode="&#xb8;" horiz-adv-x="544" d="M61 -272l5 10l137 6q18 -33 67 -33q29 0 44.5 14.5t15.5 41.5t-16.5 41t-45.5 14q-45 0 -80 -35l-118 20l-2 9l106 235h160l-101 -160q45 20 91 21q72 0 115.5 -39t43.5 -109q0 -86 -58 -133t-155 -47q-88 0 -142 41t-67 103z" />
<glyph unicode="&#xb9;" horiz-adv-x="475" d="M70 1466v158h16q127 0 141 96h170v-758h-170v543q-49 -39 -157 -39z" />
<glyph unicode="&#xba;" horiz-adv-x="1011" d="M78 1034q0 121 54 216.5t151.5 149.5t222.5 54t222 -54t151.5 -150.5t54.5 -215.5t-54.5 -215t-152.5 -150.5t-221 -54.5q-125 0 -222.5 54.5t-151.5 150.5t-54 215zM262 1034q0 -121 68.5 -188.5t175.5 -67.5q106 0 174 67.5t68 188.5t-68 188.5t-174 67.5t-175 -67.5 t-69 -188.5z" />
<glyph unicode="&#xbb;" horiz-adv-x="983" d="M98 117l191 456l-191 457h213l215 -457l-215 -456h-213zM469 117l190 456l-190 457h211l217 -457l-217 -456h-211z" />
<glyph unicode="&#xbc;" horiz-adv-x="1601" d="M70 1179v158h16q127 0 141 96h170v-758h-170v543q-49 -39 -157 -39zM147 119l1080 1304l131 -108l-1080 -1305zM936 134v145l360 479h158v-479h92v-145h-92v-134h-164v134h-354zM1099 279h191v256z" />
<glyph unicode="&#xbd;" horiz-adv-x="1650" d="M70 1179v158h16q127 0 141 96h170v-758h-170v543q-49 -39 -157 -39zM147 119l1080 1304l131 -108l-1080 -1305zM1041 527q4 104 75.5 172.5t188.5 68.5q121 0 193.5 -59t72.5 -164q0 -68 -32.5 -124t-102.5 -122l-168 -155h313v-144h-538v129l297 279q35 33 51 60.5 t16 64.5q0 41 -28.5 66.5t-73.5 25.5q-47 0 -76 -31.5t-33 -83.5l-151 9z" />
<glyph unicode="&#xbe;" horiz-adv-x="1804" d="M70 929l6 9l151 8q4 -63 39 -100t96 -37q59 0 93 36.5t34 94.5q0 61 -41.5 97t-111.5 36h-55v121l137 108h-312v131h502v-129l-155 -121q88 -20 142 -79.5t54 -163.5q0 -117 -82 -196t-202 -79q-132 0 -210.5 76t-84.5 188zM350 119l1080 1304l131 -108l-1080 -1305z M1139 134v145l360 479h158v-479h92v-145h-92v-134h-164v134h-354zM1302 279h191v256z" />
<glyph unicode="&#xbf;" horiz-adv-x="1081" d="M80 -78q0 106 49 188.5t154 155.5q78 53 113.5 104.5t39.5 125.5l2 67h195l2 -55q4 -100 -20.5 -168t-64.5 -110t-106 -91q-72 -55 -100.5 -100t-28.5 -102q0 -68 57.5 -114t155.5 -46q104 0 173 59.5t77 153.5l207 -17l10 -14q-8 -113 -69.5 -201t-165 -138t-232.5 -50 q-219 0 -333.5 97t-114.5 255zM375 862q0 66 48 114t114 48q65 0 112 -48t47 -114q0 -63 -47 -111.5t-112 -48.5q-66 0 -114 47.5t-48 112.5z" />
<glyph unicode="&#xc0;" horiz-adv-x="1376" d="M37 0l530 1434h242l530 -1434h-268l-92 260h-584l-88 -260h-270zM354 1849h272l162 -284h-207zM473 483h428l-186 541l-23 156h-6l-24 -156z" />
<glyph unicode="&#xc1;" horiz-adv-x="1376" d="M37 0l530 1434h242l530 -1434h-268l-92 260h-584l-88 -260h-270zM473 483h428l-186 541l-23 156h-6l-24 -156zM576 1565l162 284h272l-229 -284h-205z" />
<glyph unicode="&#xc2;" horiz-adv-x="1376" d="M37 0l530 1434h242l530 -1434h-268l-92 260h-584l-88 -260h-270zM374 1565l228 284h170l227 -284h-193l-120 123l-121 -123h-191zM473 483h428l-186 541l-23 156h-6l-24 -156z" />
<glyph unicode="&#xc3;" horiz-adv-x="1376" d="M37 0l530 1434h242l530 -1434h-268l-92 260h-584l-88 -260h-270zM309 1581q8 133 77 199.5t159 66.5q63 0 101 -17.5t77 -49.5q25 -20 46.5 -31.5t47.5 -11.5q72 0 90 100h160q-8 -133 -76.5 -199.5t-159.5 -66.5q-63 0 -101 17.5t-77 49.5q-25 20 -46 31.5t-48 11.5 q-72 0 -90 -100h-160zM473 483h428l-186 541l-23 156h-6l-24 -156z" />
<glyph unicode="&#xc4;" horiz-adv-x="1376" d="M37 0l530 1434h242l530 -1434h-268l-92 260h-584l-88 -260h-270zM361 1712q0 53 40 93t95 40q53 0 94 -40t41 -93t-41 -93t-94 -40q-55 0 -95 40t-40 93zM473 483h428l-186 541l-23 156h-6l-24 -156zM746 1712q0 53 40 93t95 40q53 0 94 -40t41 -93t-41 -93t-94 -40 q-55 0 -95 40t-40 93z" />
<glyph unicode="&#xc5;" horiz-adv-x="1376" d="M37 0l530 1434h242l530 -1434h-268l-92 260h-584l-88 -260h-270zM473 483h428l-186 541l-23 156h-6l-24 -156zM494 1696q0 80 56.5 137t137.5 57q80 0 136.5 -57t56.5 -137t-56.5 -137.5t-136.5 -57.5q-81 0 -137.5 57.5t-56.5 137.5zM615 1696q0 -33 20.5 -53.5 t52.5 -20.5q31 0 52.5 20.5t21.5 53.5t-21.5 53t-52.5 20q-33 0 -53 -20t-20 -53z" />
<glyph unicode="&#xc6;" horiz-adv-x="1982" d="M37 0l768 1434h1042v-226h-649v-379h594v-225h-594v-375h672v-229h-928v260h-481l-137 -260h-287zM580 483h362v729h-8l-45 -147z" />
<glyph unicode="&#xc7;" horiz-adv-x="1570" d="M98 717q0 217 97.5 385t263.5 260t364 92q172 0 308.5 -60.5t223.5 -170t118 -250.5l-9 -17l-239 -18q-39 135 -145.5 211t-260.5 76q-139 0 -244.5 -64.5t-162 -180.5t-56.5 -263t57.5 -263t163 -180.5t246.5 -64.5q152 0 256.5 75.5t145.5 211.5l237 -19l11 -16 q-55 -219 -218 -346t-403 -135l-55 -89q45 20 90 21q72 0 116 -39t44 -109q0 -86 -58.5 -133t-154.5 -47q-88 0 -142.5 41t-66.5 103l4 10l137 6q18 -33 68 -33q29 0 44 14.5t15 41.5t-16.5 41t-45.5 14q-45 0 -79 -35l-119 20l-2 9l78 172q-172 27 -311.5 124t-219.5 253.5 t-80 351.5z" />
<glyph unicode="&#xc8;" horiz-adv-x="1179" d="M139 0v1434h905v-226h-649v-379h594v-225h-594v-379h672v-225h-928zM268 1849h272l162 -284h-207z" />
<glyph unicode="&#xc9;" horiz-adv-x="1179" d="M139 0v1434h905v-226h-649v-379h594v-225h-594v-379h672v-225h-928zM490 1565l162 284h272l-229 -284h-205z" />
<glyph unicode="&#xca;" horiz-adv-x="1179" d="M139 0v1434h905v-226h-649v-379h594v-225h-594v-379h672v-225h-928zM290 1565l228 284h170l227 -284h-193l-120 123l-121 -123h-191z" />
<glyph unicode="&#xcb;" horiz-adv-x="1179" d="M139 0v1434h905v-226h-649v-379h594v-225h-594v-379h672v-225h-928zM277 1712q0 53 40 93t95 40q53 0 94 -40t41 -93t-41 -93t-94 -40q-55 0 -95 40t-40 93zM662 1712q0 53 40 93t95 40q53 0 94 -40t41 -93t-41 -93t-94 -40q-55 0 -95 40t-40 93z" />
<glyph unicode="&#xcc;" horiz-adv-x="534" d="M-67 1849h272l162 -284h-207zM139 0v1434h256v-1434h-256z" />
<glyph unicode="&#xcd;" horiz-adv-x="534" d="M139 0v1434h256v-1434h-256zM154 1565l162 284h272l-229 -284h-205z" />
<glyph unicode="&#xce;" horiz-adv-x="534" d="M-45 1565l228 284h170l227 -284h-193l-120 123l-121 -123h-191zM139 0v1434h256v-1434h-256z" />
<glyph unicode="&#xcf;" horiz-adv-x="534" d="M-59 1712q0 53 40 93t95 40q53 0 94 -40t41 -93t-41 -93t-94 -40q-55 0 -95 40t-40 93zM139 0v1434h256v-1434h-256zM326 1712q0 53 40 93t95 40q53 0 94 -40t41 -93t-41 -93t-94 -40q-55 0 -95 40t-40 93z" />
<glyph unicode="&#xd0;" horiz-adv-x="1517" d="M39 618v197h160v619h463q231 0 402 -87t263 -249t92 -381t-92 -381t-263 -249t-402 -87h-463v618h-160zM455 229h198q242 0 376 122t134 366t-134 365.5t-376 121.5h-198v-389h307v-197h-307v-389z" />
<glyph unicode="&#xd1;" horiz-adv-x="1425" d="M139 0v1434h281l592 -998l12 -57h6v1055h256v-1434h-280l-592 997l-13 58h-6v-1055h-256zM334 1581q8 133 77 199.5t159 66.5q63 0 101 -17.5t77 -49.5q25 -20 46.5 -31.5t47.5 -11.5q72 0 90 100h160q-8 -133 -76.5 -199.5t-159.5 -66.5q-63 0 -101 17.5t-77 49.5 q-25 20 -46 31.5t-48 11.5q-72 0 -90 -100h-160z" />
<glyph unicode="&#xd2;" horiz-adv-x="1644" d="M98 717q0 215 95.5 383t260 261t367.5 93q205 0 370 -93t260 -261t95 -383t-95 -383t-260 -261t-370 -93q-203 0 -367.5 93t-260 261t-95.5 383zM356 717q0 -150 57.5 -264.5t163 -179t244.5 -64.5q140 0 245 64.5t162.5 179t57.5 264.5t-57.5 264.5t-162.5 179 t-245 64.5q-139 0 -244.5 -64.5t-163 -179.5t-57.5 -264zM488 1849h272l162 -284h-207z" />
<glyph unicode="&#xd3;" horiz-adv-x="1644" d="M98 717q0 215 95.5 383t260 261t367.5 93q205 0 370 -93t260 -261t95 -383t-95 -383t-260 -261t-370 -93q-203 0 -367.5 93t-260 261t-95.5 383zM356 717q0 -150 57.5 -264.5t163 -179t244.5 -64.5q140 0 245 64.5t162.5 179t57.5 264.5t-57.5 264.5t-162.5 179 t-245 64.5q-139 0 -244.5 -64.5t-163 -179.5t-57.5 -264zM709 1565l162 284h272l-229 -284h-205z" />
<glyph unicode="&#xd4;" horiz-adv-x="1644" d="M98 717q0 215 95.5 383t260 261t367.5 93q205 0 370 -93t260 -261t95 -383t-95 -383t-260 -261t-370 -93q-203 0 -367.5 93t-260 261t-95.5 383zM356 717q0 -150 57.5 -264.5t163 -179t244.5 -64.5q140 0 245 64.5t162.5 179t57.5 264.5t-57.5 264.5t-162.5 179 t-245 64.5q-139 0 -244.5 -64.5t-163 -179.5t-57.5 -264zM510 1565l228 284h170l227 -284h-193l-120 123l-121 -123h-191z" />
<glyph unicode="&#xd5;" horiz-adv-x="1644" d="M98 717q0 215 95.5 383t260 261t367.5 93q205 0 370 -93t260 -261t95 -383t-95 -383t-260 -261t-370 -93q-203 0 -367.5 93t-260 261t-95.5 383zM356 717q0 -150 57.5 -264.5t163 -179t244.5 -64.5q140 0 245 64.5t162.5 179t57.5 264.5t-57.5 264.5t-162.5 179 t-245 64.5q-139 0 -244.5 -64.5t-163 -179.5t-57.5 -264zM442 1581q8 133 77 199.5t159 66.5q63 0 101 -17.5t77 -49.5q25 -20 46.5 -31.5t47.5 -11.5q72 0 90 100h160q-8 -133 -76.5 -199.5t-159.5 -66.5q-63 0 -101 17.5t-77 49.5q-25 20 -46 31.5t-48 11.5 q-72 0 -90 -100h-160z" />
<glyph unicode="&#xd6;" horiz-adv-x="1644" d="M98 717q0 215 95.5 383t260 261t367.5 93q205 0 370 -93t260 -261t95 -383t-95 -383t-260 -261t-370 -93q-203 0 -367.5 93t-260 261t-95.5 383zM356 717q0 -150 57.5 -264.5t163 -179t244.5 -64.5q140 0 245 64.5t162.5 179t57.5 264.5t-57.5 264.5t-162.5 179 t-245 64.5q-139 0 -244.5 -64.5t-163 -179.5t-57.5 -264zM496 1712q0 53 40 93t95 40q53 0 94 -40t41 -93t-41 -93t-94 -40q-55 0 -95 40t-40 93zM881 1712q0 53 40 93t95 40q53 0 94 -40t41 -93t-41 -93t-94 -40q-55 0 -95 40t-40 93z" />
<glyph unicode="&#xd7;" horiz-adv-x="952" d="M109 426l227 227l-227 230l137 139l229 -229l230 229l141 -137l-232 -232l232 -229l-141 -137l-230 229l-229 -229z" />
<glyph unicode="&#xd8;" horiz-adv-x="1644" d="M98 717q0 215 95.5 383t260 261t367.5 93q139 0 258 -43l60 111l188 -97l-61 -112q131 -99 205.5 -252.5t74.5 -343.5q0 -215 -95 -383t-260 -261t-370 -93q-137 0 -258 43l-59 -111l-189 96l62 115q-131 98 -205 250.5t-74 343.5zM356 717q0 -119 36 -215t104 -164 l471 866q-63 20 -146 21q-139 0 -244.5 -64.5t-163 -179.5t-57.5 -264zM676 229q63 -20 145 -20q140 0 245 64.5t162.5 179t57.5 264.5q0 117 -36 214t-101 165z" />
<glyph unicode="&#xd9;" horiz-adv-x="1384" d="M139 535v899h256v-895q0 -160 75 -245t222 -85t222 85t75 245v895h256v-899q0 -164 -65.5 -290t-190.5 -195.5t-297 -69.5t-297 69.5t-190.5 195.5t-65.5 290zM359 1849h272l162 -284h-207z" />
<glyph unicode="&#xda;" horiz-adv-x="1384" d="M139 535v899h256v-895q0 -160 75 -245t222 -85t222 85t75 245v895h256v-899q0 -164 -65.5 -290t-190.5 -195.5t-297 -69.5t-297 69.5t-190.5 195.5t-65.5 290zM580 1565l162 284h272l-229 -284h-205z" />
<glyph unicode="&#xdb;" horiz-adv-x="1384" d="M139 535v899h256v-895q0 -160 75 -245t222 -85t222 85t75 245v895h256v-899q0 -164 -65.5 -290t-190.5 -195.5t-297 -69.5t-297 69.5t-190.5 195.5t-65.5 290zM379 1565l228 284h170l227 -284h-193l-120 123l-121 -123h-191z" />
<glyph unicode="&#xdc;" horiz-adv-x="1384" d="M139 535v899h256v-895q0 -160 75 -245t222 -85t222 85t75 245v895h256v-899q0 -164 -65.5 -290t-190.5 -195.5t-297 -69.5t-297 69.5t-190.5 195.5t-65.5 290zM365 1712q0 53 40 93t95 40q53 0 94 -40t41 -93t-41 -93t-94 -40q-55 0 -95 40t-40 93zM750 1712q0 53 40 93 t95 40q53 0 94 -40t41 -93t-41 -93t-94 -40q-55 0 -95 40t-40 93z" />
<glyph unicode="&#xdd;" d="M31 1434h274l256 -555l27 -156h8l27 156l256 555h274l-434 -918v-516h-256v516zM477 1565l162 284h272l-229 -284h-205z" />
<glyph unicode="&#xde;" horiz-adv-x="1318" d="M139 0v1434h256v-238h277q164 0 287.5 -57.5t192.5 -166t69 -255.5t-69 -256t-192.5 -166t-287.5 -57h-277v-238h-256zM395 461h269q301 0 301 256t-301 256h-269v-512z" />
<glyph unicode="&#xdf;" horiz-adv-x="1292" d="M55 840v184h174v18q0 129 55.5 222.5t149.5 141.5t211 48q172 0 287 -85t115 -232q0 -80 -39 -136.5t-109 -123.5q-33 -31 -48 -49.5t-15 -32.5q0 -23 26.5 -42.5t89.5 -52.5q29 -12 43 -20q223 -109 224 -332q0 -164 -102.5 -266t-272.5 -102q-129 0 -219 67.5 t-115 196.5v12l154 76q37 -147 178 -148q66 0 105.5 41t39.5 113q0 70 -41 114t-135 89q-104 47 -157.5 98t-53.5 131q0 53 26.5 93t78.5 91q51 53 74.5 89t23.5 83q0 61 -45 98.5t-113 37.5q-82 0 -131 -55.5t-49 -159.5v-1047h-236v840h-174z" />
<glyph unicode="&#xe0;" horiz-adv-x="1150" d="M82 285q0 141 97 224t257 99l297 31v55q0 80 -53 122t-143 42q-80 0 -130.5 -39t-64.5 -114l-203 10l-10 8q29 156 143.5 238.5t272.5 82.5q186 0 301 -93t115 -255v-420q0 -102 81 -102q18 0 45 6l7 -4v-168q-63 -20 -129 -20q-74 0 -132.5 34.5t-84.5 114.5h-7 q-66 -72 -150.5 -114.5t-182.5 -42.5q-140 0 -233 82.5t-93 222.5zM223 1440h272l162 -285h-207zM305 297q0 -61 41 -94t105 -33q81 0 149 40t133 116v149l-266 -31q-80 -10 -121 -50t-41 -97z" />
<glyph unicode="&#xe1;" horiz-adv-x="1150" d="M82 285q0 141 97 224t257 99l297 31v55q0 80 -53 122t-143 42q-80 0 -130.5 -39t-64.5 -114l-203 10l-10 8q29 156 143.5 238.5t272.5 82.5q186 0 301 -93t115 -255v-420q0 -102 81 -102q18 0 45 6l7 -4v-168q-63 -20 -129 -20q-74 0 -132.5 34.5t-84.5 114.5h-7 q-66 -72 -150.5 -114.5t-182.5 -42.5q-140 0 -233 82.5t-93 222.5zM305 297q0 -61 41 -94t105 -33q81 0 149 40t133 116v149l-266 -31q-80 -10 -121 -50t-41 -97zM430 1155l162 285h272l-229 -285h-205z" />
<glyph unicode="&#xe2;" horiz-adv-x="1150" d="M82 285q0 141 97 224t257 99l297 31v55q0 80 -53 122t-143 42q-80 0 -130.5 -39t-64.5 -114l-203 10l-10 8q29 156 143.5 238.5t272.5 82.5q186 0 301 -93t115 -255v-420q0 -102 81 -102q18 0 45 6l7 -4v-168q-63 -20 -129 -20q-74 0 -132.5 34.5t-84.5 114.5h-7 q-66 -72 -150.5 -114.5t-182.5 -42.5q-140 0 -233 82.5t-93 222.5zM243 1155l228 285h170l227 -285h-193l-120 123l-121 -123h-191zM305 297q0 -61 41 -94t105 -33q81 0 149 40t133 116v149l-266 -31q-80 -10 -121 -50t-41 -97z" />
<glyph unicode="&#xe3;" horiz-adv-x="1150" d="M82 285q0 141 97 224t257 99l297 31v55q0 80 -53 122t-143 42q-80 0 -130.5 -39t-64.5 -114l-203 10l-10 8q29 156 143.5 238.5t272.5 82.5q186 0 301 -93t115 -255v-420q0 -102 81 -102q18 0 45 6l7 -4v-168q-63 -20 -129 -20q-74 0 -132.5 34.5t-84.5 114.5h-7 q-66 -72 -150.5 -114.5t-182.5 -42.5q-140 0 -233 82.5t-93 222.5zM178 1171q8 133 77 200t159 67q63 0 101 -17.5t77 -50.5q25 -20 46.5 -31.5t47.5 -11.5q72 0 90 100h160q-8 -133 -76.5 -199.5t-159.5 -66.5q-63 0 -101 17.5t-77 50.5q-25 20 -46 31.5t-48 11.5 q-72 0 -90 -101h-160zM305 297q0 -61 41 -94t105 -33q81 0 149 40t133 116v149l-266 -31q-80 -10 -121 -50t-41 -97z" />
<glyph unicode="&#xe4;" horiz-adv-x="1150" d="M82 285q0 141 97 224t257 99l297 31v55q0 80 -53 122t-143 42q-80 0 -130.5 -39t-64.5 -114l-203 10l-10 8q29 156 143.5 238.5t272.5 82.5q186 0 301 -93t115 -255v-420q0 -102 81 -102q18 0 45 6l7 -4v-168q-63 -20 -129 -20q-74 0 -132.5 34.5t-84.5 114.5h-7 q-66 -72 -150.5 -114.5t-182.5 -42.5q-140 0 -233 82.5t-93 222.5zM230 1303q0 53 40 93t95 40q53 0 94 -40t41 -93t-41 -93.5t-94 -40.5q-55 0 -95 40t-40 94zM305 297q0 -61 41 -94t105 -33q81 0 149 40t133 116v149l-266 -31q-80 -10 -121 -50t-41 -97zM615 1303 q0 53 40 93t95 40q53 0 94 -40t41 -93t-41 -93.5t-94 -40.5q-55 0 -95 40t-40 94z" />
<glyph unicode="&#xe5;" horiz-adv-x="1150" d="M82 285q0 141 97 224t257 99l297 31v55q0 80 -53 122t-143 42q-80 0 -130.5 -39t-64.5 -114l-203 10l-10 8q29 156 143.5 238.5t272.5 82.5q186 0 301 -93t115 -255v-420q0 -102 81 -102q18 0 45 6l7 -4v-168q-63 -20 -129 -20q-74 0 -132.5 34.5t-84.5 114.5h-7 q-66 -72 -150.5 -114.5t-182.5 -42.5q-140 0 -233 82.5t-93 222.5zM305 297q0 -61 41 -94t105 -33q81 0 149 40t133 116v149l-266 -31q-80 -10 -121 -50t-41 -97zM363 1286q0 80 56.5 137.5t137.5 57.5q80 0 136.5 -57.5t56.5 -137.5t-56.5 -137t-136.5 -57q-81 0 -137.5 57 t-56.5 137zM484 1286q0 -33 20.5 -53.5t52.5 -20.5q31 0 52.5 20.5t21.5 53.5t-21.5 53.5t-52.5 20.5q-33 0 -53 -20.5t-20 -53.5z" />
<glyph unicode="&#xe6;" horiz-adv-x="1810" d="M82 285q0 143 103.5 228t277.5 93l270 12v66q0 80 -53 127t-143 47q-78 0 -129.5 -39t-65.5 -114l-209 10l-4 8q29 156 143.5 238.5t272.5 82.5q115 0 204 -37.5t144 -105.5q70 70 161 106.5t191 36.5q145 0 258 -62t176.5 -181t63.5 -281v-71h-780l-2 -19 q14 -119 90.5 -185.5t197.5 -66.5q106 0 173 48t94 132l204 -12l9 -10q-51 -172 -175 -264t-309 -92q-135 0 -241.5 52t-174.5 148h-6q-76 -96 -178 -148t-213 -52q-158 0 -254 82.5t-96 222.5zM305 295q0 -59 40 -92t110 -33q155 0 278 156v118l-239 -12q-92 -4 -140.5 -41 t-48.5 -96zM965 618h557q-10 111 -87 173.5t-190 62.5q-106 0 -183 -62.5t-97 -173.5z" />
<glyph unicode="&#xe7;" horiz-adv-x="1171" d="M78 512q0 156 68.5 276.5t188.5 188t267 67.5q201 0 332 -102t160 -285l-7 -10l-204 -12q-23 94 -94.5 148.5t-184.5 54.5q-131 0 -214 -86t-83 -240t83 -240t214 -86q113 0 182.5 52.5t96.5 150.5l204 -12l7 -10q-35 -180 -160 -281.5t-316 -105.5l-55 -89q45 20 90 21 q72 0 116 -39t44 -109q0 -86 -58.5 -133t-154.5 -47q-88 0 -142.5 41t-66.5 103l4 10l137 6q18 -33 68 -33q29 0 44 14.5t15 41.5t-16 41t-45 14q-45 0 -80 -35l-119 20l-2 9l80 178q-178 39 -288.5 179t-110.5 339z" />
<glyph unicode="&#xe8;" horiz-adv-x="1155" d="M78 512q0 156 70.5 276.5t187.5 188t254 67.5q145 0 259 -62t177.5 -181t63.5 -281v-71h-785q8 -125 87 -198t202 -73q104 0 172 48t96 132l205 -12l6 -10q-49 -172 -173 -264t-310 -92q-152 0 -268.5 66.5t-180 187t-63.5 278.5zM256 1440h272l162 -285h-207zM309 618 h559q-10 111 -86.5 173.5t-191.5 62.5q-106 0 -183 -62.5t-98 -173.5z" />
<glyph unicode="&#xe9;" horiz-adv-x="1155" d="M78 512q0 156 70.5 276.5t187.5 188t254 67.5q145 0 259 -62t177.5 -181t63.5 -281v-71h-785q8 -125 87 -198t202 -73q104 0 172 48t96 132l205 -12l6 -10q-49 -172 -173 -264t-310 -92q-152 0 -268.5 66.5t-180 187t-63.5 278.5zM309 618h559q-10 111 -86.5 173.5 t-191.5 62.5q-106 0 -183 -62.5t-98 -173.5zM463 1155l162 285h272l-229 -285h-205z" />
<glyph unicode="&#xea;" horiz-adv-x="1155" d="M78 512q0 156 70.5 276.5t187.5 188t254 67.5q145 0 259 -62t177.5 -181t63.5 -281v-71h-785q8 -125 87 -198t202 -73q104 0 172 48t96 132l205 -12l6 -10q-49 -172 -173 -264t-310 -92q-152 0 -268.5 66.5t-180 187t-63.5 278.5zM276 1155l228 285h170l227 -285h-193 l-120 123l-121 -123h-191zM309 618h559q-10 111 -86.5 173.5t-191.5 62.5q-106 0 -183 -62.5t-98 -173.5z" />
<glyph unicode="&#xeb;" horiz-adv-x="1155" d="M78 512q0 156 70.5 276.5t187.5 188t254 67.5q145 0 259 -62t177.5 -181t63.5 -281v-71h-785q8 -125 87 -198t202 -73q104 0 172 48t96 132l205 -12l6 -10q-49 -172 -173 -264t-310 -92q-152 0 -268.5 66.5t-180 187t-63.5 278.5zM263 1303q0 53 40 93t95 40q53 0 94 -40 t41 -93t-41 -93.5t-94 -40.5q-55 0 -95 40t-40 94zM309 618h559q-10 111 -86.5 173.5t-191.5 62.5q-106 0 -183 -62.5t-98 -173.5zM648 1303q0 53 40 93t95 40q53 0 94 -40t41 -93t-41 -93.5t-94 -40.5q-55 0 -95 40t-40 94z" />
<glyph unicode="&#xec;" horiz-adv-x="487" d="M-90 1440h272l162 -285h-207zM127 0v1024h233v-1024h-233z" />
<glyph unicode="&#xed;" horiz-adv-x="487" d="M117 1155l162 285h272l-229 -285h-205zM127 0v1024h233v-1024h-233z" />
<glyph unicode="&#xee;" horiz-adv-x="487" d="M-70 1155l228 285h170l227 -285h-193l-120 123l-121 -123h-191zM127 0v1024h233v-1024h-233z" />
<glyph unicode="&#xef;" horiz-adv-x="487" d="M-84 1303q0 53 40 93t95 40q53 0 94 -40t41 -93t-41 -93.5t-94 -40.5q-55 0 -95 40t-40 94zM127 0v1024h233v-1024h-233zM301 1303q0 53 40 93t95 40q53 0 94 -40t41 -93t-41 -93.5t-94 -40.5q-55 0 -95 40t-40 94z" />
<glyph unicode="&#xf0;" horiz-adv-x="1257" d="M78 485q0 139 63.5 255t181 184.5t273.5 68.5q94 0 180 -33.5t148 -99.5q-23 184 -127 301l-150 -112l-102 137l108 82q-90 41 -213 57l-10 14l33 177q213 -18 366 -117l140 104l102 -135l-108 -82q196 -223 196 -622q0 -203 -64.5 -357.5t-189.5 -240.5t-297 -86 q-162 0 -282.5 68.5t-184 184t-63.5 252.5zM313 485q0 -127 81 -213t214 -86t213 86t80 213q0 129 -80 215t-213 86t-214 -86t-81 -215z" />
<glyph unicode="&#xf1;" d="M131 0v1024h234v-133q63 66 154 109.5t196 43.5q164 0 255 -93t91 -246v-705h-234v645q0 94 -48 144.5t-140 50.5q-78 0 -150.5 -48.5t-123.5 -123.5v-668h-234zM217 1171q8 133 77 200t159 67q63 0 101 -17.5t77 -50.5q25 -20 46.5 -31.5t47.5 -11.5q72 0 90 100h160 q-8 -133 -76.5 -199.5t-159.5 -66.5q-63 0 -101 17.5t-77 50.5q-25 20 -46 31.5t-48 11.5q-72 0 -90 -101h-160z" />
<glyph unicode="&#xf2;" horiz-adv-x="1239" d="M78 512q0 152 68.5 272.5t192.5 190t282 69.5t280.5 -69.5t191 -190t68.5 -272.5t-68.5 -272.5t-191.5 -190t-280 -69.5q-158 0 -282 69.5t-192.5 190t-68.5 272.5zM287 1440h272l162 -285h-207zM311 512q0 -152 87 -239t223 -87q135 0 221 87t86 239t-86 239t-221 87 t-222.5 -87t-87.5 -239z" />
<glyph unicode="&#xf3;" horiz-adv-x="1239" d="M78 512q0 152 68.5 272.5t192.5 190t282 69.5t280.5 -69.5t191 -190t68.5 -272.5t-68.5 -272.5t-191.5 -190t-280 -69.5q-158 0 -282 69.5t-192.5 190t-68.5 272.5zM311 512q0 -152 87 -239t223 -87q135 0 221 87t86 239t-86 239t-221 87t-222.5 -87t-87.5 -239z M494 1155l162 285h272l-229 -285h-205z" />
<glyph unicode="&#xf4;" horiz-adv-x="1239" d="M78 512q0 152 68.5 272.5t192.5 190t282 69.5t280.5 -69.5t191 -190t68.5 -272.5t-68.5 -272.5t-191.5 -190t-280 -69.5q-158 0 -282 69.5t-192.5 190t-68.5 272.5zM307 1155l228 285h170l227 -285h-193l-120 123l-121 -123h-191zM311 512q0 -152 87 -239t223 -87 q135 0 221 87t86 239t-86 239t-221 87t-222.5 -87t-87.5 -239z" />
<glyph unicode="&#xf5;" horiz-adv-x="1239" d="M78 512q0 152 68.5 272.5t192.5 190t282 69.5t280.5 -69.5t191 -190t68.5 -272.5t-68.5 -272.5t-191.5 -190t-280 -69.5q-158 0 -282 69.5t-192.5 190t-68.5 272.5zM241 1171q8 133 77 200t159 67q63 0 101 -17.5t77 -50.5q25 -20 46.5 -31.5t47.5 -11.5q72 0 90 100h160 q-8 -133 -76.5 -199.5t-159.5 -66.5q-63 0 -101 17.5t-77 50.5q-25 20 -46 31.5t-48 11.5q-72 0 -90 -101h-160zM311 512q0 -152 87 -239t223 -87q135 0 221 87t86 239t-86 239t-221 87t-222.5 -87t-87.5 -239z" />
<glyph unicode="&#xf6;" horiz-adv-x="1239" d="M78 512q0 152 68.5 272.5t192.5 190t282 69.5t280.5 -69.5t191 -190t68.5 -272.5t-68.5 -272.5t-191.5 -190t-280 -69.5q-158 0 -282 69.5t-192.5 190t-68.5 272.5zM293 1303q0 53 40 93t95 40q53 0 94 -40t41 -93t-41 -93.5t-94 -40.5q-55 0 -95 40t-40 94zM311 512 q0 -152 87 -239t223 -87q135 0 221 87t86 239t-86 239t-221 87t-222.5 -87t-87.5 -239zM678 1303q0 53 40 93t95 40q53 0 94 -40t41 -93t-41 -93.5t-94 -40.5q-55 0 -95 40t-40 94z" />
<glyph unicode="&#xf7;" horiz-adv-x="1040" d="M96 557v197h846v-197h-846zM360 281q0 66 47.5 113.5t112.5 47.5q66 0 114 -48t48 -113q0 -66 -48 -114t-114 -48q-65 0 -112.5 48t-47.5 114zM360 1030q0 66 47.5 114t112.5 48q66 0 114 -48t48 -114t-48 -114t-114 -48q-65 0 -112.5 48.5t-47.5 113.5z" />
<glyph unicode="&#xf8;" horiz-adv-x="1239" d="M78 512q0 152 68.5 272.5t192.5 190t282 69.5q86 0 165 -22l48 88l174 -92l-45 -84q94 -72 146 -181.5t52 -240.5q0 -152 -68.5 -272.5t-191.5 -190t-280 -69.5q-86 0 -166 22l-47 -88l-175 92l46 82q-96 74 -148.5 182.5t-52.5 241.5zM311 512q0 -135 74 -225l297 544 q-27 6 -61 7q-135 0 -222.5 -87t-87.5 -239zM559 193q29 -6 62 -7q135 0 221 87t86 239q0 139 -74 225z" />
<glyph unicode="&#xf9;" d="M123 334v690h233v-645q0 -94 50.5 -144.5t142.5 -50.5q80 0 149.5 47.5t120.5 124.5v668h234v-1024h-234v131q-61 -68 -151 -109.5t-197 -41.5q-166 0 -257 95t-91 259zM254 1440h272l162 -285h-207z" />
<glyph unicode="&#xfa;" d="M123 334v690h233v-645q0 -94 50.5 -144.5t142.5 -50.5q80 0 149.5 47.5t120.5 124.5v668h234v-1024h-234v131q-61 -68 -151 -109.5t-197 -41.5q-166 0 -257 95t-91 259zM461 1155l162 285h272l-229 -285h-205z" />
<glyph unicode="&#xfb;" d="M123 334v690h233v-645q0 -94 50.5 -144.5t142.5 -50.5q80 0 149.5 47.5t120.5 124.5v668h234v-1024h-234v131q-61 -68 -151 -109.5t-197 -41.5q-166 0 -257 95t-91 259zM274 1155l228 285h170l227 -285h-193l-120 123l-121 -123h-191z" />
<glyph unicode="&#xfc;" d="M123 334v690h233v-645q0 -94 50.5 -144.5t142.5 -50.5q80 0 149.5 47.5t120.5 124.5v668h234v-1024h-234v131q-61 -68 -151 -109.5t-197 -41.5q-166 0 -257 95t-91 259zM260 1303q0 53 40 93t95 40q53 0 94 -40t41 -93t-41 -93.5t-94 -40.5q-55 0 -95 40t-40 94z M645 1303q0 53 40 93t95 40q53 0 94 -40t41 -93t-41 -93.5t-94 -40.5q-55 0 -95 40t-40 94z" />
<glyph unicode="&#xfd;" horiz-adv-x="1132" d="M41 1024h258l244 -580l16 -137h10l279 717h244l-576 -1434h-240l179 445zM455 1155l162 285h272l-229 -285h-205z" />
<glyph unicode="&#xfe;" horiz-adv-x="1245" d="M131 -410v1905h234v-584q129 133 327 133q123 0 232.5 -62t176 -183t66.5 -287t-66.5 -287t-178 -183t-244.5 -62q-92 0 -175 30.5t-138 85.5v-506h-234zM365 438q0 -72 36.5 -131t100 -93t137.5 -34q129 0 211 85t82 247t-82 247t-211 85q-113 0 -193.5 -74t-80.5 -182 v-150z" />
<glyph unicode="&#xff;" horiz-adv-x="1132" d="M41 1024h258l244 -580l16 -137h10l279 717h244l-576 -1434h-240l179 445zM254 1303q0 53 40 93t95 40q53 0 94 -40t41 -93t-41 -93.5t-94 -40.5q-55 0 -95 40t-40 94zM639 1303q0 53 40 93t95 40q53 0 94 -40t41 -93t-41 -93.5t-94 -40.5q-55 0 -95 40t-40 94z" />
<glyph unicode="&#x152;" horiz-adv-x="2326" d="M98 717q0 215 95.5 383t260 261t367.5 93q135 0 254 -44t211 -126v150h905v-226h-649v-379h594v-225h-594v-375h672v-229h-928v150q-92 -82 -211 -126t-254 -44q-203 0 -367.5 93t-260 261t-95.5 383zM356 717q0 -150 57.5 -264.5t163 -179t244.5 -64.5q140 0 245 64.5 t162.5 179t57.5 264.5t-57.5 264.5t-162.5 179t-245 64.5q-139 0 -244.5 -64.5t-163 -179.5t-57.5 -264z" />
<glyph unicode="&#x153;" horiz-adv-x="2015" d="M78 512q0 152 68.5 272.5t192.5 190t282 69.5q135 0 242.5 -53t183.5 -153q74 98 177 152t226 54q145 0 258 -62t176.5 -181t63.5 -281v-71h-785q8 -125 87 -198t204 -73q104 0 171 47t95 133l205 -12l6 -10q-49 -172 -173 -264t-308 -92q-133 0 -236.5 51t-171.5 147 q-74 -96 -181 -147t-240 -51q-158 0 -282 69.5t-192.5 190t-68.5 272.5zM311 512q0 -152 87 -239t223 -87q135 0 221 87t86 239t-86 239t-221 87t-222.5 -87t-87.5 -239zM1169 618h557q-10 111 -86.5 173.5t-191.5 62.5q-106 0 -182 -62.5t-97 -173.5z" />
<glyph unicode="&#x178;" d="M31 1434h274l256 -555l27 -156h8l27 156l256 555h274l-434 -918v-516h-256v516zM265 1712q0 53 40 93t95 40q53 0 94 -40t41 -93t-41 -93t-94 -40q-55 0 -95 40t-40 93zM650 1712q0 53 40 93t95 40q53 0 94 -40t41 -93t-41 -93t-94 -40q-55 0 -95 40t-40 93z" />
<glyph unicode="&#x2c6;" horiz-adv-x="747" d="M61 1155l228 285h170l227 -285h-192l-121 123l-121 -123h-191z" />
<glyph unicode="&#x2dc;" horiz-adv-x="880" d="M61 1171q8 133 77 200t159 67q63 0 101 -17.5t77 -50.5q25 -20 46.5 -31.5t47.5 -11.5q72 0 90 100h160q-8 -133 -76.5 -199.5t-158.5 -66.5q-64 0 -102 17.5t-76 50.5q-25 20 -46.5 31.5t-48.5 11.5q-72 0 -90 -101h-160z" />
<glyph unicode="&#x2000;" horiz-adv-x="945" />
<glyph unicode="&#x2001;" horiz-adv-x="1890" />
<glyph unicode="&#x2002;" horiz-adv-x="945" />
<glyph unicode="&#x2003;" horiz-adv-x="1890" />
<glyph unicode="&#x2004;" horiz-adv-x="630" />
<glyph unicode="&#x2005;" horiz-adv-x="472" />
<glyph unicode="&#x2006;" horiz-adv-x="315" />
<glyph unicode="&#x2007;" horiz-adv-x="315" />
<glyph unicode="&#x2008;" horiz-adv-x="236" />
<glyph unicode="&#x2009;" horiz-adv-x="378" />
<glyph unicode="&#x200a;" horiz-adv-x="105" />
<glyph unicode="&#x2010;" horiz-adv-x="913" d="M96 547v196h723v-196h-723z" />
<glyph unicode="&#x2011;" horiz-adv-x="913" d="M96 547v196h723v-196h-723z" />
<glyph unicode="&#x2012;" horiz-adv-x="913" d="M96 547v196h723v-196h-723z" />
<glyph unicode="&#x2013;" horiz-adv-x="1155" d="M96 547v196h963v-196h-963z" />
<glyph unicode="&#x2014;" horiz-adv-x="1642" d="M96 547v196h1452v-196h-1452z" />
<glyph unicode="&#x2018;" horiz-adv-x="550" d="M98 1057q0 135 85 243.5t247 153.5l27 -65q-166 -55 -195 -195q68 -6 111 -49t43 -109q0 -70 -45 -114.5t-113 -44.5q-70 0 -115 50t-45 130z" />
<glyph unicode="&#x2019;" horiz-adv-x="550" d="M94 942q166 55 195 195q-70 6 -113 50t-43 109q0 70 46 114t114 44q69 0 114.5 -50t45.5 -130q0 -135 -85 -243.5t-247 -153.5z" />
<glyph unicode="&#x201a;" horiz-adv-x="550" d="M94 -195q166 55 195 195q-70 6 -113 50t-43 110q0 70 46 113.5t114 43.5q70 0 115 -50t45 -130q0 -133 -85 -242.5t-247 -154.5z" />
<glyph unicode="&#x201c;" horiz-adv-x="940" d="M98 1057q0 135 85 243.5t247 153.5l27 -65q-166 -55 -195 -195q68 -6 111 -49t43 -109q0 -70 -45 -114.5t-113 -44.5q-70 0 -115 50t-45 130zM487 1057q0 135 85 243.5t247 153.5l27 -65q-164 -53 -197 -195q70 -6 113 -49t43 -109q0 -70 -45 -114.5t-115 -44.5t-114 50 t-44 130z" />
<glyph unicode="&#x201d;" horiz-adv-x="940" d="M94 942q166 55 195 195q-68 6 -112 49t-44 108q0 70 46 115t114 45q69 0 114.5 -50t45.5 -130q0 -135 -85 -243.5t-247 -153.5zM483 942q162 53 195 195q-70 6 -113 49t-43 108q0 70 45 115t115 45t115 -50t45 -130q0 -135 -86 -243.5t-246 -153.5z" />
<glyph unicode="&#x201e;" horiz-adv-x="940" d="M94 -195q166 55 195 195q-70 6 -113 50t-43 110q0 70 46 113.5t114 43.5q70 0 115 -50t45 -130q0 -133 -85 -242.5t-247 -154.5zM483 -195q162 53 195 195q-70 6 -113 49t-43 111q0 70 45 113.5t115 43.5t115 -50t45 -130q0 -133 -86 -242.5t-246 -154.5z" />
<glyph unicode="&#x2022;" horiz-adv-x="647" d="M98 655q0 96 65.5 161t160.5 65q96 0 160.5 -64.5t64.5 -161.5q0 -94 -64.5 -159.5t-160.5 -65.5q-95 0 -160.5 65.5t-65.5 159.5z" />
<glyph unicode="&#x2026;" horiz-adv-x="1513" d="M98 162q0 66 48.5 113t113.5 47q66 0 113 -47.5t47 -112.5q0 -66 -47 -114t-113 -48q-65 0 -113.5 48t-48.5 114zM596 162q0 66 48.5 113t113.5 47q66 0 113 -47.5t47 -112.5q0 -66 -47 -114t-113 -48q-65 0 -113.5 48t-48.5 114zM1091 162q0 66 48.5 113t113.5 47 q66 0 113 -47.5t47 -112.5q0 -66 -47 -114t-113 -48q-65 0 -113.5 48t-48.5 114z" />
<glyph unicode="&#x202f;" horiz-adv-x="378" />
<glyph unicode="&#x2039;" horiz-adv-x="612" d="M86 573l215 457h213l-190 -457l190 -456h-213z" />
<glyph unicode="&#x203a;" horiz-adv-x="612" d="M98 117l191 456l-191 457h213l215 -457l-215 -456h-213z" />
<glyph unicode="&#x205f;" horiz-adv-x="472" />
<glyph unicode="&#x20ac;" horiz-adv-x="1568" d="M53 494l47 182h109v37l2 73h-158l47 183h144q63 223 231 354t402 131q231 0 386.5 -109.5t206.5 -310.5l-8 -16l-243 -19q-78 225 -345 226q-129 0 -221 -67.5t-139 -188.5h424l-49 -183h-418q-4 -45 -4 -75v-35h471l-49 -182h-385q43 -133 139 -209t236 -76 q131 0 217 58.5t123 172.5l241 -18l10 -16q-59 -207 -213.5 -316.5t-379.5 -109.5q-242 0 -413 139t-228 375h-183z" />
<glyph unicode="&#x2122;" horiz-adv-x="1632" d="M76 1296v138h559v-138h-205v-682h-149v682h-205zM739 614v820h156l254 -637l254 637h156v-820h-152v494h-4l-6 -51l-180 -443h-136l-180 443l-6 51h-4v-494h-152z" />
<glyph unicode="&#x25fc;" horiz-adv-x="1024" d="M0 0v1024h1024v-1024h-1024z" />
<glyph unicode="&#xfb01;" horiz-adv-x="1198" />
<glyph unicode="&#xfb02;" horiz-adv-x="1202" />
<glyph unicode="&#xfb03;" horiz-adv-x="1806" d="M55 823v201h174v180q0 156 91.5 234t230.5 78q68 0 137 -21v-192l-6 -5q-55 18 -104 19q-53 0 -83 -28.5t-30 -86.5v-178h373v180q0 156 91 234t230 78q68 0 137 -21v-192l-8 -5q-55 18 -104 19q-51 0 -82 -28.5t-31 -86.5v-178h608v-1024h-233v823h-375v-823h-233v823 h-373v-823h-236v823h-174zM1417 1303q0 59 43 102t103 43q59 0 102 -43t43 -102t-43 -102.5t-102 -43.5q-60 0 -103 43t-43 103z" />
<glyph unicode="&#xfb04;" horiz-adv-x="1810" d="M55 823v201h174v180q0 156 91.5 234t230.5 78q68 0 137 -21v-192l-6 -5q-55 18 -104 19q-53 0 -83 -28.5t-30 -86.5v-178h373v180q0 156 91 234t234 78h516v-1516h-233v1317h-262q-113 0 -113 -115v-178h221v-201h-221v-823h-233v823h-373v-823h-236v823h-174z" />
</font>
</defs>
</svg>
