<svg width="48" height="48" viewBox="0 0 48 48" fill="none" xmlns="http://www.w3.org/2000/svg">
<path d="M38.9803 15.5984L37.1167 25.8885C36.9629 26.7385 36.5179 27.5073 35.8592 28.061C35.2005 28.6147 34.3697 28.9182 33.5116 28.9186H15.7917L16.4639 32.6101H32.8853C33.6104 32.6101 34.3192 32.8266 34.9221 33.2322C35.525 33.6379 35.9949 34.2144 36.2724 34.8889C36.5499 35.5635 36.6225 36.3057 36.481 37.0218C36.3396 37.7379 35.9904 38.3956 35.4777 38.9119C34.965 39.4282 34.3117 39.7797 33.6005 39.9222C32.8894 40.0646 32.1522 39.9915 31.4823 39.7121C30.8124 39.4327 30.2398 38.9596 29.837 38.3525C29.4341 37.7454 29.2191 37.0317 29.2191 36.3016C29.2193 35.8821 29.2916 35.4657 29.433 35.0711H20.4508C20.5922 35.4657 20.6646 35.8821 20.6647 36.3016C20.6658 36.8972 20.5238 37.4842 20.2507 38.0126C19.9777 38.5409 19.5817 38.9949 19.0966 39.3357C18.6116 39.6766 18.0518 39.8942 17.4651 39.97C16.8784 40.0458 16.2822 39.9775 15.7273 39.771C15.1725 39.5645 14.6756 39.2259 14.2789 38.784C13.8822 38.3422 13.5976 37.8103 13.4494 37.2337C13.3011 36.6571 13.2936 36.053 13.4275 35.4728C13.5614 34.8927 13.8328 34.3538 14.2183 33.9021L9.98697 10.461H7.22206C6.89795 10.461 6.58711 10.3314 6.35793 10.1006C6.12875 9.86984 6 9.55685 6 9.2305C6 8.90415 6.12875 8.59117 6.35793 8.36041C6.58711 8.12964 6.89795 8 7.22206 8H9.98697C10.5574 8.00126 11.1095 8.20339 11.5475 8.57139C11.9855 8.93939 12.2819 9.45007 12.3853 10.015L13.1338 14.1525H37.7735C37.9519 14.1529 38.1281 14.1931 38.2892 14.2702C38.4503 14.3474 38.5924 14.4595 38.7054 14.5986C38.8235 14.7333 38.9097 14.8933 38.9573 15.0665C39.005 15.2398 39.0128 15.4216 38.9803 15.5984Z" fill="#1D1E1E"/>
</svg>
