<svg width="20" height="20" viewBox="0 0 48 48" fill="none" xmlns="http://www.w3.org/2000/svg">
<path d="M36.8127 13.7818C36.6176 13.032 36.4876 12.6155 36.4876 12.6155C36.2763 11.8407 35.74 11.8407 34.9437 11.7074L30.6289 11.1492C30.0926 11.0575 30.0926 11.0575 29.8813 10.5827C29.1744 8.94975 28.955 8 28.183 8H19.8135C19.0415 8 18.8302 8.94975 18.1233 10.591C17.912 11.0575 17.912 11.0575 17.3757 11.1575L13.0528 11.7157C12.2646 11.849 11.6958 11.924 11.4845 12.6988C11.4845 12.6988 11.387 13.0404 11.1838 13.7818C10.9238 14.7732 10.8182 14.6649 11.712 14.6649H36.2845C37.1783 14.6733 37.0808 14.7732 36.8127 13.7818Z" fill="gray"/>
<path d="M34.0255 17.3309H13.971C12.6221 17.3309 12.5571 17.5142 12.6384 18.5556L14.1579 38.767C14.2879 39.7917 14.3854 40 15.5799 40H32.4166C33.6111 40 33.7086 39.7917 33.8386 38.767L35.3581 18.5556C35.4394 17.5058 35.3744 17.3309 34.0255 17.3309Z" fill="gray"/>
</svg>
