<svg width="48" height="48" viewBox="0 0 48 48" fill="none" xmlns="http://www.w3.org/2000/svg">
<circle cx="24" cy="24" r="24" fill="#FAFAFA"/>
<path fill-rule="evenodd" clip-rule="evenodd" d="M34.0902 18.8667C34.5233 18.4476 35.1728 18.4476 35.6058 18.8667C36.0389 19.2857 36.0389 19.9143 35.6058 20.3333C34.848 21.0667 33.8737 21.4857 32.8994 21.5905V31.8571C32.8994 33.6381 31.492 35 29.6516 35H11.2477C9.40736 35 8 33.6381 8 31.8571V24.5238H20.6662C20.4497 24.419 20.3414 24.3143 20.2332 24.2095C19.8001 23.7905 19.8001 23.1619 20.2332 22.7429L20.558 22.4286H8V21.381C8 19.6 9.40736 18.2381 11.2477 18.2381H19.3671C20.991 15.0952 24.347 13 28.0278 13H38.3123C38.9619 13 39.3949 13.419 39.3949 14.0476C39.3949 14.6762 38.9619 15.0952 38.3123 15.0952H28.0278C25.5378 15.0952 23.2644 16.2476 21.8571 18.2381H24.8883L25.6461 17.5048C26.0791 17.0857 26.7287 17.0857 27.1617 17.5048C27.5947 17.9238 27.5947 18.5524 27.1617 18.9714L22.6149 23.3714C24.0222 24.2095 25.8626 24.1048 26.9452 23.0571L30.5177 19.6C30.8425 19.3905 31.1673 19.2857 31.6003 19.3905C32.4664 19.7048 33.4407 19.4952 34.0902 18.8667ZM13.4129 30.8095H15.5781C16.2276 30.8095 16.6607 30.3905 16.6607 29.7619C16.6607 29.1333 16.2276 28.7143 15.5781 28.7143H13.4129C12.7634 28.7143 12.3303 29.1333 12.3303 29.7619C12.3303 30.3905 12.7634 30.8095 13.4129 30.8095ZM24.78 30.0762C25.2131 30.4952 25.7543 30.8095 26.4039 30.8095C27.5947 30.8095 28.5691 29.8667 28.5691 28.7143C28.5691 27.5619 27.5947 26.619 26.4039 26.619C25.7543 26.619 25.2131 26.9333 24.78 27.3524C24.347 26.9333 23.8057 26.619 23.1562 26.619C21.9653 26.619 20.991 27.5619 20.991 28.7143C20.991 29.8667 21.9653 30.8095 23.1562 30.8095C23.8057 30.8095 24.347 30.4952 24.78 30.0762Z" fill="#69AFB1"/>
<path d="M35.6966 23.8498C36.3586 22.659 37.5724 22.0095 38.8966 22.0095C39.5586 22.0095 40 22.5508 40 23.2003C40 23.8498 39.5586 24.2829 38.8966 24.2829C38.4552 24.2829 38.0138 24.6076 37.6828 25.0406C37.131 26.0149 36.3586 26.7727 35.4759 27.5305C35.3655 27.6387 35.0345 27.747 34.8138 27.747C34.4828 27.747 34.1517 27.5305 33.931 27.314C33.4897 26.8809 33.6 26.2314 34.0414 25.7984C34.7034 25.2571 35.2552 24.6076 35.6966 23.8498Z" fill="#69AFB1"/>
</svg>
