<svg width="48" height="48" viewBox="0 0 48 48" fill="none" xmlns="http://www.w3.org/2000/svg">
<circle cx="24" cy="24" r="24" fill="#FAFAFA"/>
<path d="M36.825 28.125H36.15V23.4801C36.15 22.9344 35.9348 22.4102 35.5552 22.0234L31.3406 17.7309C30.9609 17.3441 30.4463 17.125 29.9105 17.125H28.05V15.0625C28.05 13.9238 27.143 13 26.025 13H15.225C14.107 13 13.2 13.9238 13.2 15.0625V17.125H10.8375C10.6519 17.125 10.5 17.2797 10.5 17.4688V18.1562C10.5 18.3453 10.6519 18.5 10.8375 18.5H22.3125C22.4981 18.5 22.65 18.6547 22.65 18.8438V19.5312C22.65 19.7203 22.4981 19.875 22.3125 19.875H12.1875C12.0019 19.875 11.85 20.0297 11.85 20.2188V20.9062C11.85 21.0953 12.0019 21.25 12.1875 21.25H20.9625C21.1481 21.25 21.3 21.4047 21.3 21.5938V22.2812C21.3 22.4703 21.1481 22.625 20.9625 22.625H10.8375C10.6519 22.625 10.5 22.7797 10.5 22.9688V23.6562C10.5 23.8453 10.6519 24 10.8375 24H19.6125C19.7981 24 19.95 24.1547 19.95 24.3438V25.0312C19.95 25.2203 19.7981 25.375 19.6125 25.375H13.2V30.875C13.2 33.1523 15.0141 35 17.25 35C19.4859 35 21.3 33.1523 21.3 30.875H26.7C26.7 33.1523 28.5141 35 30.75 35C32.9859 35 34.8 33.1523 34.8 30.875H36.825C37.1963 30.875 37.5 30.5656 37.5 30.1875V28.8125C37.5 28.4344 37.1963 28.125 36.825 28.125ZM17.25 32.9375C16.132 32.9375 15.225 32.0137 15.225 30.875C15.225 29.7363 16.132 28.8125 17.25 28.8125C18.368 28.8125 19.275 29.7363 19.275 30.875C19.275 32.0137 18.368 32.9375 17.25 32.9375ZM30.75 32.9375C29.632 32.9375 28.725 32.0137 28.725 30.875C28.725 29.7363 29.632 28.8125 30.75 28.8125C31.868 28.8125 32.775 29.7363 32.775 30.875C32.775 32.0137 31.868 32.9375 30.75 32.9375ZM34.125 24H28.05V19.1875H29.9105L34.125 23.4801V24Z" fill="#69AFB1"/>
</svg>
