<svg width="48" height="48" viewBox="0 0 48 48" fill="none" xmlns="http://www.w3.org/2000/svg">
<path d="M24 8C13.1666 8 4 23.2901 4 31.8072C4 34.7791 12 40 24 40C36 40 44 34.6988 44 31.8072C44 23.2901 35.1666 8 24 8ZM24 37.1084C13.7754 37.1084 7.70922 33.0535 7.00134 31.6385C7.09755 29.5526 7.64525 27.5072 8.6109 25.6275C10.4468 22.1762 13.3293 20.4016 14.6666 20.4016C16.7084 20.4016 18.2084 24.1767 20.0834 24.1767C23.5 24.1767 26.7916 15.7833 29.2916 15.7833C31.9166 15.7833 39.4583 24.217 40.775 30.3213C40.8984 30.7443 40.9732 31.1786 40.9982 31.6167C40.2413 33.0485 34.1316 37.1084 24 37.1084Z" fill="#69AFB1"/>
</svg>
