<svg width="48" height="48" viewBox="0 0 48 48" fill="none" xmlns="http://www.w3.org/2000/svg">
<circle cx="24" cy="24" r="24" fill="#FAFAFA"/>
<path d="M34.351 23.538L24.4565 13.6435C24.055 13.2475 23.505 13 22.9 13H15.2C13.9845 13 13 13.9845 13 15.2V22.9C13 23.5105 13.2475 24.0605 13.649 24.4565L23.549 34.3565C23.945 34.7525 24.495 35 25.1 35C25.705 35 26.2605 34.7525 26.6565 34.3565L34.3565 26.6565C34.7525 26.255 35 25.705 35 25.1C35 24.4895 34.7525 23.9395 34.351 23.538ZM16.85 18.5C15.937 18.5 15.2 17.763 15.2 16.85C15.2 15.937 15.937 15.2 16.85 15.2C17.763 15.2 18.5 15.937 18.5 16.85C18.5 17.763 17.763 18.5 16.85 18.5Z" fill="#69AFB1"/>
</svg>
