<svg width="48" height="48" viewBox="0 0 48 48" fill="none" xmlns="http://www.w3.org/2000/svg">
<circle cx="24" cy="24" r="24" fill="#FAFAFA"/>
<path d="M24 11C17.4 11 12 16.2388 12 22.6418V25.5522C12 28.2687 14.2 30.403 17 30.403C17.6 30.403 18 30.0149 18 29.4328V21.6716C18 21.0896 17.6 20.7015 17 20.7015C15.9 20.7015 14.9 21.0896 14.1 21.6716C14.6 16.8209 18.9 12.9403 24 12.9403C29.1 12.9403 33.4 16.7239 33.9 21.6716C33.1 21.0896 32.1 20.7015 31 20.7015C30.4 20.7015 30 21.0896 30 21.6716V29.4328C30 30.0149 30.4 30.403 31 30.403C31.6 30.403 32.3 30.306 32.8 30.0149C31.7 31.9552 30 33.5075 27.9 34.3806C27.7 33.2164 26.7 32.2463 25.4 32.2463C24.1 32.2463 23 33.3134 23 34.5746C23 35.2537 23.3 35.9328 23.9 36.4179C24.4 36.806 24.9 37 25.5 37C25.6 37 25.8 37 25.9 37C31.6 36.2239 36 31.2761 36 25.5522V22.6418C36 16.2388 30.6 11 24 11Z" fill="#69AFB1"/>
</svg>
